M48
; DRILL file {KiCad (6.0.2-0)} date Wednesday, July 24, 2024 at 04:17:44 PM
; FORMAT={-:-/ absolute / metric / decimal}
; #@! TF.CreationDate,2024-07-24T16:17:44-04:00
; #@! TF.GenerationSoftware,Kicad,Pcbnew,(6.0.2-0)
; #@! TF.FileFunction,Plated,1,2,PTH
FMAT,2
METRIC
; #@! TA.AperFunction,Plated,PTH,ComponentDrill
T1C0.800
; #@! TA.AperFunction,Plated,PTH,ComponentDrill
T2C0.900
; #@! TA.AperFunction,Plated,PTH,ComponentDrill
T3C1.100
%
G90
G05
T1
X120.72Y-67.8
X120.72Y-71.6
X120.72Y-75.4
X125.0Y-80.4
X127.5Y-80.4
X130.88Y-67.8
X130.88Y-71.6
X130.88Y-75.4
X136.7Y-59.2
X136.7Y-61.74
X136.7Y-64.28
X136.7Y-66.82
X136.7Y-73.2
X136.7Y-75.74
X136.7Y-78.28
X136.7Y-80.82
X144.32Y-59.2
X144.32Y-61.74
X144.32Y-64.28
X144.32Y-66.82
X144.32Y-73.2
X144.32Y-75.74
X144.32Y-78.28
X144.32Y-80.82
X147.72Y-74.2
X147.92Y-60.4
X150.3Y-77.8
X150.5Y-64.2
X155.3Y-77.8
X155.5Y-64.2
X157.88Y-74.2
X158.08Y-60.4
T2
X139.325Y-53.4
X141.865Y-53.4
T3
X119.1Y-85.4
X123.7Y-85.4
X128.4Y-85.6
X133.0Y-85.6
X137.6Y-85.6
X142.3Y-85.6
X146.5Y-53.8
X146.9Y-85.6
X151.1Y-53.8
X152.2Y-85.6
X156.5Y-54.0
X156.8Y-85.6
X161.1Y-54.0
X161.4Y-85.6
X161.6Y-60.2
X161.6Y-64.8
X161.6Y-69.4
X161.6Y-74.5
X161.6Y-79.1
T0
M30
