G04 #@! TF.GenerationSoftware,KiCad,Pcbnew,(6.0.2-0)*
G04 #@! TF.CreationDate,2024-10-15T18:59:14-04:00*
G04 #@! TF.ProjectId,Common Circuits,436f6d6d-6f6e-4204-9369-726375697473,rev?*
G04 #@! TF.SameCoordinates,Original*
G04 #@! TF.FileFunction,Copper,L1,Top*
G04 #@! TF.FilePolarity,Positive*
%FSLAX46Y46*%
G04 Gerber Fmt 4.6, Leading zero omitted, Abs format (unit mm)*
G04 Created by KiCad (PCBNEW (6.0.2-0)) date 2024-10-15 18:59:14*
%MOMM*%
%LPD*%
G01*
G04 APERTURE LIST*
G04 Aperture macros list*
%AMRoundRect*
0 Rectangle with rounded corners*
0 $1 Rounding radius*
0 $2 $3 $4 $5 $6 $7 $8 $9 X,Y pos of 4 corners*
0 Add a 4 corners polygon primitive as box body*
4,1,4,$2,$3,$4,$5,$6,$7,$8,$9,$2,$3,0*
0 Add four circle primitives for the rounded corners*
1,1,$1+$1,$2,$3*
1,1,$1+$1,$4,$5*
1,1,$1+$1,$6,$7*
1,1,$1+$1,$8,$9*
0 Add four rect primitives between the rounded corners*
20,1,$1+$1,$2,$3,$4,$5,0*
20,1,$1+$1,$4,$5,$6,$7,0*
20,1,$1+$1,$6,$7,$8,$9,0*
20,1,$1+$1,$8,$9,$2,$3,0*%
G04 Aperture macros list end*
G04 #@! TA.AperFunction,ComponentPad*
%ADD10C,1.600000*%
G04 #@! TD*
G04 #@! TA.AperFunction,ComponentPad*
%ADD11O,1.600000X1.600000*%
G04 #@! TD*
G04 #@! TA.AperFunction,ComponentPad*
%ADD12RoundRect,0.250001X-0.799999X-0.799999X0.799999X-0.799999X0.799999X0.799999X-0.799999X0.799999X0*%
G04 #@! TD*
G04 #@! TA.AperFunction,ComponentPad*
%ADD13C,2.100000*%
G04 #@! TD*
G04 #@! TA.AperFunction,ComponentPad*
%ADD14R,1.600000X1.600000*%
G04 #@! TD*
G04 #@! TA.AperFunction,ComponentPad*
%ADD15RoundRect,0.250001X0.799999X0.799999X-0.799999X0.799999X-0.799999X-0.799999X0.799999X-0.799999X0*%
G04 #@! TD*
G04 #@! TA.AperFunction,ComponentPad*
%ADD16R,1.800000X1.800000*%
G04 #@! TD*
G04 #@! TA.AperFunction,ComponentPad*
%ADD17C,1.800000*%
G04 #@! TD*
G04 #@! TA.AperFunction,ViaPad*
%ADD18C,0.800000*%
G04 #@! TD*
G04 #@! TA.AperFunction,Conductor*
%ADD19C,0.250000*%
G04 #@! TD*
G04 APERTURE END LIST*
D10*
X157430000Y-78050000D03*
D11*
X147270000Y-78050000D03*
D12*
X98750000Y-83400000D03*
D13*
X103350000Y-83400000D03*
X107950000Y-83400000D03*
D12*
X145000000Y-83300000D03*
D13*
X149600000Y-83300000D03*
D12*
X150150000Y-66000000D03*
D13*
X154750000Y-66000000D03*
D14*
X133200000Y-78300000D03*
D11*
X133200000Y-80840000D03*
X133200000Y-83380000D03*
X133200000Y-85920000D03*
X140820000Y-85920000D03*
X140820000Y-83380000D03*
X140820000Y-80840000D03*
X140820000Y-78300000D03*
D10*
X157430000Y-74350000D03*
D11*
X147270000Y-74350000D03*
D10*
X154950000Y-70950000D03*
X149950000Y-70950000D03*
X107300000Y-78000000D03*
D11*
X97140000Y-78000000D03*
D13*
X137400000Y-90200000D03*
X142000000Y-90200000D03*
D15*
X146600000Y-90200000D03*
D14*
X125794888Y-89150000D03*
D10*
X128294888Y-89150000D03*
D15*
X104850000Y-66000000D03*
D13*
X100250000Y-66000000D03*
D10*
X107280000Y-74500000D03*
D11*
X97120000Y-74500000D03*
D10*
X104400000Y-71100000D03*
X99400000Y-71100000D03*
D14*
X112500000Y-78300000D03*
D11*
X112500000Y-80840000D03*
X112500000Y-83380000D03*
X112500000Y-85920000D03*
X120120000Y-85920000D03*
X120120000Y-83380000D03*
X120120000Y-80840000D03*
X120120000Y-78300000D03*
D12*
X106850000Y-90150000D03*
D13*
X111450000Y-90150000D03*
X116050000Y-90150000D03*
D16*
X125625000Y-81250000D03*
D17*
X128165000Y-81250000D03*
D18*
X144050000Y-87150000D03*
X108800000Y-87100000D03*
D19*
X108800000Y-87100000D02*
X108800000Y-85000000D01*
X108850000Y-85150000D02*
X111744511Y-82255489D01*
X111744511Y-82255489D02*
X118995489Y-82255489D01*
X144050000Y-87150000D02*
X144050000Y-88150000D01*
X144050000Y-88150000D02*
X142000000Y-90200000D01*
X133200000Y-85920000D02*
X134324511Y-84795489D01*
X134324511Y-84795489D02*
X134324511Y-80249022D01*
X134324511Y-80249022D02*
X133790978Y-79715489D01*
X133790978Y-79715489D02*
X129699511Y-79715489D01*
X129699511Y-79715489D02*
X128165000Y-81250000D01*
X103350000Y-83400000D02*
X108575489Y-88625489D01*
X108575489Y-88625489D02*
X112019342Y-88625489D01*
X112043853Y-88650000D02*
X120450000Y-88650000D01*
X112019342Y-88625489D02*
X112043853Y-88650000D01*
X120450000Y-88650000D02*
X124150000Y-92350000D01*
X124150000Y-92350000D02*
X129000000Y-92350000D01*
X129000000Y-92350000D02*
X136554511Y-84795489D01*
X136554511Y-84795489D02*
X148104511Y-84795489D01*
X148104511Y-84795489D02*
X149600000Y-83300000D01*
X99400000Y-71100000D02*
X99400000Y-76793853D01*
X112460000Y-80840000D02*
X112500000Y-80840000D01*
X99400000Y-76793853D02*
X107506147Y-84900000D01*
X107506147Y-84900000D02*
X108400000Y-84900000D01*
X108400000Y-84900000D02*
X112460000Y-80840000D01*
X112500000Y-80840000D02*
X117580000Y-80840000D01*
X117580000Y-80840000D02*
X120120000Y-83380000D01*
X107950000Y-83400000D02*
X112500000Y-78850000D01*
X112500000Y-78850000D02*
X112500000Y-78300000D01*
X104850000Y-66000000D02*
X104400000Y-66450000D01*
X104400000Y-66450000D02*
X104400000Y-71100000D01*
X157430000Y-74350000D02*
X154950000Y-71870000D01*
X154950000Y-71870000D02*
X154950000Y-70950000D01*
X113700000Y-77100000D02*
X132000000Y-77100000D01*
X145000000Y-80889700D02*
X141160300Y-77050000D01*
X141160300Y-77050000D02*
X134450000Y-77050000D01*
X145000000Y-83300000D02*
X145000000Y-80889700D01*
X112500000Y-78300000D02*
X113700000Y-77100000D01*
X132000000Y-77100000D02*
X133200000Y-78300000D01*
X134450000Y-77050000D02*
X133200000Y-78300000D01*
X112500000Y-83380000D02*
X113624511Y-84504511D01*
X113624511Y-84504511D02*
X127659771Y-84504511D01*
X127659771Y-84504511D02*
X131324282Y-80840000D01*
X131324282Y-80840000D02*
X133200000Y-80840000D01*
X130137859Y-83380000D02*
X125794888Y-87722971D01*
X133200000Y-83380000D02*
X130137859Y-83380000D01*
X125794888Y-87722971D02*
X125794888Y-89150000D01*
M02*
