M48
; DRILL file {KiCad (6.0.2-0)} date Tuesday, October 15, 2024 at 06:59:09 PM
; FORMAT={-:-/ absolute / metric / decimal}
; #@! TF.CreationDate,2024-10-15T18:59:09-04:00
; #@! TF.GenerationSoftware,Kicad,Pcbnew,(6.0.2-0)
; #@! TF.FileFunction,Plated,1,2,PTH
FMAT,2
METRIC
; #@! TA.AperFunction,Plated,PTH,ViaDrill
T1C0.400
; #@! TA.AperFunction,Plated,PTH,ComponentDrill
T2C0.800
; #@! TA.AperFunction,Plated,PTH,ComponentDrill
T3C0.900
; #@! TA.AperFunction,Plated,PTH,ComponentDrill
T4C1.100
%
G90
G05
T1
X108.8Y-87.1
X144.05Y-87.15
T2
X97.12Y-74.5
X97.14Y-78.0
X99.4Y-71.1
X104.4Y-71.1
X107.28Y-74.5
X107.3Y-78.0
X112.5Y-78.3
X112.5Y-80.84
X112.5Y-83.38
X112.5Y-85.92
X120.12Y-78.3
X120.12Y-80.84
X120.12Y-83.38
X120.12Y-85.92
X125.795Y-89.15
X128.295Y-89.15
X133.2Y-78.3
X133.2Y-80.84
X133.2Y-83.38
X133.2Y-85.92
X140.82Y-78.3
X140.82Y-80.84
X140.82Y-83.38
X140.82Y-85.92
X147.27Y-74.35
X147.27Y-78.05
X149.95Y-70.95
X154.95Y-70.95
X157.43Y-74.35
X157.43Y-78.05
T3
X125.625Y-81.25
X128.165Y-81.25
T4
X98.75Y-83.4
X100.25Y-66.0
X103.35Y-83.4
X104.85Y-66.0
X106.85Y-90.15
X107.95Y-83.4
X111.45Y-90.15
X116.05Y-90.15
X137.4Y-90.2
X142.0Y-90.2
X145.0Y-83.3
X146.6Y-90.2
X149.6Y-83.3
X150.15Y-66.0
X154.75Y-66.0
T0
M30
