%FSLAX45Y45*%
G04 Gerber Fmt 4.5, Leading zero omitted, Abs format (unit mm)*
G04 Created by KiCad (PCBNEW (6.0.2-0)) date 2024-10-15 18:59:05*
%MOMM*%
%LPD*%
G01*
G04 APERTURE LIST*
%TA.AperFunction,Profile*%
%ADD10C,0.200000*%
%TD*%
%ADD11C,0.200000*%
%ADD12C,0.250000*%
G04 APERTURE END LIST*
D10*
X16000000Y-6100000D02*
G75*
G03*
X15895000Y-6000000I-103203J-3238D01*
G01*
X15900000Y-9330000D02*
G75*
G03*
X16000000Y-9235000I-3250J103552D01*
G01*
X9330000Y-6105000D02*
X9330000Y-9230000D01*
X15895000Y-6000000D02*
X9430000Y-6000000D01*
X9435000Y-9330000D02*
X15900000Y-9330000D01*
X16000000Y-9235000D02*
X16000000Y-6100000D01*
X9330000Y-9230000D02*
G75*
G03*
X9435000Y-9330000I103203J3238D01*
G01*
X9430000Y-6000000D02*
G75*
G03*
X9330000Y-6105000I3238J-103203D01*
G01*
D11*
D12*
X9475000Y-6140000D02*
X9725000Y-6390000D01*
X9725000Y-6140000D02*
X9475000Y-6390000D01*
D11*
X9577603Y-9650492D02*
X9577603Y-9450492D01*
X9625222Y-9450492D01*
X9653794Y-9460016D01*
X9672842Y-9479063D01*
X9682365Y-9498111D01*
X9691889Y-9536206D01*
X9691889Y-9564778D01*
X9682365Y-9602873D01*
X9672842Y-9621920D01*
X9653794Y-9640968D01*
X9625222Y-9650492D01*
X9577603Y-9650492D01*
X9777603Y-9650492D02*
X9777603Y-9517158D01*
X9777603Y-9555254D02*
X9787127Y-9536206D01*
X9796651Y-9526682D01*
X9815699Y-9517158D01*
X9834746Y-9517158D01*
X9901413Y-9650492D02*
X9901413Y-9517158D01*
X9901413Y-9450492D02*
X9891889Y-9460016D01*
X9901413Y-9469539D01*
X9910937Y-9460016D01*
X9901413Y-9450492D01*
X9901413Y-9469539D01*
X10025222Y-9650492D02*
X10006175Y-9640968D01*
X9996651Y-9621920D01*
X9996651Y-9450492D01*
X10129984Y-9650492D02*
X10110937Y-9640968D01*
X10101413Y-9621920D01*
X10101413Y-9450492D01*
X10358556Y-9650492D02*
X10358556Y-9450492D01*
X10425222Y-9593349D01*
X10491889Y-9450492D01*
X10491889Y-9650492D01*
X10672842Y-9650492D02*
X10672842Y-9545730D01*
X10663318Y-9526682D01*
X10644270Y-9517158D01*
X10606175Y-9517158D01*
X10587127Y-9526682D01*
X10672842Y-9640968D02*
X10653794Y-9650492D01*
X10606175Y-9650492D01*
X10587127Y-9640968D01*
X10577603Y-9621920D01*
X10577603Y-9602873D01*
X10587127Y-9583825D01*
X10606175Y-9574301D01*
X10653794Y-9574301D01*
X10672842Y-9564778D01*
X10768080Y-9517158D02*
X10768080Y-9717158D01*
X10768080Y-9526682D02*
X10787127Y-9517158D01*
X10825222Y-9517158D01*
X10844270Y-9526682D01*
X10853794Y-9536206D01*
X10863318Y-9555254D01*
X10863318Y-9612397D01*
X10853794Y-9631444D01*
X10844270Y-9640968D01*
X10825222Y-9650492D01*
X10787127Y-9650492D01*
X10768080Y-9640968D01*
X10949032Y-9631444D02*
X10958556Y-9640968D01*
X10949032Y-9650492D01*
X10939508Y-9640968D01*
X10949032Y-9631444D01*
X10949032Y-9650492D01*
X10949032Y-9526682D02*
X10958556Y-9536206D01*
X10949032Y-9545730D01*
X10939508Y-9536206D01*
X10949032Y-9526682D01*
X10949032Y-9545730D01*
X9119984Y-9880016D02*
X9319984Y-10080016D01*
X9319984Y-9880016D02*
X9119984Y-10080016D01*
X9568080Y-9889539D02*
X9577603Y-9880016D01*
X9596651Y-9870492D01*
X9644270Y-9870492D01*
X9663318Y-9880016D01*
X9672842Y-9889539D01*
X9682365Y-9908587D01*
X9682365Y-9927635D01*
X9672842Y-9956206D01*
X9558556Y-10070492D01*
X9682365Y-10070492D01*
X9768080Y-10051444D02*
X9777603Y-10060968D01*
X9768080Y-10070492D01*
X9758556Y-10060968D01*
X9768080Y-10051444D01*
X9768080Y-10070492D01*
X9958556Y-9870492D02*
X9863318Y-9870492D01*
X9853794Y-9965730D01*
X9863318Y-9956206D01*
X9882365Y-9946682D01*
X9929984Y-9946682D01*
X9949032Y-9956206D01*
X9958556Y-9965730D01*
X9968080Y-9984778D01*
X9968080Y-10032397D01*
X9958556Y-10051444D01*
X9949032Y-10060968D01*
X9929984Y-10070492D01*
X9882365Y-10070492D01*
X9863318Y-10060968D01*
X9853794Y-10051444D01*
X10091889Y-9870492D02*
X10110937Y-9870492D01*
X10129984Y-9880016D01*
X10139508Y-9889539D01*
X10149032Y-9908587D01*
X10158556Y-9946682D01*
X10158556Y-9994301D01*
X10149032Y-10032397D01*
X10139508Y-10051444D01*
X10129984Y-10060968D01*
X10110937Y-10070492D01*
X10091889Y-10070492D01*
X10072842Y-10060968D01*
X10063318Y-10051444D01*
X10053794Y-10032397D01*
X10044270Y-9994301D01*
X10044270Y-9946682D01*
X10053794Y-9908587D01*
X10063318Y-9889539D01*
X10072842Y-9880016D01*
X10091889Y-9870492D01*
X10282365Y-9870492D02*
X10301413Y-9870492D01*
X10320461Y-9880016D01*
X10329984Y-9889539D01*
X10339508Y-9908587D01*
X10349032Y-9946682D01*
X10349032Y-9994301D01*
X10339508Y-10032397D01*
X10329984Y-10051444D01*
X10320461Y-10060968D01*
X10301413Y-10070492D01*
X10282365Y-10070492D01*
X10263318Y-10060968D01*
X10253794Y-10051444D01*
X10244270Y-10032397D01*
X10234746Y-9994301D01*
X10234746Y-9946682D01*
X10244270Y-9908587D01*
X10253794Y-9889539D01*
X10263318Y-9880016D01*
X10282365Y-9870492D01*
X10434746Y-10070492D02*
X10434746Y-9937158D01*
X10434746Y-9956206D02*
X10444270Y-9946682D01*
X10463318Y-9937158D01*
X10491889Y-9937158D01*
X10510937Y-9946682D01*
X10520461Y-9965730D01*
X10520461Y-10070492D01*
X10520461Y-9965730D02*
X10529984Y-9946682D01*
X10549032Y-9937158D01*
X10577603Y-9937158D01*
X10596651Y-9946682D01*
X10606175Y-9965730D01*
X10606175Y-10070492D01*
X10701413Y-10070492D02*
X10701413Y-9937158D01*
X10701413Y-9956206D02*
X10710937Y-9946682D01*
X10729984Y-9937158D01*
X10758556Y-9937158D01*
X10777603Y-9946682D01*
X10787127Y-9965730D01*
X10787127Y-10070492D01*
X10787127Y-9965730D02*
X10796651Y-9946682D01*
X10815699Y-9937158D01*
X10844270Y-9937158D01*
X10863318Y-9946682D01*
X10872842Y-9965730D01*
X10872842Y-10070492D01*
X11263318Y-9860968D02*
X11091889Y-10118111D01*
X11520460Y-9870492D02*
X11539508Y-9870492D01*
X11558556Y-9880016D01*
X11568080Y-9889539D01*
X11577603Y-9908587D01*
X11587127Y-9946682D01*
X11587127Y-9994301D01*
X11577603Y-10032397D01*
X11568080Y-10051444D01*
X11558556Y-10060968D01*
X11539508Y-10070492D01*
X11520460Y-10070492D01*
X11501413Y-10060968D01*
X11491889Y-10051444D01*
X11482365Y-10032397D01*
X11472841Y-9994301D01*
X11472841Y-9946682D01*
X11482365Y-9908587D01*
X11491889Y-9889539D01*
X11501413Y-9880016D01*
X11520460Y-9870492D01*
X11672841Y-10051444D02*
X11682365Y-10060968D01*
X11672841Y-10070492D01*
X11663318Y-10060968D01*
X11672841Y-10051444D01*
X11672841Y-10070492D01*
X11806175Y-9870492D02*
X11825222Y-9870492D01*
X11844270Y-9880016D01*
X11853794Y-9889539D01*
X11863318Y-9908587D01*
X11872841Y-9946682D01*
X11872841Y-9994301D01*
X11863318Y-10032397D01*
X11853794Y-10051444D01*
X11844270Y-10060968D01*
X11825222Y-10070492D01*
X11806175Y-10070492D01*
X11787127Y-10060968D01*
X11777603Y-10051444D01*
X11768080Y-10032397D01*
X11758556Y-9994301D01*
X11758556Y-9946682D01*
X11768080Y-9908587D01*
X11777603Y-9889539D01*
X11787127Y-9880016D01*
X11806175Y-9870492D01*
X11968080Y-10070492D02*
X12006175Y-10070492D01*
X12025222Y-10060968D01*
X12034746Y-10051444D01*
X12053794Y-10022873D01*
X12063318Y-9984778D01*
X12063318Y-9908587D01*
X12053794Y-9889539D01*
X12044270Y-9880016D01*
X12025222Y-9870492D01*
X11987127Y-9870492D01*
X11968080Y-9880016D01*
X11958556Y-9889539D01*
X11949032Y-9908587D01*
X11949032Y-9956206D01*
X11958556Y-9975254D01*
X11968080Y-9984778D01*
X11987127Y-9994301D01*
X12025222Y-9994301D01*
X12044270Y-9984778D01*
X12053794Y-9975254D01*
X12063318Y-9956206D01*
X12177603Y-9956206D02*
X12158556Y-9946682D01*
X12149032Y-9937158D01*
X12139508Y-9918111D01*
X12139508Y-9908587D01*
X12149032Y-9889539D01*
X12158556Y-9880016D01*
X12177603Y-9870492D01*
X12215699Y-9870492D01*
X12234746Y-9880016D01*
X12244270Y-9889539D01*
X12253794Y-9908587D01*
X12253794Y-9918111D01*
X12244270Y-9937158D01*
X12234746Y-9946682D01*
X12215699Y-9956206D01*
X12177603Y-9956206D01*
X12158556Y-9965730D01*
X12149032Y-9975254D01*
X12139508Y-9994301D01*
X12139508Y-10032397D01*
X12149032Y-10051444D01*
X12158556Y-10060968D01*
X12177603Y-10070492D01*
X12215699Y-10070492D01*
X12234746Y-10060968D01*
X12244270Y-10051444D01*
X12253794Y-10032397D01*
X12253794Y-9994301D01*
X12244270Y-9975254D01*
X12234746Y-9965730D01*
X12215699Y-9956206D01*
X12425222Y-9937158D02*
X12425222Y-10070492D01*
X12377603Y-9860968D02*
X12329984Y-10003825D01*
X12453794Y-10003825D01*
X12520460Y-9870492D02*
X12520460Y-9908587D01*
X12596651Y-9870492D02*
X12596651Y-9908587D01*
X12891889Y-10146682D02*
X12882365Y-10137158D01*
X12863318Y-10108587D01*
X12853794Y-10089539D01*
X12844270Y-10060968D01*
X12834746Y-10013349D01*
X12834746Y-9975254D01*
X12844270Y-9927635D01*
X12853794Y-9899063D01*
X12863318Y-9880016D01*
X12882365Y-9851444D01*
X12891889Y-9841920D01*
X13072841Y-10070492D02*
X12958556Y-10070492D01*
X13015699Y-10070492D02*
X13015699Y-9870492D01*
X12996651Y-9899063D01*
X12977603Y-9918111D01*
X12958556Y-9927635D01*
X13310937Y-10070492D02*
X13310937Y-9870492D01*
X13396651Y-10070492D02*
X13396651Y-9965730D01*
X13387127Y-9946682D01*
X13368080Y-9937158D01*
X13339508Y-9937158D01*
X13320460Y-9946682D01*
X13310937Y-9956206D01*
X13520460Y-10070492D02*
X13501413Y-10060968D01*
X13491889Y-10051444D01*
X13482365Y-10032397D01*
X13482365Y-9975254D01*
X13491889Y-9956206D01*
X13501413Y-9946682D01*
X13520460Y-9937158D01*
X13549032Y-9937158D01*
X13568080Y-9946682D01*
X13577603Y-9956206D01*
X13587127Y-9975254D01*
X13587127Y-10032397D01*
X13577603Y-10051444D01*
X13568080Y-10060968D01*
X13549032Y-10070492D01*
X13520460Y-10070492D01*
X13701413Y-10070492D02*
X13682365Y-10060968D01*
X13672841Y-10041920D01*
X13672841Y-9870492D01*
X13853794Y-10060968D02*
X13834746Y-10070492D01*
X13796651Y-10070492D01*
X13777603Y-10060968D01*
X13768080Y-10041920D01*
X13768080Y-9965730D01*
X13777603Y-9946682D01*
X13796651Y-9937158D01*
X13834746Y-9937158D01*
X13853794Y-9946682D01*
X13863318Y-9965730D01*
X13863318Y-9984778D01*
X13768080Y-10003825D01*
X13929984Y-10146682D02*
X13939508Y-10137158D01*
X13958556Y-10108587D01*
X13968080Y-10089539D01*
X13977603Y-10060968D01*
X13987127Y-10013349D01*
X13987127Y-9975254D01*
X13977603Y-9927635D01*
X13968080Y-9899063D01*
X13958556Y-9880016D01*
X13939508Y-9851444D01*
X13929984Y-9841920D01*
X14291889Y-10146682D02*
X14282365Y-10137158D01*
X14263318Y-10108587D01*
X14253794Y-10089539D01*
X14244270Y-10060968D01*
X14234746Y-10013349D01*
X14234746Y-9975254D01*
X14244270Y-9927635D01*
X14253794Y-9899063D01*
X14263318Y-9880016D01*
X14282365Y-9851444D01*
X14291889Y-9841920D01*
X14368080Y-9937158D02*
X14368080Y-10070492D01*
X14368080Y-9956206D02*
X14377603Y-9946682D01*
X14396651Y-9937158D01*
X14425222Y-9937158D01*
X14444270Y-9946682D01*
X14453794Y-9965730D01*
X14453794Y-10070492D01*
X14577603Y-10070492D02*
X14558556Y-10060968D01*
X14549032Y-10051444D01*
X14539508Y-10032397D01*
X14539508Y-9975254D01*
X14549032Y-9956206D01*
X14558556Y-9946682D01*
X14577603Y-9937158D01*
X14606175Y-9937158D01*
X14625222Y-9946682D01*
X14634746Y-9956206D01*
X14644270Y-9975254D01*
X14644270Y-10032397D01*
X14634746Y-10051444D01*
X14625222Y-10060968D01*
X14606175Y-10070492D01*
X14577603Y-10070492D01*
X14701413Y-9937158D02*
X14777603Y-9937158D01*
X14729984Y-9870492D02*
X14729984Y-10041920D01*
X14739508Y-10060968D01*
X14758556Y-10070492D01*
X14777603Y-10070492D01*
X14996651Y-9937158D02*
X14996651Y-10137158D01*
X14996651Y-9946682D02*
X15015699Y-9937158D01*
X15053794Y-9937158D01*
X15072841Y-9946682D01*
X15082365Y-9956206D01*
X15091889Y-9975254D01*
X15091889Y-10032397D01*
X15082365Y-10051444D01*
X15072841Y-10060968D01*
X15053794Y-10070492D01*
X15015699Y-10070492D01*
X14996651Y-10060968D01*
X15206175Y-10070492D02*
X15187127Y-10060968D01*
X15177603Y-10041920D01*
X15177603Y-9870492D01*
X15368080Y-10070492D02*
X15368080Y-9965730D01*
X15358556Y-9946682D01*
X15339508Y-9937158D01*
X15301413Y-9937158D01*
X15282365Y-9946682D01*
X15368080Y-10060968D02*
X15349032Y-10070492D01*
X15301413Y-10070492D01*
X15282365Y-10060968D01*
X15272841Y-10041920D01*
X15272841Y-10022873D01*
X15282365Y-10003825D01*
X15301413Y-9994301D01*
X15349032Y-9994301D01*
X15368080Y-9984778D01*
X15434746Y-9937158D02*
X15510937Y-9937158D01*
X15463318Y-9870492D02*
X15463318Y-10041920D01*
X15472841Y-10060968D01*
X15491889Y-10070492D01*
X15510937Y-10070492D01*
X15653794Y-10060968D02*
X15634746Y-10070492D01*
X15596651Y-10070492D01*
X15577603Y-10060968D01*
X15568080Y-10041920D01*
X15568080Y-9965730D01*
X15577603Y-9946682D01*
X15596651Y-9937158D01*
X15634746Y-9937158D01*
X15653794Y-9946682D01*
X15663318Y-9965730D01*
X15663318Y-9984778D01*
X15568080Y-10003825D01*
X15834746Y-10070492D02*
X15834746Y-9870492D01*
X15834746Y-10060968D02*
X15815699Y-10070492D01*
X15777603Y-10070492D01*
X15758556Y-10060968D01*
X15749032Y-10051444D01*
X15739508Y-10032397D01*
X15739508Y-9975254D01*
X15749032Y-9956206D01*
X15758556Y-9946682D01*
X15777603Y-9937158D01*
X15815699Y-9937158D01*
X15834746Y-9946682D01*
X15910937Y-10146682D02*
X15920460Y-10137158D01*
X15939508Y-10108587D01*
X15949032Y-10089539D01*
X15958556Y-10060968D01*
X15968080Y-10013349D01*
X15968080Y-9975254D01*
X15958556Y-9927635D01*
X15949032Y-9899063D01*
X15939508Y-9880016D01*
X15920460Y-9851444D01*
X15910937Y-9841920D01*
M02*
