G04 #@! TF.GenerationSoftware,KiCad,Pcbnew,(6.0.2-0)*
G04 #@! TF.CreationDate,2024-11-08T08:50:17-05:00*
G04 #@! TF.ProjectId,Joy_of_Motion,4a6f795f-6f66-45f4-9d6f-74696f6e2e6b,rev?*
G04 #@! TF.SameCoordinates,Original*
G04 #@! TF.FileFunction,Copper,L1,Top*
G04 #@! TF.FilePolarity,Positive*
%FSLAX46Y46*%
G04 Gerber Fmt 4.6, Leading zero omitted, Abs format (unit mm)*
G04 Created by KiCad (PCBNEW (6.0.2-0)) date 2024-11-08 08:50:17*
%MOMM*%
%LPD*%
G01*
G04 APERTURE LIST*
G04 Aperture macros list*
%AMRoundRect*
0 Rectangle with rounded corners*
0 $1 Rounding radius*
0 $2 $3 $4 $5 $6 $7 $8 $9 X,Y pos of 4 corners*
0 Add a 4 corners polygon primitive as box body*
4,1,4,$2,$3,$4,$5,$6,$7,$8,$9,$2,$3,0*
0 Add four circle primitives for the rounded corners*
1,1,$1+$1,$2,$3*
1,1,$1+$1,$4,$5*
1,1,$1+$1,$6,$7*
1,1,$1+$1,$8,$9*
0 Add four rect primitives between the rounded corners*
20,1,$1+$1,$2,$3,$4,$5,0*
20,1,$1+$1,$4,$5,$6,$7,0*
20,1,$1+$1,$6,$7,$8,$9,0*
20,1,$1+$1,$8,$9,$2,$3,0*%
G04 Aperture macros list end*
G04 #@! TA.AperFunction,ComponentPad*
%ADD10RoundRect,0.250000X-0.550000X0.550000X-0.550000X-0.550000X0.550000X-0.550000X0.550000X0.550000X0*%
G04 #@! TD*
G04 #@! TA.AperFunction,ComponentPad*
%ADD11C,1.600000*%
G04 #@! TD*
G04 #@! TA.AperFunction,ComponentPad*
%ADD12O,1.600000X1.600000*%
G04 #@! TD*
G04 #@! TA.AperFunction,ComponentPad*
%ADD13RoundRect,0.250000X0.550000X0.550000X-0.550000X0.550000X-0.550000X-0.550000X0.550000X-0.550000X0*%
G04 #@! TD*
G04 #@! TA.AperFunction,ComponentPad*
%ADD14R,1.600000X1.600000*%
G04 #@! TD*
G04 #@! TA.AperFunction,ComponentPad*
%ADD15RoundRect,0.250000X-0.550000X-0.550000X0.550000X-0.550000X0.550000X0.550000X-0.550000X0.550000X0*%
G04 #@! TD*
G04 #@! TA.AperFunction,ComponentPad*
%ADD16R,1.800000X1.800000*%
G04 #@! TD*
G04 #@! TA.AperFunction,ComponentPad*
%ADD17C,1.800000*%
G04 #@! TD*
G04 #@! TA.AperFunction,ViaPad*
%ADD18C,0.800000*%
G04 #@! TD*
G04 #@! TA.AperFunction,Conductor*
%ADD19C,0.250000*%
G04 #@! TD*
G04 APERTURE END LIST*
D10*
X86500000Y-56900000D03*
D11*
X86500000Y-60500000D03*
X86500000Y-64100000D03*
X110425854Y-48381619D03*
X107925854Y-48381619D03*
X91492552Y-51247901D03*
D12*
X91492552Y-61407901D03*
D11*
X108013227Y-66127946D03*
X110513227Y-66127946D03*
D13*
X128300000Y-43000000D03*
D11*
X124700000Y-43000000D03*
X89750000Y-66000000D03*
X92250000Y-66000000D03*
X126250000Y-66131476D03*
X128750000Y-66131476D03*
D13*
X93385216Y-70427824D03*
D11*
X89785216Y-70427824D03*
X86185216Y-70427824D03*
X113000000Y-43000000D03*
X115500000Y-43000000D03*
D14*
X115249523Y-48398835D03*
D12*
X115249523Y-50938835D03*
X115249523Y-53478835D03*
X115249523Y-56018835D03*
X115249523Y-58558835D03*
X115249523Y-61098835D03*
X115249523Y-63638835D03*
X115249523Y-66178835D03*
X122869523Y-66178835D03*
X122869523Y-63638835D03*
X122869523Y-61098835D03*
X122869523Y-58558835D03*
X122869523Y-56018835D03*
X122869523Y-53478835D03*
X122869523Y-50938835D03*
X122869523Y-48398835D03*
D15*
X92200000Y-43500000D03*
D11*
X95800000Y-43500000D03*
D15*
X100200000Y-43500000D03*
D11*
X103800000Y-43500000D03*
D13*
X128100000Y-70500000D03*
D11*
X124500000Y-70500000D03*
X120900000Y-70500000D03*
D13*
X104766710Y-70500000D03*
D11*
X101166710Y-70500000D03*
X97566710Y-70500000D03*
X118250000Y-43000000D03*
X120750000Y-43000000D03*
X111500000Y-51500000D03*
D12*
X111500000Y-61660000D03*
D10*
X86500000Y-49200000D03*
D11*
X86500000Y-52800000D03*
X127500000Y-51420000D03*
D12*
X127500000Y-61580000D03*
D14*
X95200000Y-48224469D03*
D12*
X95200000Y-50764469D03*
X95200000Y-53304469D03*
X95200000Y-55844469D03*
X95200000Y-58384469D03*
X95200000Y-60924469D03*
X95200000Y-63464469D03*
X95200000Y-66004469D03*
X102820000Y-66004469D03*
X102820000Y-63464469D03*
X102820000Y-60924469D03*
X102820000Y-58384469D03*
X102820000Y-55844469D03*
X102820000Y-53304469D03*
X102820000Y-50764469D03*
X102820000Y-48224469D03*
D11*
X126250000Y-48000000D03*
X128750000Y-48000000D03*
D16*
X86225000Y-44500000D03*
D17*
X88765000Y-44500000D03*
D13*
X116099485Y-70525378D03*
D11*
X112499485Y-70525378D03*
X108899485Y-70525378D03*
D12*
X107324339Y-51518326D03*
D11*
X107324339Y-61678326D03*
D18*
X118250000Y-61109515D03*
X118269102Y-46474500D03*
D19*
X115249523Y-61098835D02*
X118239320Y-61098835D01*
X118250000Y-46493602D02*
X118269102Y-46474500D01*
X118250000Y-61109515D02*
X118250000Y-46493602D01*
X118239320Y-61098835D02*
X118250000Y-61109515D01*
X124901165Y-61098835D02*
X122869523Y-61098835D01*
X127500000Y-64881476D02*
X128750000Y-66131476D01*
X126250000Y-48000000D02*
X125000000Y-48000000D01*
X127018835Y-61098835D02*
X127500000Y-61580000D01*
X125000000Y-48000000D02*
X125000000Y-61000000D01*
X125000000Y-61000000D02*
X124901165Y-61098835D01*
X127500000Y-61580000D02*
X127500000Y-64881476D01*
X122869523Y-61098835D02*
X127018835Y-61098835D01*
X124200669Y-68180807D02*
X121500000Y-68180807D01*
X121558835Y-58558835D02*
X122869523Y-58558835D01*
X121500000Y-68180807D02*
X121500000Y-58500000D01*
X126250000Y-66131476D02*
X124200669Y-68180807D01*
X94515984Y-58384469D02*
X95200000Y-58384469D01*
X111500000Y-51500000D02*
X111500000Y-49455765D01*
X111500000Y-49455765D02*
X110425854Y-48381619D01*
X91492552Y-61407901D02*
X94515984Y-58384469D01*
X107324339Y-51518326D02*
X107324339Y-48983134D01*
X107324339Y-48983134D02*
X107925854Y-48381619D01*
X92139375Y-63985094D02*
X92139375Y-65889376D01*
X95200000Y-60924469D02*
X92139375Y-63985094D01*
X101695489Y-54719958D02*
X87955173Y-54719958D01*
X102820000Y-55844469D02*
X101695489Y-54719958D01*
X87955173Y-54719958D02*
X86623305Y-56051826D01*
X84500000Y-68742608D02*
X86185216Y-70427824D01*
X85208172Y-60500000D02*
X84500000Y-61208172D01*
X86500000Y-60500000D02*
X85208172Y-60500000D01*
X84500000Y-61208172D02*
X84500000Y-68742608D01*
X112970688Y-46120000D02*
X102820000Y-46120000D01*
X100200000Y-43500000D02*
X95800000Y-43500000D01*
X102820000Y-46120000D02*
X100200000Y-43500000D01*
X102820000Y-48224469D02*
X102820000Y-46120000D01*
X115249523Y-48398835D02*
X112970688Y-46120000D01*
X124700000Y-43000000D02*
X124700000Y-40700000D01*
X124500000Y-40500000D02*
X115500000Y-40500000D01*
X124700000Y-40700000D02*
X124500000Y-40500000D01*
X115500000Y-40500000D02*
X115500000Y-43000000D01*
X91492552Y-49767552D02*
X86225000Y-44500000D01*
X91492552Y-51247901D02*
X91492552Y-49767552D01*
X88765000Y-44500000D02*
X88765000Y-42235000D01*
X103500000Y-40500000D02*
X103800000Y-40800000D01*
X88765000Y-42235000D02*
X90500000Y-40500000D01*
X103800000Y-40800000D02*
X103800000Y-43500000D01*
X90500000Y-40500000D02*
X103500000Y-40500000D01*
X124461188Y-68630327D02*
X124500000Y-68669139D01*
X120750000Y-45750000D02*
X120750000Y-63506505D01*
X120750000Y-43000000D02*
X120750000Y-45750000D01*
X113000000Y-43000000D02*
X113000000Y-45500000D01*
X117669818Y-63654964D02*
X117669818Y-68630327D01*
X117644942Y-63630088D02*
X117669818Y-63654964D01*
X120750000Y-63506505D02*
X120594835Y-63661670D01*
X120594835Y-63661670D02*
X117676524Y-63661670D01*
X115249523Y-63638835D02*
X117636195Y-63638835D01*
X117636195Y-63638835D02*
X117644942Y-63630088D01*
X124500000Y-68669139D02*
X124500000Y-70500000D01*
X117676524Y-63661670D02*
X117669818Y-63654964D01*
X117669818Y-68630327D02*
X124461188Y-68630327D01*
X113250000Y-45750000D02*
X120750000Y-45750000D01*
X113000000Y-45500000D02*
X113250000Y-45750000D01*
X91713040Y-68500000D02*
X89785216Y-70427824D01*
X102820000Y-66004469D02*
X107146143Y-61678326D01*
X98995531Y-66004469D02*
X96500000Y-68500000D01*
X102820000Y-66004469D02*
X98995531Y-66004469D01*
X96500000Y-68500000D02*
X91713040Y-68500000D01*
X107146143Y-61678326D02*
X107324339Y-61678326D01*
X87004469Y-53304469D02*
X86500000Y-52800000D01*
X95200000Y-53304469D02*
X87004469Y-53304469D01*
M02*
