%FSLAX45Y45*%
G04 Gerber Fmt 4.5, Leading zero omitted, Abs format (unit mm)*
G04 Created by KiCad (PCBNEW (6.0.2-0)) date 2024-11-08 08:50:23*
%MOMM*%
%LPD*%
G01*
G04 APERTURE LIST*
%TA.AperFunction,Profile*%
%ADD10C,0.100000*%
%TD*%
%ADD11C,0.200000*%
%ADD12C,0.040000*%
%ADD13C,0.060000*%
%ADD14C,0.080000*%
%ADD15C,0.090000*%
G04 APERTURE END LIST*
D10*
X8300000Y-3850000D02*
X13150000Y-3850000D01*
X13150000Y-3850000D02*
X13150000Y-7300000D01*
X13150000Y-7300000D02*
X8300000Y-7300000D01*
X8300000Y-7300000D02*
X8300000Y-3850000D01*
D11*
D12*
X11805000Y-6090951D02*
X11845000Y-6130951D01*
X11845000Y-6090951D02*
X11805000Y-6130951D01*
X11806910Y-4627450D02*
X11846910Y-4667450D01*
X11846910Y-4627450D02*
X11806910Y-4667450D01*
D13*
X8648522Y-7042782D02*
G75*
G03*
X8648522Y-7042782I-30000J0D01*
G01*
X8680000Y-4920000D02*
G75*
G03*
X8680000Y-4920000I-30000J0D01*
G01*
X8680000Y-5280000D02*
G75*
G03*
X8680000Y-5280000I-30000J0D01*
G01*
X8680000Y-5690000D02*
G75*
G03*
X8680000Y-5690000I-30000J0D01*
G01*
X8680000Y-6050000D02*
G75*
G03*
X8680000Y-6050000I-30000J0D01*
G01*
X8680000Y-6410000D02*
G75*
G03*
X8680000Y-6410000I-30000J0D01*
G01*
X9008522Y-7042782D02*
G75*
G03*
X9008522Y-7042782I-30000J0D01*
G01*
X9250000Y-4350000D02*
G75*
G03*
X9250000Y-4350000I-30000J0D01*
G01*
X9368522Y-7042782D02*
G75*
G03*
X9368522Y-7042782I-30000J0D01*
G01*
X9610000Y-4350000D02*
G75*
G03*
X9610000Y-4350000I-30000J0D01*
G01*
X9786671Y-7050000D02*
G75*
G03*
X9786671Y-7050000I-30000J0D01*
G01*
X10050000Y-4350000D02*
G75*
G03*
X10050000Y-4350000I-30000J0D01*
G01*
X10146671Y-7050000D02*
G75*
G03*
X10146671Y-7050000I-30000J0D01*
G01*
X10410000Y-4350000D02*
G75*
G03*
X10410000Y-4350000I-30000J0D01*
G01*
X10506671Y-7050000D02*
G75*
G03*
X10506671Y-7050000I-30000J0D01*
G01*
X10919949Y-7052538D02*
G75*
G03*
X10919949Y-7052538I-30000J0D01*
G01*
X11279948Y-7052538D02*
G75*
G03*
X11279948Y-7052538I-30000J0D01*
G01*
X11639948Y-7052538D02*
G75*
G03*
X11639948Y-7052538I-30000J0D01*
G01*
X12120000Y-7050000D02*
G75*
G03*
X12120000Y-7050000I-30000J0D01*
G01*
X12480000Y-7050000D02*
G75*
G03*
X12480000Y-7050000I-30000J0D01*
G01*
X12500000Y-4300000D02*
G75*
G03*
X12500000Y-4300000I-30000J0D01*
G01*
X12840000Y-7050000D02*
G75*
G03*
X12840000Y-7050000I-30000J0D01*
G01*
X12860000Y-4300000D02*
G75*
G03*
X12860000Y-4300000I-30000J0D01*
G01*
D14*
X8975000Y-6560000D02*
X8975000Y-6640000D01*
X8935000Y-6600000D02*
X9015000Y-6600000D01*
X9149255Y-5084790D02*
X9149255Y-5164790D01*
X9109255Y-5124790D02*
X9189255Y-5124790D01*
X9149255Y-6100790D02*
X9149255Y-6180790D01*
X9109255Y-6140790D02*
X9189255Y-6140790D01*
X9225000Y-6560000D02*
X9225000Y-6640000D01*
X9185000Y-6600000D02*
X9265000Y-6600000D01*
X9520000Y-4782447D02*
X9520000Y-4862447D01*
X9480000Y-4822447D02*
X9560000Y-4822447D01*
X9520000Y-5036447D02*
X9520000Y-5116447D01*
X9480000Y-5076447D02*
X9560000Y-5076447D01*
X9520000Y-5290447D02*
X9520000Y-5370447D01*
X9480000Y-5330447D02*
X9560000Y-5330447D01*
X9520000Y-5544447D02*
X9520000Y-5624447D01*
X9480000Y-5584447D02*
X9560000Y-5584447D01*
X9520000Y-5798447D02*
X9520000Y-5878447D01*
X9480000Y-5838447D02*
X9560000Y-5838447D01*
X9520000Y-6052447D02*
X9520000Y-6132447D01*
X9480000Y-6092447D02*
X9560000Y-6092447D01*
X9520000Y-6306447D02*
X9520000Y-6386447D01*
X9480000Y-6346447D02*
X9560000Y-6346447D01*
X9520000Y-6560447D02*
X9520000Y-6640447D01*
X9480000Y-6600447D02*
X9560000Y-6600447D01*
X10282000Y-4782447D02*
X10282000Y-4862447D01*
X10242000Y-4822447D02*
X10322000Y-4822447D01*
X10282000Y-5036447D02*
X10282000Y-5116447D01*
X10242000Y-5076447D02*
X10322000Y-5076447D01*
X10282000Y-5290447D02*
X10282000Y-5370447D01*
X10242000Y-5330447D02*
X10322000Y-5330447D01*
X10282000Y-5544447D02*
X10282000Y-5624447D01*
X10242000Y-5584447D02*
X10322000Y-5584447D01*
X10282000Y-5798447D02*
X10282000Y-5878447D01*
X10242000Y-5838447D02*
X10322000Y-5838447D01*
X10282000Y-6052447D02*
X10282000Y-6132447D01*
X10242000Y-6092447D02*
X10322000Y-6092447D01*
X10282000Y-6306447D02*
X10282000Y-6386447D01*
X10242000Y-6346447D02*
X10322000Y-6346447D01*
X10282000Y-6560447D02*
X10282000Y-6640447D01*
X10242000Y-6600447D02*
X10322000Y-6600447D01*
X10732434Y-5111833D02*
X10732434Y-5191833D01*
X10692434Y-5151833D02*
X10772434Y-5151833D01*
X10732434Y-6127833D02*
X10732434Y-6207833D01*
X10692434Y-6167833D02*
X10772434Y-6167833D01*
X10792585Y-4798162D02*
X10792585Y-4878162D01*
X10752585Y-4838162D02*
X10832585Y-4838162D01*
X10801323Y-6572795D02*
X10801323Y-6652795D01*
X10761323Y-6612795D02*
X10841323Y-6612795D01*
X11042585Y-4798162D02*
X11042585Y-4878162D01*
X11002585Y-4838162D02*
X11082585Y-4838162D01*
X11051323Y-6572795D02*
X11051323Y-6652795D01*
X11011323Y-6612795D02*
X11091323Y-6612795D01*
X11150000Y-5110000D02*
X11150000Y-5190000D01*
X11110000Y-5150000D02*
X11190000Y-5150000D01*
X11150000Y-6126000D02*
X11150000Y-6206000D01*
X11110000Y-6166000D02*
X11190000Y-6166000D01*
X11300000Y-4260000D02*
X11300000Y-4340000D01*
X11260000Y-4300000D02*
X11340000Y-4300000D01*
X11524952Y-4799884D02*
X11524952Y-4879884D01*
X11484952Y-4839884D02*
X11564952Y-4839884D01*
X11524952Y-5053884D02*
X11524952Y-5133884D01*
X11484952Y-5093884D02*
X11564952Y-5093884D01*
X11524952Y-5307884D02*
X11524952Y-5387884D01*
X11484952Y-5347884D02*
X11564952Y-5347884D01*
X11524952Y-5561884D02*
X11524952Y-5641883D01*
X11484952Y-5601883D02*
X11564952Y-5601883D01*
X11524952Y-5815883D02*
X11524952Y-5895883D01*
X11484952Y-5855883D02*
X11564952Y-5855883D01*
X11524952Y-6069883D02*
X11524952Y-6149883D01*
X11484952Y-6109883D02*
X11564952Y-6109883D01*
X11524952Y-6323883D02*
X11524952Y-6403883D01*
X11484952Y-6363883D02*
X11564952Y-6363883D01*
X11524952Y-6577883D02*
X11524952Y-6657883D01*
X11484952Y-6617883D02*
X11564952Y-6617883D01*
X11550000Y-4260000D02*
X11550000Y-4340000D01*
X11510000Y-4300000D02*
X11590000Y-4300000D01*
X11825000Y-4260000D02*
X11825000Y-4340000D01*
X11785000Y-4300000D02*
X11865000Y-4300000D01*
X12075000Y-4260000D02*
X12075000Y-4340000D01*
X12035000Y-4300000D02*
X12115000Y-4300000D01*
X12286952Y-4799884D02*
X12286952Y-4879884D01*
X12246952Y-4839884D02*
X12326952Y-4839884D01*
X12286952Y-5053884D02*
X12286952Y-5133884D01*
X12246952Y-5093884D02*
X12326952Y-5093884D01*
X12286952Y-5307884D02*
X12286952Y-5387884D01*
X12246952Y-5347884D02*
X12326952Y-5347884D01*
X12286952Y-5561884D02*
X12286952Y-5641883D01*
X12246952Y-5601883D02*
X12326952Y-5601883D01*
X12286952Y-5815883D02*
X12286952Y-5895883D01*
X12246952Y-5855883D02*
X12326952Y-5855883D01*
X12286952Y-6069883D02*
X12286952Y-6149883D01*
X12246952Y-6109883D02*
X12326952Y-6109883D01*
X12286952Y-6323883D02*
X12286952Y-6403883D01*
X12246952Y-6363883D02*
X12326952Y-6363883D01*
X12286952Y-6577883D02*
X12286952Y-6657883D01*
X12246952Y-6617883D02*
X12326952Y-6617883D01*
X12625000Y-4760000D02*
X12625000Y-4840000D01*
X12585000Y-4800000D02*
X12665000Y-4800000D01*
X12625000Y-6573148D02*
X12625000Y-6653148D01*
X12585000Y-6613148D02*
X12665000Y-6613148D01*
X12750000Y-5102000D02*
X12750000Y-5182000D01*
X12710000Y-5142000D02*
X12790000Y-5142000D01*
X12750000Y-6118000D02*
X12750000Y-6198000D01*
X12710000Y-6158000D02*
X12790000Y-6158000D01*
X12875000Y-4760000D02*
X12875000Y-4840000D01*
X12835000Y-4800000D02*
X12915000Y-4800000D01*
X12875000Y-6573148D02*
X12875000Y-6653148D01*
X12835000Y-6613148D02*
X12915000Y-6613148D01*
D15*
X8654320Y-4481820D02*
X8654320Y-4418180D01*
X8590680Y-4418180D01*
X8590680Y-4481820D01*
X8654320Y-4481820D01*
X8908320Y-4481820D02*
X8908320Y-4418180D01*
X8844680Y-4418180D01*
X8844680Y-4481820D01*
X8908320Y-4481820D01*
D11*
X8552619Y-7615476D02*
X8552619Y-7415476D01*
X8600238Y-7415476D01*
X8628810Y-7425000D01*
X8647857Y-7444048D01*
X8657381Y-7463095D01*
X8666905Y-7501190D01*
X8666905Y-7529762D01*
X8657381Y-7567857D01*
X8647857Y-7586905D01*
X8628810Y-7605952D01*
X8600238Y-7615476D01*
X8552619Y-7615476D01*
X8752619Y-7615476D02*
X8752619Y-7482143D01*
X8752619Y-7520238D02*
X8762143Y-7501190D01*
X8771667Y-7491667D01*
X8790714Y-7482143D01*
X8809762Y-7482143D01*
X8876429Y-7615476D02*
X8876429Y-7482143D01*
X8876429Y-7415476D02*
X8866905Y-7425000D01*
X8876429Y-7434524D01*
X8885952Y-7425000D01*
X8876429Y-7415476D01*
X8876429Y-7434524D01*
X9000238Y-7615476D02*
X8981190Y-7605952D01*
X8971667Y-7586905D01*
X8971667Y-7415476D01*
X9105000Y-7615476D02*
X9085952Y-7605952D01*
X9076429Y-7586905D01*
X9076429Y-7415476D01*
X9333571Y-7615476D02*
X9333571Y-7415476D01*
X9400238Y-7558333D01*
X9466905Y-7415476D01*
X9466905Y-7615476D01*
X9647857Y-7615476D02*
X9647857Y-7510714D01*
X9638333Y-7491667D01*
X9619286Y-7482143D01*
X9581190Y-7482143D01*
X9562143Y-7491667D01*
X9647857Y-7605952D02*
X9628810Y-7615476D01*
X9581190Y-7615476D01*
X9562143Y-7605952D01*
X9552619Y-7586905D01*
X9552619Y-7567857D01*
X9562143Y-7548809D01*
X9581190Y-7539286D01*
X9628810Y-7539286D01*
X9647857Y-7529762D01*
X9743095Y-7482143D02*
X9743095Y-7682143D01*
X9743095Y-7491667D02*
X9762143Y-7482143D01*
X9800238Y-7482143D01*
X9819286Y-7491667D01*
X9828810Y-7501190D01*
X9838333Y-7520238D01*
X9838333Y-7577381D01*
X9828810Y-7596428D01*
X9819286Y-7605952D01*
X9800238Y-7615476D01*
X9762143Y-7615476D01*
X9743095Y-7605952D01*
X9924048Y-7596428D02*
X9933571Y-7605952D01*
X9924048Y-7615476D01*
X9914524Y-7605952D01*
X9924048Y-7596428D01*
X9924048Y-7615476D01*
X9924048Y-7491667D02*
X9933571Y-7501190D01*
X9924048Y-7510714D01*
X9914524Y-7501190D01*
X9924048Y-7491667D01*
X9924048Y-7510714D01*
D12*
X8255000Y-7925000D02*
X8295000Y-7965000D01*
X8295000Y-7925000D02*
X8255000Y-7965000D01*
D11*
X8590714Y-7835476D02*
X8609762Y-7835476D01*
X8628810Y-7845000D01*
X8638333Y-7854524D01*
X8647857Y-7873571D01*
X8657381Y-7911667D01*
X8657381Y-7959286D01*
X8647857Y-7997381D01*
X8638333Y-8016428D01*
X8628810Y-8025952D01*
X8609762Y-8035476D01*
X8590714Y-8035476D01*
X8571667Y-8025952D01*
X8562143Y-8016428D01*
X8552619Y-7997381D01*
X8543095Y-7959286D01*
X8543095Y-7911667D01*
X8552619Y-7873571D01*
X8562143Y-7854524D01*
X8571667Y-7845000D01*
X8590714Y-7835476D01*
X8743095Y-8016428D02*
X8752619Y-8025952D01*
X8743095Y-8035476D01*
X8733571Y-8025952D01*
X8743095Y-8016428D01*
X8743095Y-8035476D01*
X8924048Y-7902143D02*
X8924048Y-8035476D01*
X8876429Y-7825952D02*
X8828810Y-7968809D01*
X8952619Y-7968809D01*
X9066905Y-7835476D02*
X9085952Y-7835476D01*
X9105000Y-7845000D01*
X9114524Y-7854524D01*
X9124048Y-7873571D01*
X9133571Y-7911667D01*
X9133571Y-7959286D01*
X9124048Y-7997381D01*
X9114524Y-8016428D01*
X9105000Y-8025952D01*
X9085952Y-8035476D01*
X9066905Y-8035476D01*
X9047857Y-8025952D01*
X9038333Y-8016428D01*
X9028810Y-7997381D01*
X9019286Y-7959286D01*
X9019286Y-7911667D01*
X9028810Y-7873571D01*
X9038333Y-7854524D01*
X9047857Y-7845000D01*
X9066905Y-7835476D01*
X9257381Y-7835476D02*
X9276429Y-7835476D01*
X9295476Y-7845000D01*
X9305000Y-7854524D01*
X9314524Y-7873571D01*
X9324048Y-7911667D01*
X9324048Y-7959286D01*
X9314524Y-7997381D01*
X9305000Y-8016428D01*
X9295476Y-8025952D01*
X9276429Y-8035476D01*
X9257381Y-8035476D01*
X9238333Y-8025952D01*
X9228810Y-8016428D01*
X9219286Y-7997381D01*
X9209762Y-7959286D01*
X9209762Y-7911667D01*
X9219286Y-7873571D01*
X9228810Y-7854524D01*
X9238333Y-7845000D01*
X9257381Y-7835476D01*
X9409762Y-8035476D02*
X9409762Y-7902143D01*
X9409762Y-7921190D02*
X9419286Y-7911667D01*
X9438333Y-7902143D01*
X9466905Y-7902143D01*
X9485952Y-7911667D01*
X9495476Y-7930714D01*
X9495476Y-8035476D01*
X9495476Y-7930714D02*
X9505000Y-7911667D01*
X9524048Y-7902143D01*
X9552619Y-7902143D01*
X9571667Y-7911667D01*
X9581190Y-7930714D01*
X9581190Y-8035476D01*
X9676429Y-8035476D02*
X9676429Y-7902143D01*
X9676429Y-7921190D02*
X9685952Y-7911667D01*
X9705000Y-7902143D01*
X9733571Y-7902143D01*
X9752619Y-7911667D01*
X9762143Y-7930714D01*
X9762143Y-8035476D01*
X9762143Y-7930714D02*
X9771667Y-7911667D01*
X9790714Y-7902143D01*
X9819286Y-7902143D01*
X9838333Y-7911667D01*
X9847857Y-7930714D01*
X9847857Y-8035476D01*
X10238333Y-7825952D02*
X10066905Y-8083095D01*
X10495476Y-7835476D02*
X10514524Y-7835476D01*
X10533571Y-7845000D01*
X10543095Y-7854524D01*
X10552619Y-7873571D01*
X10562143Y-7911667D01*
X10562143Y-7959286D01*
X10552619Y-7997381D01*
X10543095Y-8016428D01*
X10533571Y-8025952D01*
X10514524Y-8035476D01*
X10495476Y-8035476D01*
X10476429Y-8025952D01*
X10466905Y-8016428D01*
X10457381Y-7997381D01*
X10447857Y-7959286D01*
X10447857Y-7911667D01*
X10457381Y-7873571D01*
X10466905Y-7854524D01*
X10476429Y-7845000D01*
X10495476Y-7835476D01*
X10647857Y-8016428D02*
X10657381Y-8025952D01*
X10647857Y-8035476D01*
X10638333Y-8025952D01*
X10647857Y-8016428D01*
X10647857Y-8035476D01*
X10781190Y-7835476D02*
X10800238Y-7835476D01*
X10819286Y-7845000D01*
X10828810Y-7854524D01*
X10838333Y-7873571D01*
X10847857Y-7911667D01*
X10847857Y-7959286D01*
X10838333Y-7997381D01*
X10828810Y-8016428D01*
X10819286Y-8025952D01*
X10800238Y-8035476D01*
X10781190Y-8035476D01*
X10762143Y-8025952D01*
X10752619Y-8016428D01*
X10743095Y-7997381D01*
X10733571Y-7959286D01*
X10733571Y-7911667D01*
X10743095Y-7873571D01*
X10752619Y-7854524D01*
X10762143Y-7845000D01*
X10781190Y-7835476D01*
X11038333Y-8035476D02*
X10924048Y-8035476D01*
X10981190Y-8035476D02*
X10981190Y-7835476D01*
X10962143Y-7864048D01*
X10943095Y-7883095D01*
X10924048Y-7892619D01*
X11219286Y-7835476D02*
X11124048Y-7835476D01*
X11114524Y-7930714D01*
X11124048Y-7921190D01*
X11143095Y-7911667D01*
X11190714Y-7911667D01*
X11209762Y-7921190D01*
X11219286Y-7930714D01*
X11228809Y-7949762D01*
X11228809Y-7997381D01*
X11219286Y-8016428D01*
X11209762Y-8025952D01*
X11190714Y-8035476D01*
X11143095Y-8035476D01*
X11124048Y-8025952D01*
X11114524Y-8016428D01*
X11295476Y-7835476D02*
X11428809Y-7835476D01*
X11343095Y-8035476D01*
X11495476Y-7835476D02*
X11495476Y-7873571D01*
X11571667Y-7835476D02*
X11571667Y-7873571D01*
X11866905Y-8111667D02*
X11857381Y-8102143D01*
X11838333Y-8073571D01*
X11828809Y-8054524D01*
X11819286Y-8025952D01*
X11809762Y-7978333D01*
X11809762Y-7940238D01*
X11819286Y-7892619D01*
X11828809Y-7864048D01*
X11838333Y-7845000D01*
X11857381Y-7816428D01*
X11866905Y-7806905D01*
X11933571Y-7854524D02*
X11943095Y-7845000D01*
X11962143Y-7835476D01*
X12009762Y-7835476D01*
X12028809Y-7845000D01*
X12038333Y-7854524D01*
X12047857Y-7873571D01*
X12047857Y-7892619D01*
X12038333Y-7921190D01*
X11924048Y-8035476D01*
X12047857Y-8035476D01*
X12285952Y-8035476D02*
X12285952Y-7835476D01*
X12371667Y-8035476D02*
X12371667Y-7930714D01*
X12362143Y-7911667D01*
X12343095Y-7902143D01*
X12314524Y-7902143D01*
X12295476Y-7911667D01*
X12285952Y-7921190D01*
X12495476Y-8035476D02*
X12476428Y-8025952D01*
X12466905Y-8016428D01*
X12457381Y-7997381D01*
X12457381Y-7940238D01*
X12466905Y-7921190D01*
X12476428Y-7911667D01*
X12495476Y-7902143D01*
X12524048Y-7902143D01*
X12543095Y-7911667D01*
X12552619Y-7921190D01*
X12562143Y-7940238D01*
X12562143Y-7997381D01*
X12552619Y-8016428D01*
X12543095Y-8025952D01*
X12524048Y-8035476D01*
X12495476Y-8035476D01*
X12676428Y-8035476D02*
X12657381Y-8025952D01*
X12647857Y-8006905D01*
X12647857Y-7835476D01*
X12828809Y-8025952D02*
X12809762Y-8035476D01*
X12771667Y-8035476D01*
X12752619Y-8025952D01*
X12743095Y-8006905D01*
X12743095Y-7930714D01*
X12752619Y-7911667D01*
X12771667Y-7902143D01*
X12809762Y-7902143D01*
X12828809Y-7911667D01*
X12838333Y-7930714D01*
X12838333Y-7949762D01*
X12743095Y-7968809D01*
X12914524Y-8025952D02*
X12933571Y-8035476D01*
X12971667Y-8035476D01*
X12990714Y-8025952D01*
X13000238Y-8006905D01*
X13000238Y-7997381D01*
X12990714Y-7978333D01*
X12971667Y-7968809D01*
X12943095Y-7968809D01*
X12924048Y-7959286D01*
X12914524Y-7940238D01*
X12914524Y-7930714D01*
X12924048Y-7911667D01*
X12943095Y-7902143D01*
X12971667Y-7902143D01*
X12990714Y-7911667D01*
X13066905Y-8111667D02*
X13076428Y-8102143D01*
X13095476Y-8073571D01*
X13105000Y-8054524D01*
X13114524Y-8025952D01*
X13124048Y-7978333D01*
X13124048Y-7940238D01*
X13114524Y-7892619D01*
X13105000Y-7864048D01*
X13095476Y-7845000D01*
X13076428Y-7816428D01*
X13066905Y-7806905D01*
D13*
X8295000Y-8209000D02*
G75*
G03*
X8295000Y-8209000I-30000J0D01*
G01*
D11*
X8590714Y-8099476D02*
X8609762Y-8099476D01*
X8628810Y-8109000D01*
X8638333Y-8118524D01*
X8647857Y-8137571D01*
X8657381Y-8175667D01*
X8657381Y-8223286D01*
X8647857Y-8261381D01*
X8638333Y-8280428D01*
X8628810Y-8289952D01*
X8609762Y-8299476D01*
X8590714Y-8299476D01*
X8571667Y-8289952D01*
X8562143Y-8280428D01*
X8552619Y-8261381D01*
X8543095Y-8223286D01*
X8543095Y-8175667D01*
X8552619Y-8137571D01*
X8562143Y-8118524D01*
X8571667Y-8109000D01*
X8590714Y-8099476D01*
X8743095Y-8280428D02*
X8752619Y-8289952D01*
X8743095Y-8299476D01*
X8733571Y-8289952D01*
X8743095Y-8280428D01*
X8743095Y-8299476D01*
X8924048Y-8099476D02*
X8885952Y-8099476D01*
X8866905Y-8109000D01*
X8857381Y-8118524D01*
X8838333Y-8147095D01*
X8828810Y-8185190D01*
X8828810Y-8261381D01*
X8838333Y-8280428D01*
X8847857Y-8289952D01*
X8866905Y-8299476D01*
X8905000Y-8299476D01*
X8924048Y-8289952D01*
X8933571Y-8280428D01*
X8943095Y-8261381D01*
X8943095Y-8213762D01*
X8933571Y-8194714D01*
X8924048Y-8185190D01*
X8905000Y-8175667D01*
X8866905Y-8175667D01*
X8847857Y-8185190D01*
X8838333Y-8194714D01*
X8828810Y-8213762D01*
X9066905Y-8099476D02*
X9085952Y-8099476D01*
X9105000Y-8109000D01*
X9114524Y-8118524D01*
X9124048Y-8137571D01*
X9133571Y-8175667D01*
X9133571Y-8223286D01*
X9124048Y-8261381D01*
X9114524Y-8280428D01*
X9105000Y-8289952D01*
X9085952Y-8299476D01*
X9066905Y-8299476D01*
X9047857Y-8289952D01*
X9038333Y-8280428D01*
X9028810Y-8261381D01*
X9019286Y-8223286D01*
X9019286Y-8175667D01*
X9028810Y-8137571D01*
X9038333Y-8118524D01*
X9047857Y-8109000D01*
X9066905Y-8099476D01*
X9257381Y-8099476D02*
X9276429Y-8099476D01*
X9295476Y-8109000D01*
X9305000Y-8118524D01*
X9314524Y-8137571D01*
X9324048Y-8175667D01*
X9324048Y-8223286D01*
X9314524Y-8261381D01*
X9305000Y-8280428D01*
X9295476Y-8289952D01*
X9276429Y-8299476D01*
X9257381Y-8299476D01*
X9238333Y-8289952D01*
X9228810Y-8280428D01*
X9219286Y-8261381D01*
X9209762Y-8223286D01*
X9209762Y-8175667D01*
X9219286Y-8137571D01*
X9228810Y-8118524D01*
X9238333Y-8109000D01*
X9257381Y-8099476D01*
X9409762Y-8299476D02*
X9409762Y-8166143D01*
X9409762Y-8185190D02*
X9419286Y-8175667D01*
X9438333Y-8166143D01*
X9466905Y-8166143D01*
X9485952Y-8175667D01*
X9495476Y-8194714D01*
X9495476Y-8299476D01*
X9495476Y-8194714D02*
X9505000Y-8175667D01*
X9524048Y-8166143D01*
X9552619Y-8166143D01*
X9571667Y-8175667D01*
X9581190Y-8194714D01*
X9581190Y-8299476D01*
X9676429Y-8299476D02*
X9676429Y-8166143D01*
X9676429Y-8185190D02*
X9685952Y-8175667D01*
X9705000Y-8166143D01*
X9733571Y-8166143D01*
X9752619Y-8175667D01*
X9762143Y-8194714D01*
X9762143Y-8299476D01*
X9762143Y-8194714D02*
X9771667Y-8175667D01*
X9790714Y-8166143D01*
X9819286Y-8166143D01*
X9838333Y-8175667D01*
X9847857Y-8194714D01*
X9847857Y-8299476D01*
X10238333Y-8089952D02*
X10066905Y-8347095D01*
X10495476Y-8099476D02*
X10514524Y-8099476D01*
X10533571Y-8109000D01*
X10543095Y-8118524D01*
X10552619Y-8137571D01*
X10562143Y-8175667D01*
X10562143Y-8223286D01*
X10552619Y-8261381D01*
X10543095Y-8280428D01*
X10533571Y-8289952D01*
X10514524Y-8299476D01*
X10495476Y-8299476D01*
X10476429Y-8289952D01*
X10466905Y-8280428D01*
X10457381Y-8261381D01*
X10447857Y-8223286D01*
X10447857Y-8175667D01*
X10457381Y-8137571D01*
X10466905Y-8118524D01*
X10476429Y-8109000D01*
X10495476Y-8099476D01*
X10647857Y-8280428D02*
X10657381Y-8289952D01*
X10647857Y-8299476D01*
X10638333Y-8289952D01*
X10647857Y-8280428D01*
X10647857Y-8299476D01*
X10781190Y-8099476D02*
X10800238Y-8099476D01*
X10819286Y-8109000D01*
X10828810Y-8118524D01*
X10838333Y-8137571D01*
X10847857Y-8175667D01*
X10847857Y-8223286D01*
X10838333Y-8261381D01*
X10828810Y-8280428D01*
X10819286Y-8289952D01*
X10800238Y-8299476D01*
X10781190Y-8299476D01*
X10762143Y-8289952D01*
X10752619Y-8280428D01*
X10743095Y-8261381D01*
X10733571Y-8223286D01*
X10733571Y-8175667D01*
X10743095Y-8137571D01*
X10752619Y-8118524D01*
X10762143Y-8109000D01*
X10781190Y-8099476D01*
X10924048Y-8118524D02*
X10933571Y-8109000D01*
X10952619Y-8099476D01*
X11000238Y-8099476D01*
X11019286Y-8109000D01*
X11028810Y-8118524D01*
X11038333Y-8137571D01*
X11038333Y-8156619D01*
X11028810Y-8185190D01*
X10914524Y-8299476D01*
X11038333Y-8299476D01*
X11105000Y-8099476D02*
X11228809Y-8099476D01*
X11162143Y-8175667D01*
X11190714Y-8175667D01*
X11209762Y-8185190D01*
X11219286Y-8194714D01*
X11228809Y-8213762D01*
X11228809Y-8261381D01*
X11219286Y-8280428D01*
X11209762Y-8289952D01*
X11190714Y-8299476D01*
X11133571Y-8299476D01*
X11114524Y-8289952D01*
X11105000Y-8280428D01*
X11400238Y-8099476D02*
X11362143Y-8099476D01*
X11343095Y-8109000D01*
X11333571Y-8118524D01*
X11314524Y-8147095D01*
X11305000Y-8185190D01*
X11305000Y-8261381D01*
X11314524Y-8280428D01*
X11324048Y-8289952D01*
X11343095Y-8299476D01*
X11381190Y-8299476D01*
X11400238Y-8289952D01*
X11409762Y-8280428D01*
X11419286Y-8261381D01*
X11419286Y-8213762D01*
X11409762Y-8194714D01*
X11400238Y-8185190D01*
X11381190Y-8175667D01*
X11343095Y-8175667D01*
X11324048Y-8185190D01*
X11314524Y-8194714D01*
X11305000Y-8213762D01*
X11495476Y-8099476D02*
X11495476Y-8137571D01*
X11571667Y-8099476D02*
X11571667Y-8137571D01*
X11866905Y-8375667D02*
X11857381Y-8366143D01*
X11838333Y-8337571D01*
X11828809Y-8318524D01*
X11819286Y-8289952D01*
X11809762Y-8242333D01*
X11809762Y-8204238D01*
X11819286Y-8156619D01*
X11828809Y-8128048D01*
X11838333Y-8109000D01*
X11857381Y-8080428D01*
X11866905Y-8070905D01*
X11933571Y-8118524D02*
X11943095Y-8109000D01*
X11962143Y-8099476D01*
X12009762Y-8099476D01*
X12028809Y-8109000D01*
X12038333Y-8118524D01*
X12047857Y-8137571D01*
X12047857Y-8156619D01*
X12038333Y-8185190D01*
X11924048Y-8299476D01*
X12047857Y-8299476D01*
X12114524Y-8099476D02*
X12238333Y-8099476D01*
X12171667Y-8175667D01*
X12200238Y-8175667D01*
X12219286Y-8185190D01*
X12228809Y-8194714D01*
X12238333Y-8213762D01*
X12238333Y-8261381D01*
X12228809Y-8280428D01*
X12219286Y-8289952D01*
X12200238Y-8299476D01*
X12143095Y-8299476D01*
X12124048Y-8289952D01*
X12114524Y-8280428D01*
X12476428Y-8299476D02*
X12476428Y-8099476D01*
X12562143Y-8299476D02*
X12562143Y-8194714D01*
X12552619Y-8175667D01*
X12533571Y-8166143D01*
X12505000Y-8166143D01*
X12485952Y-8175667D01*
X12476428Y-8185190D01*
X12685952Y-8299476D02*
X12666905Y-8289952D01*
X12657381Y-8280428D01*
X12647857Y-8261381D01*
X12647857Y-8204238D01*
X12657381Y-8185190D01*
X12666905Y-8175667D01*
X12685952Y-8166143D01*
X12714524Y-8166143D01*
X12733571Y-8175667D01*
X12743095Y-8185190D01*
X12752619Y-8204238D01*
X12752619Y-8261381D01*
X12743095Y-8280428D01*
X12733571Y-8289952D01*
X12714524Y-8299476D01*
X12685952Y-8299476D01*
X12866905Y-8299476D02*
X12847857Y-8289952D01*
X12838333Y-8270905D01*
X12838333Y-8099476D01*
X13019286Y-8289952D02*
X13000238Y-8299476D01*
X12962143Y-8299476D01*
X12943095Y-8289952D01*
X12933571Y-8270905D01*
X12933571Y-8194714D01*
X12943095Y-8175667D01*
X12962143Y-8166143D01*
X13000238Y-8166143D01*
X13019286Y-8175667D01*
X13028809Y-8194714D01*
X13028809Y-8213762D01*
X12933571Y-8232809D01*
X13105000Y-8289952D02*
X13124048Y-8299476D01*
X13162143Y-8299476D01*
X13181190Y-8289952D01*
X13190714Y-8270905D01*
X13190714Y-8261381D01*
X13181190Y-8242333D01*
X13162143Y-8232809D01*
X13133571Y-8232809D01*
X13114524Y-8223286D01*
X13105000Y-8204238D01*
X13105000Y-8194714D01*
X13114524Y-8175667D01*
X13133571Y-8166143D01*
X13162143Y-8166143D01*
X13181190Y-8175667D01*
X13257381Y-8375667D02*
X13266905Y-8366143D01*
X13285952Y-8337571D01*
X13295476Y-8318524D01*
X13305000Y-8289952D01*
X13314524Y-8242333D01*
X13314524Y-8204238D01*
X13305000Y-8156619D01*
X13295476Y-8128048D01*
X13285952Y-8109000D01*
X13266905Y-8080428D01*
X13257381Y-8070905D01*
D14*
X8255000Y-8433000D02*
X8255000Y-8513000D01*
X8215000Y-8473000D02*
X8295000Y-8473000D01*
D11*
X8590714Y-8363476D02*
X8609762Y-8363476D01*
X8628810Y-8373000D01*
X8638333Y-8382524D01*
X8647857Y-8401571D01*
X8657381Y-8439667D01*
X8657381Y-8487286D01*
X8647857Y-8525381D01*
X8638333Y-8544429D01*
X8628810Y-8553952D01*
X8609762Y-8563476D01*
X8590714Y-8563476D01*
X8571667Y-8553952D01*
X8562143Y-8544429D01*
X8552619Y-8525381D01*
X8543095Y-8487286D01*
X8543095Y-8439667D01*
X8552619Y-8401571D01*
X8562143Y-8382524D01*
X8571667Y-8373000D01*
X8590714Y-8363476D01*
X8743095Y-8544429D02*
X8752619Y-8553952D01*
X8743095Y-8563476D01*
X8733571Y-8553952D01*
X8743095Y-8544429D01*
X8743095Y-8563476D01*
X8866905Y-8449190D02*
X8847857Y-8439667D01*
X8838333Y-8430143D01*
X8828810Y-8411095D01*
X8828810Y-8401571D01*
X8838333Y-8382524D01*
X8847857Y-8373000D01*
X8866905Y-8363476D01*
X8905000Y-8363476D01*
X8924048Y-8373000D01*
X8933571Y-8382524D01*
X8943095Y-8401571D01*
X8943095Y-8411095D01*
X8933571Y-8430143D01*
X8924048Y-8439667D01*
X8905000Y-8449190D01*
X8866905Y-8449190D01*
X8847857Y-8458714D01*
X8838333Y-8468238D01*
X8828810Y-8487286D01*
X8828810Y-8525381D01*
X8838333Y-8544429D01*
X8847857Y-8553952D01*
X8866905Y-8563476D01*
X8905000Y-8563476D01*
X8924048Y-8553952D01*
X8933571Y-8544429D01*
X8943095Y-8525381D01*
X8943095Y-8487286D01*
X8933571Y-8468238D01*
X8924048Y-8458714D01*
X8905000Y-8449190D01*
X9066905Y-8363476D02*
X9085952Y-8363476D01*
X9105000Y-8373000D01*
X9114524Y-8382524D01*
X9124048Y-8401571D01*
X9133571Y-8439667D01*
X9133571Y-8487286D01*
X9124048Y-8525381D01*
X9114524Y-8544429D01*
X9105000Y-8553952D01*
X9085952Y-8563476D01*
X9066905Y-8563476D01*
X9047857Y-8553952D01*
X9038333Y-8544429D01*
X9028810Y-8525381D01*
X9019286Y-8487286D01*
X9019286Y-8439667D01*
X9028810Y-8401571D01*
X9038333Y-8382524D01*
X9047857Y-8373000D01*
X9066905Y-8363476D01*
X9257381Y-8363476D02*
X9276429Y-8363476D01*
X9295476Y-8373000D01*
X9305000Y-8382524D01*
X9314524Y-8401571D01*
X9324048Y-8439667D01*
X9324048Y-8487286D01*
X9314524Y-8525381D01*
X9305000Y-8544429D01*
X9295476Y-8553952D01*
X9276429Y-8563476D01*
X9257381Y-8563476D01*
X9238333Y-8553952D01*
X9228810Y-8544429D01*
X9219286Y-8525381D01*
X9209762Y-8487286D01*
X9209762Y-8439667D01*
X9219286Y-8401571D01*
X9228810Y-8382524D01*
X9238333Y-8373000D01*
X9257381Y-8363476D01*
X9409762Y-8563476D02*
X9409762Y-8430143D01*
X9409762Y-8449190D02*
X9419286Y-8439667D01*
X9438333Y-8430143D01*
X9466905Y-8430143D01*
X9485952Y-8439667D01*
X9495476Y-8458714D01*
X9495476Y-8563476D01*
X9495476Y-8458714D02*
X9505000Y-8439667D01*
X9524048Y-8430143D01*
X9552619Y-8430143D01*
X9571667Y-8439667D01*
X9581190Y-8458714D01*
X9581190Y-8563476D01*
X9676429Y-8563476D02*
X9676429Y-8430143D01*
X9676429Y-8449190D02*
X9685952Y-8439667D01*
X9705000Y-8430143D01*
X9733571Y-8430143D01*
X9752619Y-8439667D01*
X9762143Y-8458714D01*
X9762143Y-8563476D01*
X9762143Y-8458714D02*
X9771667Y-8439667D01*
X9790714Y-8430143D01*
X9819286Y-8430143D01*
X9838333Y-8439667D01*
X9847857Y-8458714D01*
X9847857Y-8563476D01*
X10238333Y-8353952D02*
X10066905Y-8611095D01*
X10495476Y-8363476D02*
X10514524Y-8363476D01*
X10533571Y-8373000D01*
X10543095Y-8382524D01*
X10552619Y-8401571D01*
X10562143Y-8439667D01*
X10562143Y-8487286D01*
X10552619Y-8525381D01*
X10543095Y-8544429D01*
X10533571Y-8553952D01*
X10514524Y-8563476D01*
X10495476Y-8563476D01*
X10476429Y-8553952D01*
X10466905Y-8544429D01*
X10457381Y-8525381D01*
X10447857Y-8487286D01*
X10447857Y-8439667D01*
X10457381Y-8401571D01*
X10466905Y-8382524D01*
X10476429Y-8373000D01*
X10495476Y-8363476D01*
X10647857Y-8544429D02*
X10657381Y-8553952D01*
X10647857Y-8563476D01*
X10638333Y-8553952D01*
X10647857Y-8544429D01*
X10647857Y-8563476D01*
X10781190Y-8363476D02*
X10800238Y-8363476D01*
X10819286Y-8373000D01*
X10828810Y-8382524D01*
X10838333Y-8401571D01*
X10847857Y-8439667D01*
X10847857Y-8487286D01*
X10838333Y-8525381D01*
X10828810Y-8544429D01*
X10819286Y-8553952D01*
X10800238Y-8563476D01*
X10781190Y-8563476D01*
X10762143Y-8553952D01*
X10752619Y-8544429D01*
X10743095Y-8525381D01*
X10733571Y-8487286D01*
X10733571Y-8439667D01*
X10743095Y-8401571D01*
X10752619Y-8382524D01*
X10762143Y-8373000D01*
X10781190Y-8363476D01*
X10914524Y-8363476D02*
X11038333Y-8363476D01*
X10971667Y-8439667D01*
X11000238Y-8439667D01*
X11019286Y-8449190D01*
X11028810Y-8458714D01*
X11038333Y-8477762D01*
X11038333Y-8525381D01*
X11028810Y-8544429D01*
X11019286Y-8553952D01*
X11000238Y-8563476D01*
X10943095Y-8563476D01*
X10924048Y-8553952D01*
X10914524Y-8544429D01*
X11228809Y-8563476D02*
X11114524Y-8563476D01*
X11171667Y-8563476D02*
X11171667Y-8363476D01*
X11152619Y-8392048D01*
X11133571Y-8411095D01*
X11114524Y-8420619D01*
X11409762Y-8363476D02*
X11314524Y-8363476D01*
X11305000Y-8458714D01*
X11314524Y-8449190D01*
X11333571Y-8439667D01*
X11381190Y-8439667D01*
X11400238Y-8449190D01*
X11409762Y-8458714D01*
X11419286Y-8477762D01*
X11419286Y-8525381D01*
X11409762Y-8544429D01*
X11400238Y-8553952D01*
X11381190Y-8563476D01*
X11333571Y-8563476D01*
X11314524Y-8553952D01*
X11305000Y-8544429D01*
X11495476Y-8363476D02*
X11495476Y-8401571D01*
X11571667Y-8363476D02*
X11571667Y-8401571D01*
X11866905Y-8639667D02*
X11857381Y-8630143D01*
X11838333Y-8601571D01*
X11828809Y-8582524D01*
X11819286Y-8553952D01*
X11809762Y-8506333D01*
X11809762Y-8468238D01*
X11819286Y-8420619D01*
X11828809Y-8392048D01*
X11838333Y-8373000D01*
X11857381Y-8344428D01*
X11866905Y-8334905D01*
X12038333Y-8363476D02*
X11943095Y-8363476D01*
X11933571Y-8458714D01*
X11943095Y-8449190D01*
X11962143Y-8439667D01*
X12009762Y-8439667D01*
X12028809Y-8449190D01*
X12038333Y-8458714D01*
X12047857Y-8477762D01*
X12047857Y-8525381D01*
X12038333Y-8544429D01*
X12028809Y-8553952D01*
X12009762Y-8563476D01*
X11962143Y-8563476D01*
X11943095Y-8553952D01*
X11933571Y-8544429D01*
X12219286Y-8430143D02*
X12219286Y-8563476D01*
X12171667Y-8353952D02*
X12124048Y-8496810D01*
X12247857Y-8496810D01*
X12476428Y-8563476D02*
X12476428Y-8363476D01*
X12562143Y-8563476D02*
X12562143Y-8458714D01*
X12552619Y-8439667D01*
X12533571Y-8430143D01*
X12505000Y-8430143D01*
X12485952Y-8439667D01*
X12476428Y-8449190D01*
X12685952Y-8563476D02*
X12666905Y-8553952D01*
X12657381Y-8544429D01*
X12647857Y-8525381D01*
X12647857Y-8468238D01*
X12657381Y-8449190D01*
X12666905Y-8439667D01*
X12685952Y-8430143D01*
X12714524Y-8430143D01*
X12733571Y-8439667D01*
X12743095Y-8449190D01*
X12752619Y-8468238D01*
X12752619Y-8525381D01*
X12743095Y-8544429D01*
X12733571Y-8553952D01*
X12714524Y-8563476D01*
X12685952Y-8563476D01*
X12866905Y-8563476D02*
X12847857Y-8553952D01*
X12838333Y-8534905D01*
X12838333Y-8363476D01*
X13019286Y-8553952D02*
X13000238Y-8563476D01*
X12962143Y-8563476D01*
X12943095Y-8553952D01*
X12933571Y-8534905D01*
X12933571Y-8458714D01*
X12943095Y-8439667D01*
X12962143Y-8430143D01*
X13000238Y-8430143D01*
X13019286Y-8439667D01*
X13028809Y-8458714D01*
X13028809Y-8477762D01*
X12933571Y-8496810D01*
X13105000Y-8553952D02*
X13124048Y-8563476D01*
X13162143Y-8563476D01*
X13181190Y-8553952D01*
X13190714Y-8534905D01*
X13190714Y-8525381D01*
X13181190Y-8506333D01*
X13162143Y-8496810D01*
X13133571Y-8496810D01*
X13114524Y-8487286D01*
X13105000Y-8468238D01*
X13105000Y-8458714D01*
X13114524Y-8439667D01*
X13133571Y-8430143D01*
X13162143Y-8430143D01*
X13181190Y-8439667D01*
X13257381Y-8639667D02*
X13266905Y-8630143D01*
X13285952Y-8601571D01*
X13295476Y-8582524D01*
X13305000Y-8553952D01*
X13314524Y-8506333D01*
X13314524Y-8468238D01*
X13305000Y-8420619D01*
X13295476Y-8392048D01*
X13285952Y-8373000D01*
X13266905Y-8344428D01*
X13257381Y-8334905D01*
D15*
X8281820Y-8768820D02*
X8281820Y-8705180D01*
X8218180Y-8705180D01*
X8218180Y-8768820D01*
X8281820Y-8768820D01*
D11*
X8590714Y-8627476D02*
X8609762Y-8627476D01*
X8628810Y-8637000D01*
X8638333Y-8646524D01*
X8647857Y-8665571D01*
X8657381Y-8703667D01*
X8657381Y-8751286D01*
X8647857Y-8789381D01*
X8638333Y-8808429D01*
X8628810Y-8817952D01*
X8609762Y-8827476D01*
X8590714Y-8827476D01*
X8571667Y-8817952D01*
X8562143Y-8808429D01*
X8552619Y-8789381D01*
X8543095Y-8751286D01*
X8543095Y-8703667D01*
X8552619Y-8665571D01*
X8562143Y-8646524D01*
X8571667Y-8637000D01*
X8590714Y-8627476D01*
X8743095Y-8808429D02*
X8752619Y-8817952D01*
X8743095Y-8827476D01*
X8733571Y-8817952D01*
X8743095Y-8808429D01*
X8743095Y-8827476D01*
X8847857Y-8827476D02*
X8885952Y-8827476D01*
X8905000Y-8817952D01*
X8914524Y-8808429D01*
X8933571Y-8779857D01*
X8943095Y-8741762D01*
X8943095Y-8665571D01*
X8933571Y-8646524D01*
X8924048Y-8637000D01*
X8905000Y-8627476D01*
X8866905Y-8627476D01*
X8847857Y-8637000D01*
X8838333Y-8646524D01*
X8828810Y-8665571D01*
X8828810Y-8713190D01*
X8838333Y-8732238D01*
X8847857Y-8741762D01*
X8866905Y-8751286D01*
X8905000Y-8751286D01*
X8924048Y-8741762D01*
X8933571Y-8732238D01*
X8943095Y-8713190D01*
X9066905Y-8627476D02*
X9085952Y-8627476D01*
X9105000Y-8637000D01*
X9114524Y-8646524D01*
X9124048Y-8665571D01*
X9133571Y-8703667D01*
X9133571Y-8751286D01*
X9124048Y-8789381D01*
X9114524Y-8808429D01*
X9105000Y-8817952D01*
X9085952Y-8827476D01*
X9066905Y-8827476D01*
X9047857Y-8817952D01*
X9038333Y-8808429D01*
X9028810Y-8789381D01*
X9019286Y-8751286D01*
X9019286Y-8703667D01*
X9028810Y-8665571D01*
X9038333Y-8646524D01*
X9047857Y-8637000D01*
X9066905Y-8627476D01*
X9257381Y-8627476D02*
X9276429Y-8627476D01*
X9295476Y-8637000D01*
X9305000Y-8646524D01*
X9314524Y-8665571D01*
X9324048Y-8703667D01*
X9324048Y-8751286D01*
X9314524Y-8789381D01*
X9305000Y-8808429D01*
X9295476Y-8817952D01*
X9276429Y-8827476D01*
X9257381Y-8827476D01*
X9238333Y-8817952D01*
X9228810Y-8808429D01*
X9219286Y-8789381D01*
X9209762Y-8751286D01*
X9209762Y-8703667D01*
X9219286Y-8665571D01*
X9228810Y-8646524D01*
X9238333Y-8637000D01*
X9257381Y-8627476D01*
X9409762Y-8827476D02*
X9409762Y-8694143D01*
X9409762Y-8713190D02*
X9419286Y-8703667D01*
X9438333Y-8694143D01*
X9466905Y-8694143D01*
X9485952Y-8703667D01*
X9495476Y-8722714D01*
X9495476Y-8827476D01*
X9495476Y-8722714D02*
X9505000Y-8703667D01*
X9524048Y-8694143D01*
X9552619Y-8694143D01*
X9571667Y-8703667D01*
X9581190Y-8722714D01*
X9581190Y-8827476D01*
X9676429Y-8827476D02*
X9676429Y-8694143D01*
X9676429Y-8713190D02*
X9685952Y-8703667D01*
X9705000Y-8694143D01*
X9733571Y-8694143D01*
X9752619Y-8703667D01*
X9762143Y-8722714D01*
X9762143Y-8827476D01*
X9762143Y-8722714D02*
X9771667Y-8703667D01*
X9790714Y-8694143D01*
X9819286Y-8694143D01*
X9838333Y-8703667D01*
X9847857Y-8722714D01*
X9847857Y-8827476D01*
X10238333Y-8617952D02*
X10066905Y-8875095D01*
X10495476Y-8627476D02*
X10514524Y-8627476D01*
X10533571Y-8637000D01*
X10543095Y-8646524D01*
X10552619Y-8665571D01*
X10562143Y-8703667D01*
X10562143Y-8751286D01*
X10552619Y-8789381D01*
X10543095Y-8808429D01*
X10533571Y-8817952D01*
X10514524Y-8827476D01*
X10495476Y-8827476D01*
X10476429Y-8817952D01*
X10466905Y-8808429D01*
X10457381Y-8789381D01*
X10447857Y-8751286D01*
X10447857Y-8703667D01*
X10457381Y-8665571D01*
X10466905Y-8646524D01*
X10476429Y-8637000D01*
X10495476Y-8627476D01*
X10647857Y-8808429D02*
X10657381Y-8817952D01*
X10647857Y-8827476D01*
X10638333Y-8817952D01*
X10647857Y-8808429D01*
X10647857Y-8827476D01*
X10781190Y-8627476D02*
X10800238Y-8627476D01*
X10819286Y-8637000D01*
X10828810Y-8646524D01*
X10838333Y-8665571D01*
X10847857Y-8703667D01*
X10847857Y-8751286D01*
X10838333Y-8789381D01*
X10828810Y-8808429D01*
X10819286Y-8817952D01*
X10800238Y-8827476D01*
X10781190Y-8827476D01*
X10762143Y-8817952D01*
X10752619Y-8808429D01*
X10743095Y-8789381D01*
X10733571Y-8751286D01*
X10733571Y-8703667D01*
X10743095Y-8665571D01*
X10752619Y-8646524D01*
X10762143Y-8637000D01*
X10781190Y-8627476D01*
X10914524Y-8627476D02*
X11038333Y-8627476D01*
X10971667Y-8703667D01*
X11000238Y-8703667D01*
X11019286Y-8713190D01*
X11028810Y-8722714D01*
X11038333Y-8741762D01*
X11038333Y-8789381D01*
X11028810Y-8808429D01*
X11019286Y-8817952D01*
X11000238Y-8827476D01*
X10943095Y-8827476D01*
X10924048Y-8817952D01*
X10914524Y-8808429D01*
X11219286Y-8627476D02*
X11124048Y-8627476D01*
X11114524Y-8722714D01*
X11124048Y-8713190D01*
X11143095Y-8703667D01*
X11190714Y-8703667D01*
X11209762Y-8713190D01*
X11219286Y-8722714D01*
X11228809Y-8741762D01*
X11228809Y-8789381D01*
X11219286Y-8808429D01*
X11209762Y-8817952D01*
X11190714Y-8827476D01*
X11143095Y-8827476D01*
X11124048Y-8817952D01*
X11114524Y-8808429D01*
X11400238Y-8694143D02*
X11400238Y-8827476D01*
X11352619Y-8617952D02*
X11305000Y-8760810D01*
X11428809Y-8760810D01*
X11495476Y-8627476D02*
X11495476Y-8665571D01*
X11571667Y-8627476D02*
X11571667Y-8665571D01*
X11866905Y-8903667D02*
X11857381Y-8894143D01*
X11838333Y-8865571D01*
X11828809Y-8846524D01*
X11819286Y-8817952D01*
X11809762Y-8770333D01*
X11809762Y-8732238D01*
X11819286Y-8684619D01*
X11828809Y-8656048D01*
X11838333Y-8637000D01*
X11857381Y-8608429D01*
X11866905Y-8598905D01*
X11933571Y-8646524D02*
X11943095Y-8637000D01*
X11962143Y-8627476D01*
X12009762Y-8627476D01*
X12028809Y-8637000D01*
X12038333Y-8646524D01*
X12047857Y-8665571D01*
X12047857Y-8684619D01*
X12038333Y-8713190D01*
X11924048Y-8827476D01*
X12047857Y-8827476D01*
X12285952Y-8827476D02*
X12285952Y-8627476D01*
X12371667Y-8827476D02*
X12371667Y-8722714D01*
X12362143Y-8703667D01*
X12343095Y-8694143D01*
X12314524Y-8694143D01*
X12295476Y-8703667D01*
X12285952Y-8713190D01*
X12495476Y-8827476D02*
X12476428Y-8817952D01*
X12466905Y-8808429D01*
X12457381Y-8789381D01*
X12457381Y-8732238D01*
X12466905Y-8713190D01*
X12476428Y-8703667D01*
X12495476Y-8694143D01*
X12524048Y-8694143D01*
X12543095Y-8703667D01*
X12552619Y-8713190D01*
X12562143Y-8732238D01*
X12562143Y-8789381D01*
X12552619Y-8808429D01*
X12543095Y-8817952D01*
X12524048Y-8827476D01*
X12495476Y-8827476D01*
X12676428Y-8827476D02*
X12657381Y-8817952D01*
X12647857Y-8798905D01*
X12647857Y-8627476D01*
X12828809Y-8817952D02*
X12809762Y-8827476D01*
X12771667Y-8827476D01*
X12752619Y-8817952D01*
X12743095Y-8798905D01*
X12743095Y-8722714D01*
X12752619Y-8703667D01*
X12771667Y-8694143D01*
X12809762Y-8694143D01*
X12828809Y-8703667D01*
X12838333Y-8722714D01*
X12838333Y-8741762D01*
X12743095Y-8760810D01*
X12914524Y-8817952D02*
X12933571Y-8827476D01*
X12971667Y-8827476D01*
X12990714Y-8817952D01*
X13000238Y-8798905D01*
X13000238Y-8789381D01*
X12990714Y-8770333D01*
X12971667Y-8760810D01*
X12943095Y-8760810D01*
X12924048Y-8751286D01*
X12914524Y-8732238D01*
X12914524Y-8722714D01*
X12924048Y-8703667D01*
X12943095Y-8694143D01*
X12971667Y-8694143D01*
X12990714Y-8703667D01*
X13066905Y-8903667D02*
X13076428Y-8894143D01*
X13095476Y-8865571D01*
X13105000Y-8846524D01*
X13114524Y-8817952D01*
X13124048Y-8770333D01*
X13124048Y-8732238D01*
X13114524Y-8684619D01*
X13105000Y-8656048D01*
X13095476Y-8637000D01*
X13076428Y-8608429D01*
X13066905Y-8598905D01*
M02*
