G04 #@! TF.GenerationSoftware,KiCad,Pcbnew,(6.0.2-0)*
G04 #@! TF.CreationDate,2024-10-15T18:59:14-04:00*
G04 #@! TF.ProjectId,Common Circuits,436f6d6d-6f6e-4204-9369-726375697473,rev?*
G04 #@! TF.SameCoordinates,Original*
G04 #@! TF.FileFunction,Copper,L2,Bot*
G04 #@! TF.FilePolarity,Positive*
%FSLAX46Y46*%
G04 Gerber Fmt 4.6, Leading zero omitted, Abs format (unit mm)*
G04 Created by KiCad (PCBNEW (6.0.2-0)) date 2024-10-15 18:59:14*
%MOMM*%
%LPD*%
G01*
G04 APERTURE LIST*
G04 Aperture macros list*
%AMRoundRect*
0 Rectangle with rounded corners*
0 $1 Rounding radius*
0 $2 $3 $4 $5 $6 $7 $8 $9 X,Y pos of 4 corners*
0 Add a 4 corners polygon primitive as box body*
4,1,4,$2,$3,$4,$5,$6,$7,$8,$9,$2,$3,0*
0 Add four circle primitives for the rounded corners*
1,1,$1+$1,$2,$3*
1,1,$1+$1,$4,$5*
1,1,$1+$1,$6,$7*
1,1,$1+$1,$8,$9*
0 Add four rect primitives between the rounded corners*
20,1,$1+$1,$2,$3,$4,$5,0*
20,1,$1+$1,$4,$5,$6,$7,0*
20,1,$1+$1,$6,$7,$8,$9,0*
20,1,$1+$1,$8,$9,$2,$3,0*%
G04 Aperture macros list end*
G04 #@! TA.AperFunction,ComponentPad*
%ADD10C,1.600000*%
G04 #@! TD*
G04 #@! TA.AperFunction,ComponentPad*
%ADD11O,1.600000X1.600000*%
G04 #@! TD*
G04 #@! TA.AperFunction,ComponentPad*
%ADD12RoundRect,0.250001X-0.799999X-0.799999X0.799999X-0.799999X0.799999X0.799999X-0.799999X0.799999X0*%
G04 #@! TD*
G04 #@! TA.AperFunction,ComponentPad*
%ADD13C,2.100000*%
G04 #@! TD*
G04 #@! TA.AperFunction,ComponentPad*
%ADD14R,1.600000X1.600000*%
G04 #@! TD*
G04 #@! TA.AperFunction,ComponentPad*
%ADD15RoundRect,0.250001X0.799999X0.799999X-0.799999X0.799999X-0.799999X-0.799999X0.799999X-0.799999X0*%
G04 #@! TD*
G04 #@! TA.AperFunction,ComponentPad*
%ADD16R,1.800000X1.800000*%
G04 #@! TD*
G04 #@! TA.AperFunction,ComponentPad*
%ADD17C,1.800000*%
G04 #@! TD*
G04 #@! TA.AperFunction,ViaPad*
%ADD18C,0.800000*%
G04 #@! TD*
G04 #@! TA.AperFunction,Conductor*
%ADD19C,0.250000*%
G04 #@! TD*
G04 APERTURE END LIST*
D10*
X157430000Y-78050000D03*
D11*
X147270000Y-78050000D03*
D12*
X98750000Y-83400000D03*
D13*
X103350000Y-83400000D03*
X107950000Y-83400000D03*
D12*
X145000000Y-83300000D03*
D13*
X149600000Y-83300000D03*
D12*
X150150000Y-66000000D03*
D13*
X154750000Y-66000000D03*
D14*
X133200000Y-78300000D03*
D11*
X133200000Y-80840000D03*
X133200000Y-83380000D03*
X133200000Y-85920000D03*
X140820000Y-85920000D03*
X140820000Y-83380000D03*
X140820000Y-80840000D03*
X140820000Y-78300000D03*
D10*
X157430000Y-74350000D03*
D11*
X147270000Y-74350000D03*
D10*
X154950000Y-70950000D03*
X149950000Y-70950000D03*
X107300000Y-78000000D03*
D11*
X97140000Y-78000000D03*
D13*
X137400000Y-90200000D03*
X142000000Y-90200000D03*
D15*
X146600000Y-90200000D03*
D14*
X125794888Y-89150000D03*
D10*
X128294888Y-89150000D03*
D15*
X104850000Y-66000000D03*
D13*
X100250000Y-66000000D03*
D10*
X107280000Y-74500000D03*
D11*
X97120000Y-74500000D03*
D10*
X104400000Y-71100000D03*
X99400000Y-71100000D03*
D14*
X112500000Y-78300000D03*
D11*
X112500000Y-80840000D03*
X112500000Y-83380000D03*
X112500000Y-85920000D03*
X120120000Y-85920000D03*
X120120000Y-83380000D03*
X120120000Y-80840000D03*
X120120000Y-78300000D03*
D12*
X106850000Y-90150000D03*
D13*
X111450000Y-90150000D03*
X116050000Y-90150000D03*
D16*
X125625000Y-81250000D03*
D17*
X128165000Y-81250000D03*
D18*
X144050000Y-87150000D03*
X108800000Y-87100000D03*
D19*
X97140000Y-78000000D02*
X97140000Y-84202493D01*
X97140000Y-84202493D02*
X100037507Y-87100000D01*
X100037507Y-87100000D02*
X108800000Y-87100000D01*
X144050000Y-86610000D02*
X144050000Y-87150000D01*
X140820000Y-83380000D02*
X144050000Y-86610000D01*
X116050000Y-90150000D02*
X112500000Y-86600000D01*
X112500000Y-86600000D02*
X112500000Y-85920000D01*
X102451789Y-90150000D02*
X111450000Y-90150000D01*
X96015489Y-83713700D02*
X96015489Y-77534211D01*
X96015489Y-77534211D02*
X97249700Y-76300000D01*
X97249700Y-76300000D02*
X105600000Y-76300000D01*
X102451789Y-90150000D02*
X96015489Y-83713700D01*
X105600000Y-76300000D02*
X107300000Y-78000000D01*
X97120000Y-74500000D02*
X97590300Y-74500000D01*
X97590300Y-74500000D02*
X103690780Y-68399520D01*
X119654211Y-79424511D02*
X123799511Y-79424511D01*
X103690780Y-68399520D02*
X108629220Y-68399520D01*
X108629220Y-68399520D02*
X119654211Y-79424511D01*
X123799511Y-79424511D02*
X125625000Y-81250000D01*
X137400000Y-90200000D02*
X136350000Y-91250000D01*
X136350000Y-91250000D02*
X117150000Y-91250000D01*
X117150000Y-91250000D02*
X116050000Y-90150000D01*
X142000000Y-90200000D02*
X146600000Y-90200000D01*
X157430000Y-78050000D02*
X146654520Y-88825480D01*
X146654520Y-88825480D02*
X128619408Y-88825480D01*
X128619408Y-88825480D02*
X128294888Y-89150000D01*
X118704511Y-79424511D02*
X120120000Y-80840000D01*
X108724511Y-79424511D02*
X118704511Y-79424511D01*
X107300000Y-78000000D02*
X108724511Y-79424511D01*
X98750000Y-83400000D02*
X101050000Y-85700000D01*
X109912026Y-85700000D02*
X110816537Y-84795489D01*
X110816537Y-84795489D02*
X112965789Y-84795489D01*
X101050000Y-85700000D02*
X109912026Y-85700000D01*
X112970300Y-84800000D02*
X119649700Y-84800000D01*
X112965789Y-84795489D02*
X112970300Y-84800000D01*
X119649700Y-84800000D02*
X119654211Y-84795489D01*
X147270000Y-78520300D02*
X147270000Y-78050000D01*
X126704511Y-84795489D02*
X132075489Y-79424511D01*
X119654211Y-84795489D02*
X126704511Y-84795489D01*
X134324511Y-79424511D02*
X134324511Y-79400000D01*
X132075489Y-79424511D02*
X134324511Y-79424511D01*
X134324511Y-79400000D02*
X140329700Y-79400000D01*
X140329700Y-79400000D02*
X140354211Y-79424511D01*
X140354211Y-79424511D02*
X146365789Y-79424511D01*
X146365789Y-79424511D02*
X147270000Y-78520300D01*
X112500000Y-85920000D02*
X113624511Y-87044511D01*
X113624511Y-87044511D02*
X132075489Y-87044511D01*
X132075489Y-87044511D02*
X133200000Y-85920000D01*
X112500000Y-78300000D02*
X110750000Y-78300000D01*
X110750000Y-78300000D02*
X107280000Y-74830000D01*
X107280000Y-74830000D02*
X107280000Y-74500000D01*
X154750000Y-66000000D02*
X153120000Y-66000000D01*
X153120000Y-66000000D02*
X140820000Y-78300000D01*
X150150000Y-66000000D02*
X149300000Y-66000000D01*
X149300000Y-66000000D02*
X147350000Y-67950000D01*
X147350000Y-67950000D02*
X102200000Y-67950000D01*
X102200000Y-67950000D02*
X100250000Y-66000000D01*
X104400000Y-71100000D02*
X107280000Y-73980000D01*
X154950000Y-70950000D02*
X154950000Y-73350000D01*
X107280000Y-73980000D02*
X107280000Y-74500000D01*
X154950000Y-73350000D02*
X145000000Y-83300000D01*
X139695489Y-77175489D02*
X121244511Y-77175489D01*
X140820000Y-78300000D02*
X139695489Y-77175489D01*
X128165000Y-81250000D02*
X125215000Y-78300000D01*
X125215000Y-78300000D02*
X120120000Y-78300000D01*
X121244511Y-77175489D02*
X120120000Y-78300000D01*
X147270000Y-78050000D02*
X147270000Y-74350000D01*
X140820000Y-83380000D02*
X140820000Y-80840000D01*
X146070300Y-80840000D02*
X140820000Y-80840000D01*
X149950000Y-76960300D02*
X146070300Y-80840000D01*
X149950000Y-70950000D02*
X149950000Y-76960300D01*
M02*
