%FSLAX45Y45*%
G04 Gerber Fmt 4.5, Leading zero omitted, Abs format (unit mm)*
G04 Created by KiCad (PCBNEW (6.0.2-0)) date 2024-10-15 18:59:05*
%MOMM*%
%LPD*%
G01*
G04 APERTURE LIST*
%TA.AperFunction,Profile*%
%ADD10C,0.200000*%
%TD*%
%ADD11C,0.200000*%
%ADD12C,0.040000*%
%ADD13C,0.080000*%
%ADD14C,0.090000*%
%ADD15C,0.110000*%
G04 APERTURE END LIST*
D10*
X16000000Y-6100000D02*
G75*
G03*
X15895000Y-6000000I-103203J-3238D01*
G01*
X15900000Y-9330000D02*
G75*
G03*
X16000000Y-9235000I-3250J103552D01*
G01*
X9330000Y-6105000D02*
X9330000Y-9230000D01*
X15895000Y-6000000D02*
X9430000Y-6000000D01*
X9435000Y-9330000D02*
X15900000Y-9330000D01*
X16000000Y-9235000D02*
X16000000Y-6100000D01*
X9330000Y-9230000D02*
G75*
G03*
X9435000Y-9330000I103203J3238D01*
G01*
X9430000Y-6000000D02*
G75*
G03*
X9330000Y-6105000I3238J-103203D01*
G01*
D11*
D12*
X10860000Y-8690000D02*
X10900000Y-8730000D01*
X10900000Y-8690000D02*
X10860000Y-8730000D01*
X14385000Y-8695000D02*
X14425000Y-8735000D01*
X14425000Y-8695000D02*
X14385000Y-8735000D01*
D13*
X9752000Y-7450000D02*
G75*
G03*
X9752000Y-7450000I-40000J0D01*
G01*
X9754000Y-7800000D02*
G75*
G03*
X9754000Y-7800000I-40000J0D01*
G01*
X9980000Y-7110000D02*
G75*
G03*
X9980000Y-7110000I-40000J0D01*
G01*
X10480000Y-7110000D02*
G75*
G03*
X10480000Y-7110000I-40000J0D01*
G01*
X10768000Y-7450000D02*
G75*
G03*
X10768000Y-7450000I-40000J0D01*
G01*
X10770000Y-7800000D02*
G75*
G03*
X10770000Y-7800000I-40000J0D01*
G01*
X11290000Y-7830000D02*
G75*
G03*
X11290000Y-7830000I-40000J0D01*
G01*
X11290000Y-8084000D02*
G75*
G03*
X11290000Y-8084000I-40000J0D01*
G01*
X11290000Y-8338000D02*
G75*
G03*
X11290000Y-8338000I-40000J0D01*
G01*
X11290000Y-8592000D02*
G75*
G03*
X11290000Y-8592000I-40000J0D01*
G01*
X12052000Y-7830000D02*
G75*
G03*
X12052000Y-7830000I-40000J0D01*
G01*
X12052000Y-8084000D02*
G75*
G03*
X12052000Y-8084000I-40000J0D01*
G01*
X12052000Y-8338000D02*
G75*
G03*
X12052000Y-8338000I-40000J0D01*
G01*
X12052000Y-8592000D02*
G75*
G03*
X12052000Y-8592000I-40000J0D01*
G01*
X12619489Y-8915000D02*
G75*
G03*
X12619489Y-8915000I-40000J0D01*
G01*
X12869489Y-8915000D02*
G75*
G03*
X12869489Y-8915000I-40000J0D01*
G01*
X13360000Y-7830000D02*
G75*
G03*
X13360000Y-7830000I-40000J0D01*
G01*
X13360000Y-8084000D02*
G75*
G03*
X13360000Y-8084000I-40000J0D01*
G01*
X13360000Y-8338000D02*
G75*
G03*
X13360000Y-8338000I-40000J0D01*
G01*
X13360000Y-8592000D02*
G75*
G03*
X13360000Y-8592000I-40000J0D01*
G01*
X14122000Y-7830000D02*
G75*
G03*
X14122000Y-7830000I-40000J0D01*
G01*
X14122000Y-8084000D02*
G75*
G03*
X14122000Y-8084000I-40000J0D01*
G01*
X14122000Y-8338000D02*
G75*
G03*
X14122000Y-8338000I-40000J0D01*
G01*
X14122000Y-8592000D02*
G75*
G03*
X14122000Y-8592000I-40000J0D01*
G01*
X14767000Y-7435000D02*
G75*
G03*
X14767000Y-7435000I-40000J0D01*
G01*
X14767000Y-7805000D02*
G75*
G03*
X14767000Y-7805000I-40000J0D01*
G01*
X15035000Y-7095000D02*
G75*
G03*
X15035000Y-7095000I-40000J0D01*
G01*
X15535000Y-7095000D02*
G75*
G03*
X15535000Y-7095000I-40000J0D01*
G01*
X15783000Y-7435000D02*
G75*
G03*
X15783000Y-7435000I-40000J0D01*
G01*
X15783000Y-7805000D02*
G75*
G03*
X15783000Y-7805000I-40000J0D01*
G01*
D14*
X12562500Y-8080000D02*
X12562500Y-8170000D01*
X12517500Y-8125000D02*
X12607500Y-8125000D01*
X12816500Y-8080000D02*
X12816500Y-8170000D01*
X12771500Y-8125000D02*
X12861500Y-8125000D01*
D15*
X9913891Y-8378891D02*
X9913891Y-8301109D01*
X9836109Y-8301109D01*
X9836109Y-8378891D01*
X9913891Y-8378891D01*
X10063891Y-6638891D02*
X10063891Y-6561109D01*
X9986109Y-6561109D01*
X9986109Y-6638891D01*
X10063891Y-6638891D01*
X10373891Y-8378891D02*
X10373891Y-8301109D01*
X10296109Y-8301109D01*
X10296109Y-8378891D01*
X10373891Y-8378891D01*
X10523891Y-6638891D02*
X10523891Y-6561109D01*
X10446109Y-6561109D01*
X10446109Y-6638891D01*
X10523891Y-6638891D01*
X10723891Y-9053891D02*
X10723891Y-8976109D01*
X10646109Y-8976109D01*
X10646109Y-9053891D01*
X10723891Y-9053891D01*
X10833891Y-8378891D02*
X10833891Y-8301109D01*
X10756109Y-8301109D01*
X10756109Y-8378891D01*
X10833891Y-8378891D01*
X11183891Y-9053891D02*
X11183891Y-8976109D01*
X11106109Y-8976109D01*
X11106109Y-9053891D01*
X11183891Y-9053891D01*
X11643891Y-9053891D02*
X11643891Y-8976109D01*
X11566109Y-8976109D01*
X11566109Y-9053891D01*
X11643891Y-9053891D01*
X13778891Y-9058891D02*
X13778891Y-8981109D01*
X13701109Y-8981109D01*
X13701109Y-9058891D01*
X13778891Y-9058891D01*
X14238891Y-9058891D02*
X14238891Y-8981109D01*
X14161109Y-8981109D01*
X14161109Y-9058891D01*
X14238891Y-9058891D01*
X14538891Y-8368891D02*
X14538891Y-8291109D01*
X14461109Y-8291109D01*
X14461109Y-8368891D01*
X14538891Y-8368891D01*
X14698891Y-9058891D02*
X14698891Y-8981109D01*
X14621109Y-8981109D01*
X14621109Y-9058891D01*
X14698891Y-9058891D01*
X14998891Y-8368891D02*
X14998891Y-8291109D01*
X14921109Y-8291109D01*
X14921109Y-8368891D01*
X14998891Y-8368891D01*
X15053891Y-6638891D02*
X15053891Y-6561109D01*
X14976109Y-6561109D01*
X14976109Y-6638891D01*
X15053891Y-6638891D01*
X15513891Y-6638891D02*
X15513891Y-6561109D01*
X15436109Y-6561109D01*
X15436109Y-6638891D01*
X15513891Y-6638891D01*
D11*
X9577603Y-9650492D02*
X9577603Y-9450492D01*
X9625222Y-9450492D01*
X9653794Y-9460016D01*
X9672842Y-9479063D01*
X9682365Y-9498111D01*
X9691889Y-9536206D01*
X9691889Y-9564778D01*
X9682365Y-9602873D01*
X9672842Y-9621920D01*
X9653794Y-9640968D01*
X9625222Y-9650492D01*
X9577603Y-9650492D01*
X9777603Y-9650492D02*
X9777603Y-9517158D01*
X9777603Y-9555254D02*
X9787127Y-9536206D01*
X9796651Y-9526682D01*
X9815699Y-9517158D01*
X9834746Y-9517158D01*
X9901413Y-9650492D02*
X9901413Y-9517158D01*
X9901413Y-9450492D02*
X9891889Y-9460016D01*
X9901413Y-9469539D01*
X9910937Y-9460016D01*
X9901413Y-9450492D01*
X9901413Y-9469539D01*
X10025222Y-9650492D02*
X10006175Y-9640968D01*
X9996651Y-9621920D01*
X9996651Y-9450492D01*
X10129984Y-9650492D02*
X10110937Y-9640968D01*
X10101413Y-9621920D01*
X10101413Y-9450492D01*
X10358556Y-9650492D02*
X10358556Y-9450492D01*
X10425222Y-9593349D01*
X10491889Y-9450492D01*
X10491889Y-9650492D01*
X10672842Y-9650492D02*
X10672842Y-9545730D01*
X10663318Y-9526682D01*
X10644270Y-9517158D01*
X10606175Y-9517158D01*
X10587127Y-9526682D01*
X10672842Y-9640968D02*
X10653794Y-9650492D01*
X10606175Y-9650492D01*
X10587127Y-9640968D01*
X10577603Y-9621920D01*
X10577603Y-9602873D01*
X10587127Y-9583825D01*
X10606175Y-9574301D01*
X10653794Y-9574301D01*
X10672842Y-9564778D01*
X10768080Y-9517158D02*
X10768080Y-9717158D01*
X10768080Y-9526682D02*
X10787127Y-9517158D01*
X10825222Y-9517158D01*
X10844270Y-9526682D01*
X10853794Y-9536206D01*
X10863318Y-9555254D01*
X10863318Y-9612397D01*
X10853794Y-9631444D01*
X10844270Y-9640968D01*
X10825222Y-9650492D01*
X10787127Y-9650492D01*
X10768080Y-9640968D01*
X10949032Y-9631444D02*
X10958556Y-9640968D01*
X10949032Y-9650492D01*
X10939508Y-9640968D01*
X10949032Y-9631444D01*
X10949032Y-9650492D01*
X10949032Y-9526682D02*
X10958556Y-9536206D01*
X10949032Y-9545730D01*
X10939508Y-9536206D01*
X10949032Y-9526682D01*
X10949032Y-9545730D01*
D12*
X9279984Y-9960016D02*
X9319984Y-10000016D01*
X9319984Y-9960016D02*
X9279984Y-10000016D01*
D11*
X9615699Y-9870492D02*
X9634746Y-9870492D01*
X9653794Y-9880016D01*
X9663318Y-9889539D01*
X9672842Y-9908587D01*
X9682365Y-9946682D01*
X9682365Y-9994301D01*
X9672842Y-10032397D01*
X9663318Y-10051444D01*
X9653794Y-10060968D01*
X9634746Y-10070492D01*
X9615699Y-10070492D01*
X9596651Y-10060968D01*
X9587127Y-10051444D01*
X9577603Y-10032397D01*
X9568080Y-9994301D01*
X9568080Y-9946682D01*
X9577603Y-9908587D01*
X9587127Y-9889539D01*
X9596651Y-9880016D01*
X9615699Y-9870492D01*
X9768080Y-10051444D02*
X9777603Y-10060968D01*
X9768080Y-10070492D01*
X9758556Y-10060968D01*
X9768080Y-10051444D01*
X9768080Y-10070492D01*
X9949032Y-9937158D02*
X9949032Y-10070492D01*
X9901413Y-9860968D02*
X9853794Y-10003825D01*
X9977603Y-10003825D01*
X10091889Y-9870492D02*
X10110937Y-9870492D01*
X10129984Y-9880016D01*
X10139508Y-9889539D01*
X10149032Y-9908587D01*
X10158556Y-9946682D01*
X10158556Y-9994301D01*
X10149032Y-10032397D01*
X10139508Y-10051444D01*
X10129984Y-10060968D01*
X10110937Y-10070492D01*
X10091889Y-10070492D01*
X10072842Y-10060968D01*
X10063318Y-10051444D01*
X10053794Y-10032397D01*
X10044270Y-9994301D01*
X10044270Y-9946682D01*
X10053794Y-9908587D01*
X10063318Y-9889539D01*
X10072842Y-9880016D01*
X10091889Y-9870492D01*
X10282365Y-9870492D02*
X10301413Y-9870492D01*
X10320461Y-9880016D01*
X10329984Y-9889539D01*
X10339508Y-9908587D01*
X10349032Y-9946682D01*
X10349032Y-9994301D01*
X10339508Y-10032397D01*
X10329984Y-10051444D01*
X10320461Y-10060968D01*
X10301413Y-10070492D01*
X10282365Y-10070492D01*
X10263318Y-10060968D01*
X10253794Y-10051444D01*
X10244270Y-10032397D01*
X10234746Y-9994301D01*
X10234746Y-9946682D01*
X10244270Y-9908587D01*
X10253794Y-9889539D01*
X10263318Y-9880016D01*
X10282365Y-9870492D01*
X10434746Y-10070492D02*
X10434746Y-9937158D01*
X10434746Y-9956206D02*
X10444270Y-9946682D01*
X10463318Y-9937158D01*
X10491889Y-9937158D01*
X10510937Y-9946682D01*
X10520461Y-9965730D01*
X10520461Y-10070492D01*
X10520461Y-9965730D02*
X10529984Y-9946682D01*
X10549032Y-9937158D01*
X10577603Y-9937158D01*
X10596651Y-9946682D01*
X10606175Y-9965730D01*
X10606175Y-10070492D01*
X10701413Y-10070492D02*
X10701413Y-9937158D01*
X10701413Y-9956206D02*
X10710937Y-9946682D01*
X10729984Y-9937158D01*
X10758556Y-9937158D01*
X10777603Y-9946682D01*
X10787127Y-9965730D01*
X10787127Y-10070492D01*
X10787127Y-9965730D02*
X10796651Y-9946682D01*
X10815699Y-9937158D01*
X10844270Y-9937158D01*
X10863318Y-9946682D01*
X10872842Y-9965730D01*
X10872842Y-10070492D01*
X11263318Y-9860968D02*
X11091889Y-10118111D01*
X11520460Y-9870492D02*
X11539508Y-9870492D01*
X11558556Y-9880016D01*
X11568080Y-9889539D01*
X11577603Y-9908587D01*
X11587127Y-9946682D01*
X11587127Y-9994301D01*
X11577603Y-10032397D01*
X11568080Y-10051444D01*
X11558556Y-10060968D01*
X11539508Y-10070492D01*
X11520460Y-10070492D01*
X11501413Y-10060968D01*
X11491889Y-10051444D01*
X11482365Y-10032397D01*
X11472841Y-9994301D01*
X11472841Y-9946682D01*
X11482365Y-9908587D01*
X11491889Y-9889539D01*
X11501413Y-9880016D01*
X11520460Y-9870492D01*
X11672841Y-10051444D02*
X11682365Y-10060968D01*
X11672841Y-10070492D01*
X11663318Y-10060968D01*
X11672841Y-10051444D01*
X11672841Y-10070492D01*
X11806175Y-9870492D02*
X11825222Y-9870492D01*
X11844270Y-9880016D01*
X11853794Y-9889539D01*
X11863318Y-9908587D01*
X11872841Y-9946682D01*
X11872841Y-9994301D01*
X11863318Y-10032397D01*
X11853794Y-10051444D01*
X11844270Y-10060968D01*
X11825222Y-10070492D01*
X11806175Y-10070492D01*
X11787127Y-10060968D01*
X11777603Y-10051444D01*
X11768080Y-10032397D01*
X11758556Y-9994301D01*
X11758556Y-9946682D01*
X11768080Y-9908587D01*
X11777603Y-9889539D01*
X11787127Y-9880016D01*
X11806175Y-9870492D01*
X12063318Y-10070492D02*
X11949032Y-10070492D01*
X12006175Y-10070492D02*
X12006175Y-9870492D01*
X11987127Y-9899063D01*
X11968080Y-9918111D01*
X11949032Y-9927635D01*
X12244270Y-9870492D02*
X12149032Y-9870492D01*
X12139508Y-9965730D01*
X12149032Y-9956206D01*
X12168080Y-9946682D01*
X12215699Y-9946682D01*
X12234746Y-9956206D01*
X12244270Y-9965730D01*
X12253794Y-9984778D01*
X12253794Y-10032397D01*
X12244270Y-10051444D01*
X12234746Y-10060968D01*
X12215699Y-10070492D01*
X12168080Y-10070492D01*
X12149032Y-10060968D01*
X12139508Y-10051444D01*
X12320460Y-9870492D02*
X12453794Y-9870492D01*
X12368080Y-10070492D01*
X12520460Y-9870492D02*
X12520460Y-9908587D01*
X12596651Y-9870492D02*
X12596651Y-9908587D01*
X12891889Y-10146682D02*
X12882365Y-10137158D01*
X12863318Y-10108587D01*
X12853794Y-10089539D01*
X12844270Y-10060968D01*
X12834746Y-10013349D01*
X12834746Y-9975254D01*
X12844270Y-9927635D01*
X12853794Y-9899063D01*
X12863318Y-9880016D01*
X12882365Y-9851444D01*
X12891889Y-9841920D01*
X12958556Y-9889539D02*
X12968080Y-9880016D01*
X12987127Y-9870492D01*
X13034746Y-9870492D01*
X13053794Y-9880016D01*
X13063318Y-9889539D01*
X13072841Y-9908587D01*
X13072841Y-9927635D01*
X13063318Y-9956206D01*
X12949032Y-10070492D01*
X13072841Y-10070492D01*
X13310937Y-10070492D02*
X13310937Y-9870492D01*
X13396651Y-10070492D02*
X13396651Y-9965730D01*
X13387127Y-9946682D01*
X13368080Y-9937158D01*
X13339508Y-9937158D01*
X13320460Y-9946682D01*
X13310937Y-9956206D01*
X13520460Y-10070492D02*
X13501413Y-10060968D01*
X13491889Y-10051444D01*
X13482365Y-10032397D01*
X13482365Y-9975254D01*
X13491889Y-9956206D01*
X13501413Y-9946682D01*
X13520460Y-9937158D01*
X13549032Y-9937158D01*
X13568080Y-9946682D01*
X13577603Y-9956206D01*
X13587127Y-9975254D01*
X13587127Y-10032397D01*
X13577603Y-10051444D01*
X13568080Y-10060968D01*
X13549032Y-10070492D01*
X13520460Y-10070492D01*
X13701413Y-10070492D02*
X13682365Y-10060968D01*
X13672841Y-10041920D01*
X13672841Y-9870492D01*
X13853794Y-10060968D02*
X13834746Y-10070492D01*
X13796651Y-10070492D01*
X13777603Y-10060968D01*
X13768080Y-10041920D01*
X13768080Y-9965730D01*
X13777603Y-9946682D01*
X13796651Y-9937158D01*
X13834746Y-9937158D01*
X13853794Y-9946682D01*
X13863318Y-9965730D01*
X13863318Y-9984778D01*
X13768080Y-10003825D01*
X13939508Y-10060968D02*
X13958556Y-10070492D01*
X13996651Y-10070492D01*
X14015699Y-10060968D01*
X14025222Y-10041920D01*
X14025222Y-10032397D01*
X14015699Y-10013349D01*
X13996651Y-10003825D01*
X13968080Y-10003825D01*
X13949032Y-9994301D01*
X13939508Y-9975254D01*
X13939508Y-9965730D01*
X13949032Y-9946682D01*
X13968080Y-9937158D01*
X13996651Y-9937158D01*
X14015699Y-9946682D01*
X14091889Y-10146682D02*
X14101413Y-10137158D01*
X14120460Y-10108587D01*
X14129984Y-10089539D01*
X14139508Y-10060968D01*
X14149032Y-10013349D01*
X14149032Y-9975254D01*
X14139508Y-9927635D01*
X14129984Y-9899063D01*
X14120460Y-9880016D01*
X14101413Y-9851444D01*
X14091889Y-9841920D01*
D13*
X9319984Y-10244016D02*
G75*
G03*
X9319984Y-10244016I-40000J0D01*
G01*
D11*
X9615699Y-10134492D02*
X9634746Y-10134492D01*
X9653794Y-10144016D01*
X9663318Y-10153539D01*
X9672842Y-10172587D01*
X9682365Y-10210682D01*
X9682365Y-10258301D01*
X9672842Y-10296397D01*
X9663318Y-10315444D01*
X9653794Y-10324968D01*
X9634746Y-10334492D01*
X9615699Y-10334492D01*
X9596651Y-10324968D01*
X9587127Y-10315444D01*
X9577603Y-10296397D01*
X9568080Y-10258301D01*
X9568080Y-10210682D01*
X9577603Y-10172587D01*
X9587127Y-10153539D01*
X9596651Y-10144016D01*
X9615699Y-10134492D01*
X9768080Y-10315444D02*
X9777603Y-10324968D01*
X9768080Y-10334492D01*
X9758556Y-10324968D01*
X9768080Y-10315444D01*
X9768080Y-10334492D01*
X9891889Y-10220206D02*
X9872842Y-10210682D01*
X9863318Y-10201158D01*
X9853794Y-10182111D01*
X9853794Y-10172587D01*
X9863318Y-10153539D01*
X9872842Y-10144016D01*
X9891889Y-10134492D01*
X9929984Y-10134492D01*
X9949032Y-10144016D01*
X9958556Y-10153539D01*
X9968080Y-10172587D01*
X9968080Y-10182111D01*
X9958556Y-10201158D01*
X9949032Y-10210682D01*
X9929984Y-10220206D01*
X9891889Y-10220206D01*
X9872842Y-10229730D01*
X9863318Y-10239254D01*
X9853794Y-10258301D01*
X9853794Y-10296397D01*
X9863318Y-10315444D01*
X9872842Y-10324968D01*
X9891889Y-10334492D01*
X9929984Y-10334492D01*
X9949032Y-10324968D01*
X9958556Y-10315444D01*
X9968080Y-10296397D01*
X9968080Y-10258301D01*
X9958556Y-10239254D01*
X9949032Y-10229730D01*
X9929984Y-10220206D01*
X10091889Y-10134492D02*
X10110937Y-10134492D01*
X10129984Y-10144016D01*
X10139508Y-10153539D01*
X10149032Y-10172587D01*
X10158556Y-10210682D01*
X10158556Y-10258301D01*
X10149032Y-10296397D01*
X10139508Y-10315444D01*
X10129984Y-10324968D01*
X10110937Y-10334492D01*
X10091889Y-10334492D01*
X10072842Y-10324968D01*
X10063318Y-10315444D01*
X10053794Y-10296397D01*
X10044270Y-10258301D01*
X10044270Y-10210682D01*
X10053794Y-10172587D01*
X10063318Y-10153539D01*
X10072842Y-10144016D01*
X10091889Y-10134492D01*
X10282365Y-10134492D02*
X10301413Y-10134492D01*
X10320461Y-10144016D01*
X10329984Y-10153539D01*
X10339508Y-10172587D01*
X10349032Y-10210682D01*
X10349032Y-10258301D01*
X10339508Y-10296397D01*
X10329984Y-10315444D01*
X10320461Y-10324968D01*
X10301413Y-10334492D01*
X10282365Y-10334492D01*
X10263318Y-10324968D01*
X10253794Y-10315444D01*
X10244270Y-10296397D01*
X10234746Y-10258301D01*
X10234746Y-10210682D01*
X10244270Y-10172587D01*
X10253794Y-10153539D01*
X10263318Y-10144016D01*
X10282365Y-10134492D01*
X10434746Y-10334492D02*
X10434746Y-10201158D01*
X10434746Y-10220206D02*
X10444270Y-10210682D01*
X10463318Y-10201158D01*
X10491889Y-10201158D01*
X10510937Y-10210682D01*
X10520461Y-10229730D01*
X10520461Y-10334492D01*
X10520461Y-10229730D02*
X10529984Y-10210682D01*
X10549032Y-10201158D01*
X10577603Y-10201158D01*
X10596651Y-10210682D01*
X10606175Y-10229730D01*
X10606175Y-10334492D01*
X10701413Y-10334492D02*
X10701413Y-10201158D01*
X10701413Y-10220206D02*
X10710937Y-10210682D01*
X10729984Y-10201158D01*
X10758556Y-10201158D01*
X10777603Y-10210682D01*
X10787127Y-10229730D01*
X10787127Y-10334492D01*
X10787127Y-10229730D02*
X10796651Y-10210682D01*
X10815699Y-10201158D01*
X10844270Y-10201158D01*
X10863318Y-10210682D01*
X10872842Y-10229730D01*
X10872842Y-10334492D01*
X11263318Y-10124968D02*
X11091889Y-10382111D01*
X11520460Y-10134492D02*
X11539508Y-10134492D01*
X11558556Y-10144016D01*
X11568080Y-10153539D01*
X11577603Y-10172587D01*
X11587127Y-10210682D01*
X11587127Y-10258301D01*
X11577603Y-10296397D01*
X11568080Y-10315444D01*
X11558556Y-10324968D01*
X11539508Y-10334492D01*
X11520460Y-10334492D01*
X11501413Y-10324968D01*
X11491889Y-10315444D01*
X11482365Y-10296397D01*
X11472841Y-10258301D01*
X11472841Y-10210682D01*
X11482365Y-10172587D01*
X11491889Y-10153539D01*
X11501413Y-10144016D01*
X11520460Y-10134492D01*
X11672841Y-10315444D02*
X11682365Y-10324968D01*
X11672841Y-10334492D01*
X11663318Y-10324968D01*
X11672841Y-10315444D01*
X11672841Y-10334492D01*
X11806175Y-10134492D02*
X11825222Y-10134492D01*
X11844270Y-10144016D01*
X11853794Y-10153539D01*
X11863318Y-10172587D01*
X11872841Y-10210682D01*
X11872841Y-10258301D01*
X11863318Y-10296397D01*
X11853794Y-10315444D01*
X11844270Y-10324968D01*
X11825222Y-10334492D01*
X11806175Y-10334492D01*
X11787127Y-10324968D01*
X11777603Y-10315444D01*
X11768080Y-10296397D01*
X11758556Y-10258301D01*
X11758556Y-10210682D01*
X11768080Y-10172587D01*
X11777603Y-10153539D01*
X11787127Y-10144016D01*
X11806175Y-10134492D01*
X11939508Y-10134492D02*
X12063318Y-10134492D01*
X11996651Y-10210682D01*
X12025222Y-10210682D01*
X12044270Y-10220206D01*
X12053794Y-10229730D01*
X12063318Y-10248778D01*
X12063318Y-10296397D01*
X12053794Y-10315444D01*
X12044270Y-10324968D01*
X12025222Y-10334492D01*
X11968080Y-10334492D01*
X11949032Y-10324968D01*
X11939508Y-10315444D01*
X12253794Y-10334492D02*
X12139508Y-10334492D01*
X12196651Y-10334492D02*
X12196651Y-10134492D01*
X12177603Y-10163063D01*
X12158556Y-10182111D01*
X12139508Y-10191635D01*
X12434746Y-10134492D02*
X12339508Y-10134492D01*
X12329984Y-10229730D01*
X12339508Y-10220206D01*
X12358556Y-10210682D01*
X12406175Y-10210682D01*
X12425222Y-10220206D01*
X12434746Y-10229730D01*
X12444270Y-10248778D01*
X12444270Y-10296397D01*
X12434746Y-10315444D01*
X12425222Y-10324968D01*
X12406175Y-10334492D01*
X12358556Y-10334492D01*
X12339508Y-10324968D01*
X12329984Y-10315444D01*
X12520460Y-10134492D02*
X12520460Y-10172587D01*
X12596651Y-10134492D02*
X12596651Y-10172587D01*
X12891889Y-10410682D02*
X12882365Y-10401158D01*
X12863318Y-10372587D01*
X12853794Y-10353539D01*
X12844270Y-10324968D01*
X12834746Y-10277349D01*
X12834746Y-10239254D01*
X12844270Y-10191635D01*
X12853794Y-10163063D01*
X12863318Y-10144016D01*
X12882365Y-10115444D01*
X12891889Y-10105920D01*
X12949032Y-10134492D02*
X13072841Y-10134492D01*
X13006175Y-10210682D01*
X13034746Y-10210682D01*
X13053794Y-10220206D01*
X13063318Y-10229730D01*
X13072841Y-10248778D01*
X13072841Y-10296397D01*
X13063318Y-10315444D01*
X13053794Y-10324968D01*
X13034746Y-10334492D01*
X12977603Y-10334492D01*
X12958556Y-10324968D01*
X12949032Y-10315444D01*
X13196651Y-10134492D02*
X13215699Y-10134492D01*
X13234746Y-10144016D01*
X13244270Y-10153539D01*
X13253794Y-10172587D01*
X13263318Y-10210682D01*
X13263318Y-10258301D01*
X13253794Y-10296397D01*
X13244270Y-10315444D01*
X13234746Y-10324968D01*
X13215699Y-10334492D01*
X13196651Y-10334492D01*
X13177603Y-10324968D01*
X13168080Y-10315444D01*
X13158556Y-10296397D01*
X13149032Y-10258301D01*
X13149032Y-10210682D01*
X13158556Y-10172587D01*
X13168080Y-10153539D01*
X13177603Y-10144016D01*
X13196651Y-10134492D01*
X13501413Y-10334492D02*
X13501413Y-10134492D01*
X13587127Y-10334492D02*
X13587127Y-10229730D01*
X13577603Y-10210682D01*
X13558556Y-10201158D01*
X13529984Y-10201158D01*
X13510937Y-10210682D01*
X13501413Y-10220206D01*
X13710937Y-10334492D02*
X13691889Y-10324968D01*
X13682365Y-10315444D01*
X13672841Y-10296397D01*
X13672841Y-10239254D01*
X13682365Y-10220206D01*
X13691889Y-10210682D01*
X13710937Y-10201158D01*
X13739508Y-10201158D01*
X13758556Y-10210682D01*
X13768080Y-10220206D01*
X13777603Y-10239254D01*
X13777603Y-10296397D01*
X13768080Y-10315444D01*
X13758556Y-10324968D01*
X13739508Y-10334492D01*
X13710937Y-10334492D01*
X13891889Y-10334492D02*
X13872841Y-10324968D01*
X13863318Y-10305920D01*
X13863318Y-10134492D01*
X14044270Y-10324968D02*
X14025222Y-10334492D01*
X13987127Y-10334492D01*
X13968080Y-10324968D01*
X13958556Y-10305920D01*
X13958556Y-10229730D01*
X13968080Y-10210682D01*
X13987127Y-10201158D01*
X14025222Y-10201158D01*
X14044270Y-10210682D01*
X14053794Y-10229730D01*
X14053794Y-10248778D01*
X13958556Y-10267825D01*
X14129984Y-10324968D02*
X14149032Y-10334492D01*
X14187127Y-10334492D01*
X14206175Y-10324968D01*
X14215699Y-10305920D01*
X14215699Y-10296397D01*
X14206175Y-10277349D01*
X14187127Y-10267825D01*
X14158556Y-10267825D01*
X14139508Y-10258301D01*
X14129984Y-10239254D01*
X14129984Y-10229730D01*
X14139508Y-10210682D01*
X14158556Y-10201158D01*
X14187127Y-10201158D01*
X14206175Y-10210682D01*
X14282365Y-10410682D02*
X14291889Y-10401158D01*
X14310937Y-10372587D01*
X14320460Y-10353539D01*
X14329984Y-10324968D01*
X14339508Y-10277349D01*
X14339508Y-10239254D01*
X14329984Y-10191635D01*
X14320460Y-10163063D01*
X14310937Y-10144016D01*
X14291889Y-10115444D01*
X14282365Y-10105920D01*
D14*
X9274984Y-10463016D02*
X9274984Y-10553016D01*
X9229984Y-10508016D02*
X9319984Y-10508016D01*
D11*
X9615699Y-10398492D02*
X9634746Y-10398492D01*
X9653794Y-10408016D01*
X9663318Y-10417539D01*
X9672842Y-10436587D01*
X9682365Y-10474682D01*
X9682365Y-10522301D01*
X9672842Y-10560397D01*
X9663318Y-10579444D01*
X9653794Y-10588968D01*
X9634746Y-10598492D01*
X9615699Y-10598492D01*
X9596651Y-10588968D01*
X9587127Y-10579444D01*
X9577603Y-10560397D01*
X9568080Y-10522301D01*
X9568080Y-10474682D01*
X9577603Y-10436587D01*
X9587127Y-10417539D01*
X9596651Y-10408016D01*
X9615699Y-10398492D01*
X9768080Y-10579444D02*
X9777603Y-10588968D01*
X9768080Y-10598492D01*
X9758556Y-10588968D01*
X9768080Y-10579444D01*
X9768080Y-10598492D01*
X9872842Y-10598492D02*
X9910937Y-10598492D01*
X9929984Y-10588968D01*
X9939508Y-10579444D01*
X9958556Y-10550873D01*
X9968080Y-10512778D01*
X9968080Y-10436587D01*
X9958556Y-10417539D01*
X9949032Y-10408016D01*
X9929984Y-10398492D01*
X9891889Y-10398492D01*
X9872842Y-10408016D01*
X9863318Y-10417539D01*
X9853794Y-10436587D01*
X9853794Y-10484206D01*
X9863318Y-10503254D01*
X9872842Y-10512778D01*
X9891889Y-10522301D01*
X9929984Y-10522301D01*
X9949032Y-10512778D01*
X9958556Y-10503254D01*
X9968080Y-10484206D01*
X10091889Y-10398492D02*
X10110937Y-10398492D01*
X10129984Y-10408016D01*
X10139508Y-10417539D01*
X10149032Y-10436587D01*
X10158556Y-10474682D01*
X10158556Y-10522301D01*
X10149032Y-10560397D01*
X10139508Y-10579444D01*
X10129984Y-10588968D01*
X10110937Y-10598492D01*
X10091889Y-10598492D01*
X10072842Y-10588968D01*
X10063318Y-10579444D01*
X10053794Y-10560397D01*
X10044270Y-10522301D01*
X10044270Y-10474682D01*
X10053794Y-10436587D01*
X10063318Y-10417539D01*
X10072842Y-10408016D01*
X10091889Y-10398492D01*
X10282365Y-10398492D02*
X10301413Y-10398492D01*
X10320461Y-10408016D01*
X10329984Y-10417539D01*
X10339508Y-10436587D01*
X10349032Y-10474682D01*
X10349032Y-10522301D01*
X10339508Y-10560397D01*
X10329984Y-10579444D01*
X10320461Y-10588968D01*
X10301413Y-10598492D01*
X10282365Y-10598492D01*
X10263318Y-10588968D01*
X10253794Y-10579444D01*
X10244270Y-10560397D01*
X10234746Y-10522301D01*
X10234746Y-10474682D01*
X10244270Y-10436587D01*
X10253794Y-10417539D01*
X10263318Y-10408016D01*
X10282365Y-10398492D01*
X10434746Y-10598492D02*
X10434746Y-10465158D01*
X10434746Y-10484206D02*
X10444270Y-10474682D01*
X10463318Y-10465158D01*
X10491889Y-10465158D01*
X10510937Y-10474682D01*
X10520461Y-10493730D01*
X10520461Y-10598492D01*
X10520461Y-10493730D02*
X10529984Y-10474682D01*
X10549032Y-10465158D01*
X10577603Y-10465158D01*
X10596651Y-10474682D01*
X10606175Y-10493730D01*
X10606175Y-10598492D01*
X10701413Y-10598492D02*
X10701413Y-10465158D01*
X10701413Y-10484206D02*
X10710937Y-10474682D01*
X10729984Y-10465158D01*
X10758556Y-10465158D01*
X10777603Y-10474682D01*
X10787127Y-10493730D01*
X10787127Y-10598492D01*
X10787127Y-10493730D02*
X10796651Y-10474682D01*
X10815699Y-10465158D01*
X10844270Y-10465158D01*
X10863318Y-10474682D01*
X10872842Y-10493730D01*
X10872842Y-10598492D01*
X11263318Y-10388968D02*
X11091889Y-10646111D01*
X11520460Y-10398492D02*
X11539508Y-10398492D01*
X11558556Y-10408016D01*
X11568080Y-10417539D01*
X11577603Y-10436587D01*
X11587127Y-10474682D01*
X11587127Y-10522301D01*
X11577603Y-10560397D01*
X11568080Y-10579444D01*
X11558556Y-10588968D01*
X11539508Y-10598492D01*
X11520460Y-10598492D01*
X11501413Y-10588968D01*
X11491889Y-10579444D01*
X11482365Y-10560397D01*
X11472841Y-10522301D01*
X11472841Y-10474682D01*
X11482365Y-10436587D01*
X11491889Y-10417539D01*
X11501413Y-10408016D01*
X11520460Y-10398492D01*
X11672841Y-10579444D02*
X11682365Y-10588968D01*
X11672841Y-10598492D01*
X11663318Y-10588968D01*
X11672841Y-10579444D01*
X11672841Y-10598492D01*
X11806175Y-10398492D02*
X11825222Y-10398492D01*
X11844270Y-10408016D01*
X11853794Y-10417539D01*
X11863318Y-10436587D01*
X11872841Y-10474682D01*
X11872841Y-10522301D01*
X11863318Y-10560397D01*
X11853794Y-10579444D01*
X11844270Y-10588968D01*
X11825222Y-10598492D01*
X11806175Y-10598492D01*
X11787127Y-10588968D01*
X11777603Y-10579444D01*
X11768080Y-10560397D01*
X11758556Y-10522301D01*
X11758556Y-10474682D01*
X11768080Y-10436587D01*
X11777603Y-10417539D01*
X11787127Y-10408016D01*
X11806175Y-10398492D01*
X11939508Y-10398492D02*
X12063318Y-10398492D01*
X11996651Y-10474682D01*
X12025222Y-10474682D01*
X12044270Y-10484206D01*
X12053794Y-10493730D01*
X12063318Y-10512778D01*
X12063318Y-10560397D01*
X12053794Y-10579444D01*
X12044270Y-10588968D01*
X12025222Y-10598492D01*
X11968080Y-10598492D01*
X11949032Y-10588968D01*
X11939508Y-10579444D01*
X12244270Y-10398492D02*
X12149032Y-10398492D01*
X12139508Y-10493730D01*
X12149032Y-10484206D01*
X12168080Y-10474682D01*
X12215699Y-10474682D01*
X12234746Y-10484206D01*
X12244270Y-10493730D01*
X12253794Y-10512778D01*
X12253794Y-10560397D01*
X12244270Y-10579444D01*
X12234746Y-10588968D01*
X12215699Y-10598492D01*
X12168080Y-10598492D01*
X12149032Y-10588968D01*
X12139508Y-10579444D01*
X12425222Y-10465158D02*
X12425222Y-10598492D01*
X12377603Y-10388968D02*
X12329984Y-10531825D01*
X12453794Y-10531825D01*
X12520460Y-10398492D02*
X12520460Y-10436587D01*
X12596651Y-10398492D02*
X12596651Y-10436587D01*
X12891889Y-10674682D02*
X12882365Y-10665158D01*
X12863318Y-10636587D01*
X12853794Y-10617539D01*
X12844270Y-10588968D01*
X12834746Y-10541349D01*
X12834746Y-10503254D01*
X12844270Y-10455635D01*
X12853794Y-10427063D01*
X12863318Y-10408016D01*
X12882365Y-10379444D01*
X12891889Y-10369920D01*
X12958556Y-10417539D02*
X12968080Y-10408016D01*
X12987127Y-10398492D01*
X13034746Y-10398492D01*
X13053794Y-10408016D01*
X13063318Y-10417539D01*
X13072841Y-10436587D01*
X13072841Y-10455635D01*
X13063318Y-10484206D01*
X12949032Y-10598492D01*
X13072841Y-10598492D01*
X13310937Y-10598492D02*
X13310937Y-10398492D01*
X13396651Y-10598492D02*
X13396651Y-10493730D01*
X13387127Y-10474682D01*
X13368080Y-10465158D01*
X13339508Y-10465158D01*
X13320460Y-10474682D01*
X13310937Y-10484206D01*
X13520460Y-10598492D02*
X13501413Y-10588968D01*
X13491889Y-10579444D01*
X13482365Y-10560397D01*
X13482365Y-10503254D01*
X13491889Y-10484206D01*
X13501413Y-10474682D01*
X13520460Y-10465158D01*
X13549032Y-10465158D01*
X13568080Y-10474682D01*
X13577603Y-10484206D01*
X13587127Y-10503254D01*
X13587127Y-10560397D01*
X13577603Y-10579444D01*
X13568080Y-10588968D01*
X13549032Y-10598492D01*
X13520460Y-10598492D01*
X13701413Y-10598492D02*
X13682365Y-10588968D01*
X13672841Y-10569920D01*
X13672841Y-10398492D01*
X13853794Y-10588968D02*
X13834746Y-10598492D01*
X13796651Y-10598492D01*
X13777603Y-10588968D01*
X13768080Y-10569920D01*
X13768080Y-10493730D01*
X13777603Y-10474682D01*
X13796651Y-10465158D01*
X13834746Y-10465158D01*
X13853794Y-10474682D01*
X13863318Y-10493730D01*
X13863318Y-10512778D01*
X13768080Y-10531825D01*
X13939508Y-10588968D02*
X13958556Y-10598492D01*
X13996651Y-10598492D01*
X14015699Y-10588968D01*
X14025222Y-10569920D01*
X14025222Y-10560397D01*
X14015699Y-10541349D01*
X13996651Y-10531825D01*
X13968080Y-10531825D01*
X13949032Y-10522301D01*
X13939508Y-10503254D01*
X13939508Y-10493730D01*
X13949032Y-10474682D01*
X13968080Y-10465158D01*
X13996651Y-10465158D01*
X14015699Y-10474682D01*
X14091889Y-10674682D02*
X14101413Y-10665158D01*
X14120460Y-10636587D01*
X14129984Y-10617539D01*
X14139508Y-10588968D01*
X14149032Y-10541349D01*
X14149032Y-10503254D01*
X14139508Y-10455635D01*
X14129984Y-10427063D01*
X14120460Y-10408016D01*
X14101413Y-10379444D01*
X14091889Y-10369920D01*
D15*
X9303876Y-10810907D02*
X9303876Y-10733124D01*
X9226093Y-10733124D01*
X9226093Y-10810907D01*
X9303876Y-10810907D01*
D11*
X9682365Y-10862492D02*
X9568080Y-10862492D01*
X9625222Y-10862492D02*
X9625222Y-10662492D01*
X9606175Y-10691063D01*
X9587127Y-10710111D01*
X9568080Y-10719635D01*
X9768080Y-10843444D02*
X9777603Y-10852968D01*
X9768080Y-10862492D01*
X9758556Y-10852968D01*
X9768080Y-10843444D01*
X9768080Y-10862492D01*
X9968080Y-10862492D02*
X9853794Y-10862492D01*
X9910937Y-10862492D02*
X9910937Y-10662492D01*
X9891889Y-10691063D01*
X9872842Y-10710111D01*
X9853794Y-10719635D01*
X10091889Y-10662492D02*
X10110937Y-10662492D01*
X10129984Y-10672016D01*
X10139508Y-10681539D01*
X10149032Y-10700587D01*
X10158556Y-10738682D01*
X10158556Y-10786301D01*
X10149032Y-10824397D01*
X10139508Y-10843444D01*
X10129984Y-10852968D01*
X10110937Y-10862492D01*
X10091889Y-10862492D01*
X10072842Y-10852968D01*
X10063318Y-10843444D01*
X10053794Y-10824397D01*
X10044270Y-10786301D01*
X10044270Y-10738682D01*
X10053794Y-10700587D01*
X10063318Y-10681539D01*
X10072842Y-10672016D01*
X10091889Y-10662492D01*
X10282365Y-10662492D02*
X10301413Y-10662492D01*
X10320461Y-10672016D01*
X10329984Y-10681539D01*
X10339508Y-10700587D01*
X10349032Y-10738682D01*
X10349032Y-10786301D01*
X10339508Y-10824397D01*
X10329984Y-10843444D01*
X10320461Y-10852968D01*
X10301413Y-10862492D01*
X10282365Y-10862492D01*
X10263318Y-10852968D01*
X10253794Y-10843444D01*
X10244270Y-10824397D01*
X10234746Y-10786301D01*
X10234746Y-10738682D01*
X10244270Y-10700587D01*
X10253794Y-10681539D01*
X10263318Y-10672016D01*
X10282365Y-10662492D01*
X10434746Y-10862492D02*
X10434746Y-10729158D01*
X10434746Y-10748206D02*
X10444270Y-10738682D01*
X10463318Y-10729158D01*
X10491889Y-10729158D01*
X10510937Y-10738682D01*
X10520461Y-10757730D01*
X10520461Y-10862492D01*
X10520461Y-10757730D02*
X10529984Y-10738682D01*
X10549032Y-10729158D01*
X10577603Y-10729158D01*
X10596651Y-10738682D01*
X10606175Y-10757730D01*
X10606175Y-10862492D01*
X10701413Y-10862492D02*
X10701413Y-10729158D01*
X10701413Y-10748206D02*
X10710937Y-10738682D01*
X10729984Y-10729158D01*
X10758556Y-10729158D01*
X10777603Y-10738682D01*
X10787127Y-10757730D01*
X10787127Y-10862492D01*
X10787127Y-10757730D02*
X10796651Y-10738682D01*
X10815699Y-10729158D01*
X10844270Y-10729158D01*
X10863318Y-10738682D01*
X10872842Y-10757730D01*
X10872842Y-10862492D01*
X11263318Y-10652968D02*
X11091889Y-10910111D01*
X11520460Y-10662492D02*
X11539508Y-10662492D01*
X11558556Y-10672016D01*
X11568080Y-10681539D01*
X11577603Y-10700587D01*
X11587127Y-10738682D01*
X11587127Y-10786301D01*
X11577603Y-10824397D01*
X11568080Y-10843444D01*
X11558556Y-10852968D01*
X11539508Y-10862492D01*
X11520460Y-10862492D01*
X11501413Y-10852968D01*
X11491889Y-10843444D01*
X11482365Y-10824397D01*
X11472841Y-10786301D01*
X11472841Y-10738682D01*
X11482365Y-10700587D01*
X11491889Y-10681539D01*
X11501413Y-10672016D01*
X11520460Y-10662492D01*
X11672841Y-10843444D02*
X11682365Y-10852968D01*
X11672841Y-10862492D01*
X11663318Y-10852968D01*
X11672841Y-10843444D01*
X11672841Y-10862492D01*
X11806175Y-10662492D02*
X11825222Y-10662492D01*
X11844270Y-10672016D01*
X11853794Y-10681539D01*
X11863318Y-10700587D01*
X11872841Y-10738682D01*
X11872841Y-10786301D01*
X11863318Y-10824397D01*
X11853794Y-10843444D01*
X11844270Y-10852968D01*
X11825222Y-10862492D01*
X11806175Y-10862492D01*
X11787127Y-10852968D01*
X11777603Y-10843444D01*
X11768080Y-10824397D01*
X11758556Y-10786301D01*
X11758556Y-10738682D01*
X11768080Y-10700587D01*
X11777603Y-10681539D01*
X11787127Y-10672016D01*
X11806175Y-10662492D01*
X12044270Y-10729158D02*
X12044270Y-10862492D01*
X11996651Y-10652968D02*
X11949032Y-10795825D01*
X12072841Y-10795825D01*
X12129984Y-10662492D02*
X12253794Y-10662492D01*
X12187127Y-10738682D01*
X12215699Y-10738682D01*
X12234746Y-10748206D01*
X12244270Y-10757730D01*
X12253794Y-10776778D01*
X12253794Y-10824397D01*
X12244270Y-10843444D01*
X12234746Y-10852968D01*
X12215699Y-10862492D01*
X12158556Y-10862492D01*
X12139508Y-10852968D01*
X12129984Y-10843444D01*
X12320460Y-10662492D02*
X12444270Y-10662492D01*
X12377603Y-10738682D01*
X12406175Y-10738682D01*
X12425222Y-10748206D01*
X12434746Y-10757730D01*
X12444270Y-10776778D01*
X12444270Y-10824397D01*
X12434746Y-10843444D01*
X12425222Y-10852968D01*
X12406175Y-10862492D01*
X12349032Y-10862492D01*
X12329984Y-10852968D01*
X12320460Y-10843444D01*
X12520460Y-10662492D02*
X12520460Y-10700587D01*
X12596651Y-10662492D02*
X12596651Y-10700587D01*
X12891889Y-10938682D02*
X12882365Y-10929158D01*
X12863318Y-10900587D01*
X12853794Y-10881539D01*
X12844270Y-10852968D01*
X12834746Y-10805349D01*
X12834746Y-10767254D01*
X12844270Y-10719635D01*
X12853794Y-10691063D01*
X12863318Y-10672016D01*
X12882365Y-10643444D01*
X12891889Y-10633920D01*
X13072841Y-10862492D02*
X12958556Y-10862492D01*
X13015699Y-10862492D02*
X13015699Y-10662492D01*
X12996651Y-10691063D01*
X12977603Y-10710111D01*
X12958556Y-10719635D01*
X13253794Y-10662492D02*
X13158556Y-10662492D01*
X13149032Y-10757730D01*
X13158556Y-10748206D01*
X13177603Y-10738682D01*
X13225222Y-10738682D01*
X13244270Y-10748206D01*
X13253794Y-10757730D01*
X13263318Y-10776778D01*
X13263318Y-10824397D01*
X13253794Y-10843444D01*
X13244270Y-10852968D01*
X13225222Y-10862492D01*
X13177603Y-10862492D01*
X13158556Y-10852968D01*
X13149032Y-10843444D01*
X13501413Y-10862492D02*
X13501413Y-10662492D01*
X13587127Y-10862492D02*
X13587127Y-10757730D01*
X13577603Y-10738682D01*
X13558556Y-10729158D01*
X13529984Y-10729158D01*
X13510937Y-10738682D01*
X13501413Y-10748206D01*
X13710937Y-10862492D02*
X13691889Y-10852968D01*
X13682365Y-10843444D01*
X13672841Y-10824397D01*
X13672841Y-10767254D01*
X13682365Y-10748206D01*
X13691889Y-10738682D01*
X13710937Y-10729158D01*
X13739508Y-10729158D01*
X13758556Y-10738682D01*
X13768080Y-10748206D01*
X13777603Y-10767254D01*
X13777603Y-10824397D01*
X13768080Y-10843444D01*
X13758556Y-10852968D01*
X13739508Y-10862492D01*
X13710937Y-10862492D01*
X13891889Y-10862492D02*
X13872841Y-10852968D01*
X13863318Y-10833920D01*
X13863318Y-10662492D01*
X14044270Y-10852968D02*
X14025222Y-10862492D01*
X13987127Y-10862492D01*
X13968080Y-10852968D01*
X13958556Y-10833920D01*
X13958556Y-10757730D01*
X13968080Y-10738682D01*
X13987127Y-10729158D01*
X14025222Y-10729158D01*
X14044270Y-10738682D01*
X14053794Y-10757730D01*
X14053794Y-10776778D01*
X13958556Y-10795825D01*
X14129984Y-10852968D02*
X14149032Y-10862492D01*
X14187127Y-10862492D01*
X14206175Y-10852968D01*
X14215699Y-10833920D01*
X14215699Y-10824397D01*
X14206175Y-10805349D01*
X14187127Y-10795825D01*
X14158556Y-10795825D01*
X14139508Y-10786301D01*
X14129984Y-10767254D01*
X14129984Y-10757730D01*
X14139508Y-10738682D01*
X14158556Y-10729158D01*
X14187127Y-10729158D01*
X14206175Y-10738682D01*
X14282365Y-10938682D02*
X14291889Y-10929158D01*
X14310937Y-10900587D01*
X14320460Y-10881539D01*
X14329984Y-10852968D01*
X14339508Y-10805349D01*
X14339508Y-10767254D01*
X14329984Y-10719635D01*
X14320460Y-10691063D01*
X14310937Y-10672016D01*
X14291889Y-10643444D01*
X14282365Y-10633920D01*
M02*
