M48
; DRILL file {KiCad (6.0.2-0)} date Monday, July 15, 2024 at 10:14:39 PM
; FORMAT={-:-/ absolute / metric / decimal}
; #@! TF.CreationDate,2024-07-15T22:14:39-04:00
; #@! TF.GenerationSoftware,Kicad,Pcbnew,(6.0.2-0)
; #@! TF.FileFunction,Plated,1,2,PTH
FMAT,2
METRIC
; #@! TA.AperFunction,Plated,PTH,ViaDrill
T1C0.400
; #@! TA.AperFunction,Plated,PTH,ComponentDrill
T2C0.600
; #@! TA.AperFunction,Plated,PTH,ComponentDrill
T3C0.800
; #@! TA.AperFunction,Plated,PTH,ComponentDrill
T4C0.900
%
G90
G05
T1
X118.25Y-61.11
X118.269Y-46.474
T2
X86.185Y-70.428
X86.5Y-49.2
X86.5Y-52.8
X86.5Y-56.9
X86.5Y-60.5
X86.5Y-64.1
X89.785Y-70.428
X92.2Y-43.5
X93.385Y-70.428
X95.8Y-43.5
X97.567Y-70.5
X100.2Y-43.5
X101.167Y-70.5
X103.8Y-43.5
X104.767Y-70.5
X108.899Y-70.525
X112.499Y-70.525
X116.099Y-70.525
X120.9Y-70.5
X124.5Y-70.5
X124.7Y-43.0
X128.1Y-70.5
X128.3Y-43.0
T3
X89.75Y-66.0
X91.493Y-51.248
X91.493Y-61.408
X92.25Y-66.0
X95.2Y-48.224
X95.2Y-50.764
X95.2Y-53.304
X95.2Y-55.844
X95.2Y-58.384
X95.2Y-60.924
X95.2Y-63.464
X95.2Y-66.004
X102.82Y-48.224
X102.82Y-50.764
X102.82Y-53.304
X102.82Y-55.844
X102.82Y-58.384
X102.82Y-60.924
X102.82Y-63.464
X102.82Y-66.004
X107.324Y-51.518
X107.324Y-61.678
X107.926Y-48.382
X108.013Y-66.128
X110.426Y-48.382
X110.513Y-66.128
X111.5Y-51.5
X111.5Y-61.66
X113.0Y-43.0
X115.25Y-48.399
X115.25Y-50.939
X115.25Y-53.479
X115.25Y-56.019
X115.25Y-58.559
X115.25Y-61.099
X115.25Y-63.639
X115.25Y-66.179
X115.5Y-43.0
X118.25Y-43.0
X120.75Y-43.0
X122.87Y-48.399
X122.87Y-50.939
X122.87Y-53.479
X122.87Y-56.019
X122.87Y-58.559
X122.87Y-61.099
X122.87Y-63.639
X122.87Y-66.179
X126.25Y-48.0
X126.25Y-66.131
X127.5Y-51.42
X127.5Y-61.58
X128.75Y-48.0
X128.75Y-66.131
T4
X86.225Y-44.5
X88.765Y-44.5
T0
M30
