%TF.GenerationSoftware,KiCad,Pcbnew,(6.0.2-0)*%
%TF.CreationDate,2024-07-15T22:14:45-04:00*%
%TF.ProjectId,Phase Locked Loop,50686173-6520-44c6-9f63-6b6564204c6f,rev?*%
%TF.SameCoordinates,Original*%
%TF.FileFunction,Copper,L1,Top*%
%TF.FilePolarity,Positive*%
%FSLAX46Y46*%
G04 Gerber Fmt 4.6, Leading zero omitted, Abs format (unit mm)*
G04 Created by KiCad (PCBNEW (6.0.2-0)) date 2024-07-15 22:14:45*
%MOMM*%
%LPD*%
G01*
G04 APERTURE LIST*
G04 Aperture macros list*
%AMRoundRect*
0 Rectangle with rounded corners*
0 $1 Rounding radius*
0 $2 $3 $4 $5 $6 $7 $8 $9 X,Y pos of 4 corners*
0 Add a 4 corners polygon primitive as box body*
4,1,4,$2,$3,$4,$5,$6,$7,$8,$9,$2,$3,0*
0 Add four circle primitives for the rounded corners*
1,1,$1+$1,$2,$3*
1,1,$1+$1,$4,$5*
1,1,$1+$1,$6,$7*
1,1,$1+$1,$8,$9*
0 Add four rect primitives between the rounded corners*
20,1,$1+$1,$2,$3,$4,$5,0*
20,1,$1+$1,$4,$5,$6,$7,0*
20,1,$1+$1,$6,$7,$8,$9,0*
20,1,$1+$1,$8,$9,$2,$3,0*%
G04 Aperture macros list end*
%TA.AperFunction,ComponentPad*%
%ADD10RoundRect,0.250000X-0.550000X0.550000X-0.550000X-0.550000X0.550000X-0.550000X0.550000X0.550000X0*%
%TD*%
%TA.AperFunction,ComponentPad*%
%ADD11C,1.600000*%
%TD*%
%TA.AperFunction,ComponentPad*%
%ADD12O,1.600000X1.600000*%
%TD*%
%TA.AperFunction,ComponentPad*%
%ADD13RoundRect,0.250000X0.550000X0.550000X-0.550000X0.550000X-0.550000X-0.550000X0.550000X-0.550000X0*%
%TD*%
%TA.AperFunction,ComponentPad*%
%ADD14R,1.600000X1.600000*%
%TD*%
%TA.AperFunction,ComponentPad*%
%ADD15RoundRect,0.250000X-0.550000X-0.550000X0.550000X-0.550000X0.550000X0.550000X-0.550000X0.550000X0*%
%TD*%
%TA.AperFunction,ComponentPad*%
%ADD16R,1.800000X1.800000*%
%TD*%
%TA.AperFunction,ComponentPad*%
%ADD17C,1.800000*%
%TD*%
%TA.AperFunction,ViaPad*%
%ADD18C,0.800000*%
%TD*%
%TA.AperFunction,Conductor*%
%ADD19C,0.250000*%
%TD*%
G04 APERTURE END LIST*
D10*
%TO.P,SW1,1,A*%
%TO.N,Net-(SW1-Pad1)*%
X86500000Y-56900000D03*
D11*
%TO.P,SW1,2,B*%
%TO.N,Net-(SW1-Pad2)*%
X86500000Y-60500000D03*
%TO.P,SW1,3,C*%
%TO.N,Net-(SW1-Pad3)*%
X86500000Y-64100000D03*
%TD*%
%TO.P,C7,1*%
%TO.N,Net-(C7-Pad1)*%
X110425854Y-48381619D03*
%TO.P,C7,2*%
%TO.N,Net-(C7-Pad2)*%
X107925854Y-48381619D03*
%TD*%
%TO.P,R4,1*%
%TO.N,Net-(D1-Pad1)*%
X91492552Y-51247901D03*
D12*
%TO.P,R4,2*%
%TO.N,GND*%
X91492552Y-61407901D03*
%TD*%
D11*
%TO.P,C5,1*%
%TO.N,GND*%
X108013227Y-66127946D03*
%TO.P,C5,2*%
%TO.N,Net-(C5-Pad2)*%
X110513227Y-66127946D03*
%TD*%
D13*
%TO.P,J1,S*%
%TO.N,GND*%
X128300000Y-43000000D03*
D11*
%TO.P,J1,T*%
%TO.N,Net-(C1-Pad2)*%
X124700000Y-43000000D03*
%TD*%
%TO.P,C6,1*%
%TO.N,Net-(C6-Pad1)*%
X89750000Y-66000000D03*
%TO.P,C6,2*%
%TO.N,Net-(C4-Pad1)*%
X92250000Y-66000000D03*
%TD*%
%TO.P,C4,1*%
%TO.N,Net-(C4-Pad1)*%
X126250000Y-66131476D03*
%TO.P,C4,2*%
%TO.N,Net-(C3-Pad1)*%
X128750000Y-66131476D03*
%TD*%
D13*
%TO.P,TRKSPD1,1,1*%
%TO.N,unconnected-(TRKSPD1-Pad1)*%
X93385216Y-70427824D03*
D11*
%TO.P,TRKSPD1,2,2*%
%TO.N,Net-(R2-Pad1)*%
X89785216Y-70427824D03*
%TO.P,TRKSPD1,3,3*%
%TO.N,Net-(SW1-Pad2)*%
X86185216Y-70427824D03*
%TD*%
%TO.P,C1,1*%
%TO.N,Net-(C1-Pad1)*%
X113000000Y-43000000D03*
%TO.P,C1,2*%
%TO.N,Net-(C1-Pad2)*%
X115500000Y-43000000D03*
%TD*%
D14*
%TO.P,U1,1,VCC*%
%TO.N,GND*%
X115249523Y-48398835D03*
D12*
%TO.P,U1,2*%
%TO.N,N/C*%
X115249523Y-50938835D03*
%TO.P,U1,3*%
X115249523Y-53478835D03*
%TO.P,U1,4*%
X115249523Y-56018835D03*
%TO.P,U1,5*%
X115249523Y-58558835D03*
%TO.P,U1,6*%
%TO.N,Net-(C2-Pad1)*%
X115249523Y-61098835D03*
%TO.P,U1,7*%
%TO.N,Net-(C1-Pad1)*%
X115249523Y-63638835D03*
%TO.P,U1,8,VSS*%
%TO.N,+9V*%
X115249523Y-66178835D03*
%TO.P,U1,9*%
%TO.N,N/C*%
X122869523Y-66178835D03*
%TO.P,U1,10*%
X122869523Y-63638835D03*
%TO.P,U1,11*%
%TO.N,Net-(C3-Pad1)*%
X122869523Y-61098835D03*
%TO.P,U1,12*%
%TO.N,Net-(C4-Pad1)*%
X122869523Y-58558835D03*
%TO.P,U1,13*%
%TO.N,N/C*%
X122869523Y-56018835D03*
%TO.P,U1,14*%
X122869523Y-53478835D03*
%TO.P,U1,15*%
X122869523Y-50938835D03*
%TO.P,U1,16*%
X122869523Y-48398835D03*
%TD*%
D15*
%TO.P,J3,1*%
%TO.N,GND*%
X92200000Y-43500000D03*
D11*
%TO.P,J3,2*%
%TO.N,+9V*%
X95800000Y-43500000D03*
%TD*%
D15*
%TO.P,SW2,1,A*%
%TO.N,+9V*%
X100200000Y-43500000D03*
D11*
%TO.P,SW2,2,B*%
%TO.N,/PWR*%
X103800000Y-43500000D03*
%TD*%
D13*
%TO.P,GAIN1,1,1*%
%TO.N,unconnected-(GAIN1-Pad1)*%
X128100000Y-70500000D03*
D11*
%TO.P,GAIN1,2,2*%
%TO.N,Net-(C1-Pad1)*%
X124500000Y-70500000D03*
%TO.P,GAIN1,3,3*%
%TO.N,Net-(C2-Pad1)*%
X120900000Y-70500000D03*
%TD*%
D13*
%TO.P,MAXFREQ1,1,1*%
%TO.N,unconnected-(MAXFREQ1-Pad1)*%
X104766710Y-70500000D03*
D11*
%TO.P,MAXFREQ1,2,2*%
%TO.N,Net-(MAXFREQ1-Pad2)*%
X101166710Y-70500000D03*
%TO.P,MAXFREQ1,3,3*%
%TO.N,GND*%
X97566710Y-70500000D03*
%TD*%
%TO.P,C2,1*%
%TO.N,Net-(C2-Pad1)*%
X118250000Y-43000000D03*
%TO.P,C2,2*%
%TO.N,Net-(C1-Pad1)*%
X120750000Y-43000000D03*
%TD*%
%TO.P,R2,1*%
%TO.N,Net-(R2-Pad1)*%
X111500000Y-51500000D03*
D12*
%TO.P,R2,2*%
%TO.N,Net-(C5-Pad2)*%
X111500000Y-61660000D03*
%TD*%
D10*
%TO.P,J2,S*%
%TO.N,GND*%
X86500000Y-49200000D03*
D11*
%TO.P,J2,T*%
%TO.N,Net-(J2-PadT)*%
X86500000Y-52800000D03*
%TD*%
%TO.P,R1,1*%
%TO.N,Net-(C4-Pad1)*%
X127500000Y-51420000D03*
D12*
%TO.P,R1,2*%
%TO.N,Net-(C3-Pad1)*%
X127500000Y-61580000D03*
%TD*%
D14*
%TO.P,U2,1,PCP*%
%TO.N,unconnected-(U2-Pad1)*%
X95200000Y-48224469D03*
D12*
%TO.P,U2,2,PC1*%
%TO.N,Net-(SW1-Pad3)*%
X95200000Y-50764469D03*
%TO.P,U2,3,RefIn*%
%TO.N,Net-(J2-PadT)*%
X95200000Y-53304469D03*
%TO.P,U2,4,FOUT*%
X95200000Y-55844469D03*
%TO.P,U2,5,Inh*%
%TO.N,GND*%
X95200000Y-58384469D03*
%TO.P,U2,6,C1*%
%TO.N,Net-(C7-Pad2)*%
X95200000Y-60924469D03*
%TO.P,U2,7,C2*%
%TO.N,Net-(C7-Pad1)*%
X95200000Y-63464469D03*
%TO.P,U2,8,VSS*%
%TO.N,GND*%
X95200000Y-66004469D03*
%TO.P,U2,9,VCOin*%
%TO.N,Net-(R2-Pad1)*%
X102820000Y-66004469D03*
%TO.P,U2,10,SFout*%
%TO.N,unconnected-(U2-Pad10)*%
X102820000Y-63464469D03*
%TO.P,U2,11,R1*%
%TO.N,Net-(MAXFREQ1-Pad2)*%
X102820000Y-60924469D03*
%TO.P,U2,12,R2*%
%TO.N,Net-(MINFREQ1-Pad2)*%
X102820000Y-58384469D03*
%TO.P,U2,13,PC2*%
%TO.N,Net-(SW1-Pad1)*%
X102820000Y-55844469D03*
%TO.P,U2,14,SigIn*%
%TO.N,Net-(C6-Pad1)*%
X102820000Y-53304469D03*
%TO.P,U2,15,ZOUT*%
%TO.N,unconnected-(U2-Pad15)*%
X102820000Y-50764469D03*
%TO.P,U2,16,VDD*%
%TO.N,+9V*%
X102820000Y-48224469D03*
%TD*%
D11*
%TO.P,C3,1*%
%TO.N,Net-(C3-Pad1)*%
X126250000Y-48000000D03*
%TO.P,C3,2*%
%TO.N,Net-(C2-Pad1)*%
X128750000Y-48000000D03*
%TD*%
D16*
%TO.P,D1,1,K*%
%TO.N,Net-(D1-Pad1)*%
X86225000Y-44500000D03*
D17*
%TO.P,D1,2,A*%
%TO.N,/PWR*%
X88765000Y-44500000D03*
%TD*%
D13*
%TO.P,MINFREQ1,1,1*%
%TO.N,unconnected-(MINFREQ1-Pad1)*%
X116099485Y-70525378D03*
D11*
%TO.P,MINFREQ1,2,2*%
%TO.N,Net-(MINFREQ1-Pad2)*%
X112499485Y-70525378D03*
%TO.P,MINFREQ1,3,3*%
%TO.N,GND*%
X108899485Y-70525378D03*
%TD*%
%TO.P,R3,1*%
%TO.N,GND*%
X107324339Y-61678326D03*
D12*
%TO.P,R3,2*%
%TO.N,Net-(C6-Pad1)*%
X107324339Y-51518326D03*
%TD*%
D18*
%TO.N,Net-(C2-Pad1)*%
X118250000Y-61109515D03*
X118269102Y-46474500D03*
%TD*%
D19*
%TO.N,Net-(C2-Pad1)*%
X115249523Y-61098835D02*
X118239320Y-61098835D01*
X118250000Y-46493602D02*
X118269102Y-46474500D01*
X118250000Y-61109515D02*
X118250000Y-46493602D01*
X118239320Y-61098835D02*
X118250000Y-61109515D01*
%TO.N,Net-(C3-Pad1)*%
X124901165Y-61098835D02*
X122869523Y-61098835D01*
X127500000Y-64881476D02*
X128750000Y-66131476D01*
X126250000Y-48000000D02*
X125000000Y-48000000D01*
X127018835Y-61098835D02*
X127500000Y-61580000D01*
X125000000Y-48000000D02*
X125000000Y-61000000D01*
X125000000Y-61000000D02*
X124901165Y-61098835D01*
X127500000Y-61580000D02*
X127500000Y-64881476D01*
X122869523Y-61098835D02*
X127018835Y-61098835D01*
%TO.N,Net-(C4-Pad1)*%
X124200669Y-68180807D02*
X121500000Y-68180807D01*
X121558835Y-58558835D02*
X122869523Y-58558835D01*
X121500000Y-68180807D02*
X121500000Y-58500000D01*
X126250000Y-66131476D02*
X124200669Y-68180807D01*
%TO.N,Net-(C7-Pad2)*%
X92139375Y-63985094D02*
X92139375Y-65889376D01*
X95200000Y-60924469D02*
X92139375Y-63985094D01*
%TO.N,GND*%
X94515984Y-58384469D02*
X95200000Y-58384469D01*
X111500000Y-51500000D02*
X111500000Y-49455765D01*
X111500000Y-49455765D02*
X110425854Y-48381619D01*
X91492552Y-61407901D02*
X94515984Y-58384469D01*
%TO.N,Net-(C7-Pad2)*%
X107324339Y-51518326D02*
X107324339Y-48983134D01*
X107324339Y-48983134D02*
X107925854Y-48381619D01*
%TO.N,Net-(SW1-Pad1)*%
X101695489Y-54719958D02*
X87955173Y-54719958D01*
X102820000Y-55844469D02*
X101695489Y-54719958D01*
X87955173Y-54719958D02*
X86623305Y-56051826D01*
%TO.N,Net-(SW1-Pad2)*%
X84500000Y-68742608D02*
X86185216Y-70427824D01*
X85208172Y-60500000D02*
X84500000Y-61208172D01*
X86500000Y-60500000D02*
X85208172Y-60500000D01*
X84500000Y-61208172D02*
X84500000Y-68742608D01*
%TO.N,+9V*%
X112970688Y-46120000D02*
X102820000Y-46120000D01*
X100200000Y-43500000D02*
X95800000Y-43500000D01*
X102820000Y-46120000D02*
X100200000Y-43500000D01*
X102820000Y-48224469D02*
X102820000Y-46120000D01*
X115249523Y-48398835D02*
X112970688Y-46120000D01*
%TO.N,Net-(C1-Pad2)*%
X124700000Y-43000000D02*
X124700000Y-40700000D01*
X124500000Y-40500000D02*
X115500000Y-40500000D01*
X124700000Y-40700000D02*
X124500000Y-40500000D01*
X115500000Y-40500000D02*
X115500000Y-43000000D01*
%TO.N,Net-(D1-Pad1)*%
X91492552Y-49767552D02*
X86225000Y-44500000D01*
X91492552Y-51247901D02*
X91492552Y-49767552D01*
%TO.N,/PWR*%
X88765000Y-44500000D02*
X88765000Y-42235000D01*
X103500000Y-40500000D02*
X103800000Y-40800000D01*
X88765000Y-42235000D02*
X90500000Y-40500000D01*
X103800000Y-40800000D02*
X103800000Y-43500000D01*
X90500000Y-40500000D02*
X103500000Y-40500000D01*
%TO.N,Net-(C1-Pad1)*%
X124461188Y-68630327D02*
X124500000Y-68669139D01*
X120750000Y-45750000D02*
X120750000Y-63506505D01*
X120750000Y-43000000D02*
X120750000Y-45750000D01*
X113000000Y-43000000D02*
X113000000Y-45500000D01*
X117669818Y-63654964D02*
X117669818Y-68630327D01*
X117644942Y-63630088D02*
X117669818Y-63654964D01*
X120750000Y-63506505D02*
X120594835Y-63661670D01*
X120594835Y-63661670D02*
X117676524Y-63661670D01*
X115249523Y-63638835D02*
X117636195Y-63638835D01*
X117636195Y-63638835D02*
X117644942Y-63630088D01*
X124500000Y-68669139D02*
X124500000Y-70500000D01*
X117676524Y-63661670D02*
X117669818Y-63654964D01*
X117669818Y-68630327D02*
X124461188Y-68630327D01*
X113250000Y-45750000D02*
X120750000Y-45750000D01*
X113000000Y-45500000D02*
X113250000Y-45750000D01*
%TO.N,Net-(R2-Pad1)*%
X91713040Y-68500000D02*
X89785216Y-70427824D01*
X102820000Y-66004469D02*
X107146143Y-61678326D01*
X98995531Y-66004469D02*
X96500000Y-68500000D01*
X102820000Y-66004469D02*
X98995531Y-66004469D01*
X96500000Y-68500000D02*
X91713040Y-68500000D01*
X107146143Y-61678326D02*
X107324339Y-61678326D01*
%TO.N,Net-(J2-PadT)*%
X87004469Y-53304469D02*
X86500000Y-52800000D01*
X95200000Y-53304469D02*
X87004469Y-53304469D01*
%TD*%
M02*
