%FSLAX45Y45*%
G04 Gerber Fmt 4.5, Leading zero omitted, Abs format (unit mm)*
G04 Created by KiCad (PCBNEW (6.0.2-0)) date 2024-07-24 17:46:08*
%MOMM*%
%LPD*%
G01*
G04 APERTURE LIST*
%TA.AperFunction,Profile*%
%ADD10C,0.100000*%
%TD*%
%ADD11C,0.200000*%
G04 APERTURE END LIST*
D10*
X11500000Y-5000000D02*
X16520000Y-5000000D01*
X16520000Y-5000000D02*
X16520000Y-8900000D01*
X16520000Y-8900000D02*
X11500000Y-8900000D01*
X11500000Y-8900000D02*
X11500000Y-5000000D01*
D11*
X11752619Y-9215476D02*
X11752619Y-9015476D01*
X11800238Y-9015476D01*
X11828809Y-9025000D01*
X11847857Y-9044048D01*
X11857381Y-9063095D01*
X11866905Y-9101190D01*
X11866905Y-9129762D01*
X11857381Y-9167857D01*
X11847857Y-9186905D01*
X11828809Y-9205952D01*
X11800238Y-9215476D01*
X11752619Y-9215476D01*
X11952619Y-9215476D02*
X11952619Y-9082143D01*
X11952619Y-9120238D02*
X11962143Y-9101190D01*
X11971667Y-9091667D01*
X11990714Y-9082143D01*
X12009762Y-9082143D01*
X12076428Y-9215476D02*
X12076428Y-9082143D01*
X12076428Y-9015476D02*
X12066905Y-9025000D01*
X12076428Y-9034524D01*
X12085952Y-9025000D01*
X12076428Y-9015476D01*
X12076428Y-9034524D01*
X12200238Y-9215476D02*
X12181190Y-9205952D01*
X12171667Y-9186905D01*
X12171667Y-9015476D01*
X12305000Y-9215476D02*
X12285952Y-9205952D01*
X12276428Y-9186905D01*
X12276428Y-9015476D01*
X12533571Y-9215476D02*
X12533571Y-9015476D01*
X12600238Y-9158333D01*
X12666905Y-9015476D01*
X12666905Y-9215476D01*
X12847857Y-9215476D02*
X12847857Y-9110714D01*
X12838333Y-9091667D01*
X12819286Y-9082143D01*
X12781190Y-9082143D01*
X12762143Y-9091667D01*
X12847857Y-9205952D02*
X12828809Y-9215476D01*
X12781190Y-9215476D01*
X12762143Y-9205952D01*
X12752619Y-9186905D01*
X12752619Y-9167857D01*
X12762143Y-9148810D01*
X12781190Y-9139286D01*
X12828809Y-9139286D01*
X12847857Y-9129762D01*
X12943095Y-9082143D02*
X12943095Y-9282143D01*
X12943095Y-9091667D02*
X12962143Y-9082143D01*
X13000238Y-9082143D01*
X13019286Y-9091667D01*
X13028809Y-9101190D01*
X13038333Y-9120238D01*
X13038333Y-9177381D01*
X13028809Y-9196429D01*
X13019286Y-9205952D01*
X13000238Y-9215476D01*
X12962143Y-9215476D01*
X12943095Y-9205952D01*
X13124048Y-9196429D02*
X13133571Y-9205952D01*
X13124048Y-9215476D01*
X13114524Y-9205952D01*
X13124048Y-9196429D01*
X13124048Y-9215476D01*
X13124048Y-9091667D02*
X13133571Y-9101190D01*
X13124048Y-9110714D01*
X13114524Y-9101190D01*
X13124048Y-9091667D01*
X13124048Y-9110714D01*
M02*
