%FSLAX45Y45*%
G04 Gerber Fmt 4.5, Leading zero omitted, Abs format (unit mm)*
G04 Created by KiCad (PCBNEW (6.0.2-0)) date 2024-07-24 17:46:08*
%MOMM*%
%LPD*%
G01*
G04 APERTURE LIST*
%TA.AperFunction,Profile*%
%ADD10C,0.100000*%
%TD*%
%ADD11C,0.200000*%
%ADD12C,0.040000*%
%ADD13C,0.080000*%
%ADD14C,0.090000*%
%ADD15C,0.110000*%
G04 APERTURE END LIST*
D10*
X11500000Y-5000000D02*
X16520000Y-5000000D01*
X16520000Y-5000000D02*
X16520000Y-8900000D01*
X16520000Y-8900000D02*
X11500000Y-8900000D01*
X11500000Y-8900000D02*
X11500000Y-5000000D01*
D11*
D12*
X13860000Y-6480000D02*
X13900000Y-6520000D01*
X13900000Y-6480000D02*
X13860000Y-6520000D01*
X15670000Y-8310000D02*
X15710000Y-8350000D01*
X15710000Y-8310000D02*
X15670000Y-8350000D01*
D13*
X13710000Y-5920000D02*
G75*
G03*
X13710000Y-5920000I-40000J0D01*
G01*
X13710000Y-6174000D02*
G75*
G03*
X13710000Y-6174000I-40000J0D01*
G01*
X13710000Y-6428000D02*
G75*
G03*
X13710000Y-6428000I-40000J0D01*
G01*
X13710000Y-6682000D02*
G75*
G03*
X13710000Y-6682000I-40000J0D01*
G01*
X13710000Y-7320000D02*
G75*
G03*
X13710000Y-7320000I-40000J0D01*
G01*
X13710000Y-7574000D02*
G75*
G03*
X13710000Y-7574000I-40000J0D01*
G01*
X13710000Y-7828000D02*
G75*
G03*
X13710000Y-7828000I-40000J0D01*
G01*
X13710000Y-8082000D02*
G75*
G03*
X13710000Y-8082000I-40000J0D01*
G01*
X14472000Y-5920000D02*
G75*
G03*
X14472000Y-5920000I-40000J0D01*
G01*
X14472000Y-6174000D02*
G75*
G03*
X14472000Y-6174000I-40000J0D01*
G01*
X14472000Y-6428000D02*
G75*
G03*
X14472000Y-6428000I-40000J0D01*
G01*
X14472000Y-6682000D02*
G75*
G03*
X14472000Y-6682000I-40000J0D01*
G01*
X14472000Y-7320000D02*
G75*
G03*
X14472000Y-7320000I-40000J0D01*
G01*
X14472000Y-7574000D02*
G75*
G03*
X14472000Y-7574000I-40000J0D01*
G01*
X14472000Y-7828000D02*
G75*
G03*
X14472000Y-7828000I-40000J0D01*
G01*
X14472000Y-8082000D02*
G75*
G03*
X14472000Y-8082000I-40000J0D01*
G01*
X14800000Y-6340000D02*
G75*
G03*
X14800000Y-6340000I-40000J0D01*
G01*
X14802000Y-6030000D02*
G75*
G03*
X14802000Y-6030000I-40000J0D01*
G01*
X14802000Y-6660000D02*
G75*
G03*
X14802000Y-6660000I-40000J0D01*
G01*
X14812000Y-7560000D02*
G75*
G03*
X14812000Y-7560000I-40000J0D01*
G01*
X14812000Y-7880000D02*
G75*
G03*
X14812000Y-7880000I-40000J0D01*
G01*
X15050000Y-5750000D02*
G75*
G03*
X15050000Y-5750000I-40000J0D01*
G01*
X15070000Y-8160000D02*
G75*
G03*
X15070000Y-8160000I-40000J0D01*
G01*
X15219489Y-7110000D02*
G75*
G03*
X15219489Y-7110000I-40000J0D01*
G01*
X15469489Y-7110000D02*
G75*
G03*
X15469489Y-7110000I-40000J0D01*
G01*
X15550000Y-5750000D02*
G75*
G03*
X15550000Y-5750000I-40000J0D01*
G01*
X15570000Y-8160000D02*
G75*
G03*
X15570000Y-8160000I-40000J0D01*
G01*
X15816000Y-6340000D02*
G75*
G03*
X15816000Y-6340000I-40000J0D01*
G01*
X15818000Y-6030000D02*
G75*
G03*
X15818000Y-6030000I-40000J0D01*
G01*
X15818000Y-6660000D02*
G75*
G03*
X15818000Y-6660000I-40000J0D01*
G01*
X15828000Y-7560000D02*
G75*
G03*
X15828000Y-7560000I-40000J0D01*
G01*
X15828000Y-7880000D02*
G75*
G03*
X15828000Y-7880000I-40000J0D01*
G01*
D14*
X13932500Y-5295000D02*
X13932500Y-5385000D01*
X13887500Y-5340000D02*
X13977500Y-5340000D01*
X14186500Y-5295000D02*
X14186500Y-5385000D01*
X14141500Y-5340000D02*
X14231500Y-5340000D01*
D15*
X11948891Y-8578891D02*
X11948891Y-8501109D01*
X11871109Y-8501109D01*
X11871109Y-8578891D01*
X11948891Y-8578891D01*
X12408891Y-8578891D02*
X12408891Y-8501109D01*
X12331109Y-8501109D01*
X12331109Y-8578891D01*
X12408891Y-8578891D01*
X12878891Y-8598891D02*
X12878891Y-8521109D01*
X12801109Y-8521109D01*
X12801109Y-8598891D01*
X12878891Y-8598891D01*
X13338891Y-8598891D02*
X13338891Y-8521109D01*
X13261109Y-8521109D01*
X13261109Y-8598891D01*
X13338891Y-8598891D01*
X13798891Y-8598891D02*
X13798891Y-8521109D01*
X13721109Y-8521109D01*
X13721109Y-8598891D01*
X13798891Y-8598891D01*
X14288891Y-8598891D02*
X14288891Y-8521109D01*
X14211109Y-8521109D01*
X14211109Y-8598891D01*
X14288891Y-8598891D01*
X14688891Y-5418891D02*
X14688891Y-5341109D01*
X14611109Y-5341109D01*
X14611109Y-5418891D01*
X14688891Y-5418891D01*
X14748891Y-8598891D02*
X14748891Y-8521109D01*
X14671109Y-8521109D01*
X14671109Y-8598891D01*
X14748891Y-8598891D01*
X15148891Y-5418891D02*
X15148891Y-5341109D01*
X15071109Y-5341109D01*
X15071109Y-5418891D01*
X15148891Y-5418891D01*
X15258891Y-8598891D02*
X15258891Y-8521109D01*
X15181109Y-8521109D01*
X15181109Y-8598891D01*
X15258891Y-8598891D01*
X15688891Y-5418891D02*
X15688891Y-5341109D01*
X15611109Y-5341109D01*
X15611109Y-5418891D01*
X15688891Y-5418891D01*
X15718891Y-8598891D02*
X15718891Y-8521109D01*
X15641109Y-8521109D01*
X15641109Y-8598891D01*
X15718891Y-8598891D01*
X16148891Y-5418891D02*
X16148891Y-5341109D01*
X16071109Y-5341109D01*
X16071109Y-5418891D01*
X16148891Y-5418891D01*
X16178891Y-8598891D02*
X16178891Y-8521109D01*
X16101109Y-8521109D01*
X16101109Y-8598891D01*
X16178891Y-8598891D01*
X16198891Y-6058891D02*
X16198891Y-5981109D01*
X16121109Y-5981109D01*
X16121109Y-6058891D01*
X16198891Y-6058891D01*
X16198891Y-6518891D02*
X16198891Y-6441109D01*
X16121109Y-6441109D01*
X16121109Y-6518891D01*
X16198891Y-6518891D01*
X16198891Y-6978891D02*
X16198891Y-6901109D01*
X16121109Y-6901109D01*
X16121109Y-6978891D01*
X16198891Y-6978891D01*
X16198891Y-7488891D02*
X16198891Y-7411109D01*
X16121109Y-7411109D01*
X16121109Y-7488891D01*
X16198891Y-7488891D01*
X16198891Y-7948891D02*
X16198891Y-7871109D01*
X16121109Y-7871109D01*
X16121109Y-7948891D01*
X16198891Y-7948891D01*
D11*
X11752619Y-9215476D02*
X11752619Y-9015476D01*
X11800238Y-9015476D01*
X11828809Y-9025000D01*
X11847857Y-9044048D01*
X11857381Y-9063095D01*
X11866905Y-9101190D01*
X11866905Y-9129762D01*
X11857381Y-9167857D01*
X11847857Y-9186905D01*
X11828809Y-9205952D01*
X11800238Y-9215476D01*
X11752619Y-9215476D01*
X11952619Y-9215476D02*
X11952619Y-9082143D01*
X11952619Y-9120238D02*
X11962143Y-9101190D01*
X11971667Y-9091667D01*
X11990714Y-9082143D01*
X12009762Y-9082143D01*
X12076428Y-9215476D02*
X12076428Y-9082143D01*
X12076428Y-9015476D02*
X12066905Y-9025000D01*
X12076428Y-9034524D01*
X12085952Y-9025000D01*
X12076428Y-9015476D01*
X12076428Y-9034524D01*
X12200238Y-9215476D02*
X12181190Y-9205952D01*
X12171667Y-9186905D01*
X12171667Y-9015476D01*
X12305000Y-9215476D02*
X12285952Y-9205952D01*
X12276428Y-9186905D01*
X12276428Y-9015476D01*
X12533571Y-9215476D02*
X12533571Y-9015476D01*
X12600238Y-9158333D01*
X12666905Y-9015476D01*
X12666905Y-9215476D01*
X12847857Y-9215476D02*
X12847857Y-9110714D01*
X12838333Y-9091667D01*
X12819286Y-9082143D01*
X12781190Y-9082143D01*
X12762143Y-9091667D01*
X12847857Y-9205952D02*
X12828809Y-9215476D01*
X12781190Y-9215476D01*
X12762143Y-9205952D01*
X12752619Y-9186905D01*
X12752619Y-9167857D01*
X12762143Y-9148810D01*
X12781190Y-9139286D01*
X12828809Y-9139286D01*
X12847857Y-9129762D01*
X12943095Y-9082143D02*
X12943095Y-9282143D01*
X12943095Y-9091667D02*
X12962143Y-9082143D01*
X13000238Y-9082143D01*
X13019286Y-9091667D01*
X13028809Y-9101190D01*
X13038333Y-9120238D01*
X13038333Y-9177381D01*
X13028809Y-9196429D01*
X13019286Y-9205952D01*
X13000238Y-9215476D01*
X12962143Y-9215476D01*
X12943095Y-9205952D01*
X13124048Y-9196429D02*
X13133571Y-9205952D01*
X13124048Y-9215476D01*
X13114524Y-9205952D01*
X13124048Y-9196429D01*
X13124048Y-9215476D01*
X13124048Y-9091667D02*
X13133571Y-9101190D01*
X13124048Y-9110714D01*
X13114524Y-9101190D01*
X13124048Y-9091667D01*
X13124048Y-9110714D01*
D12*
X11455000Y-9525000D02*
X11495000Y-9565000D01*
X11495000Y-9525000D02*
X11455000Y-9565000D01*
D11*
X11790714Y-9435476D02*
X11809762Y-9435476D01*
X11828809Y-9445000D01*
X11838333Y-9454524D01*
X11847857Y-9473571D01*
X11857381Y-9511667D01*
X11857381Y-9559286D01*
X11847857Y-9597381D01*
X11838333Y-9616429D01*
X11828809Y-9625952D01*
X11809762Y-9635476D01*
X11790714Y-9635476D01*
X11771667Y-9625952D01*
X11762143Y-9616429D01*
X11752619Y-9597381D01*
X11743095Y-9559286D01*
X11743095Y-9511667D01*
X11752619Y-9473571D01*
X11762143Y-9454524D01*
X11771667Y-9445000D01*
X11790714Y-9435476D01*
X11943095Y-9616429D02*
X11952619Y-9625952D01*
X11943095Y-9635476D01*
X11933571Y-9625952D01*
X11943095Y-9616429D01*
X11943095Y-9635476D01*
X12124048Y-9502143D02*
X12124048Y-9635476D01*
X12076428Y-9425952D02*
X12028809Y-9568810D01*
X12152619Y-9568810D01*
X12266905Y-9435476D02*
X12285952Y-9435476D01*
X12305000Y-9445000D01*
X12314524Y-9454524D01*
X12324048Y-9473571D01*
X12333571Y-9511667D01*
X12333571Y-9559286D01*
X12324048Y-9597381D01*
X12314524Y-9616429D01*
X12305000Y-9625952D01*
X12285952Y-9635476D01*
X12266905Y-9635476D01*
X12247857Y-9625952D01*
X12238333Y-9616429D01*
X12228809Y-9597381D01*
X12219286Y-9559286D01*
X12219286Y-9511667D01*
X12228809Y-9473571D01*
X12238333Y-9454524D01*
X12247857Y-9445000D01*
X12266905Y-9435476D01*
X12457381Y-9435476D02*
X12476428Y-9435476D01*
X12495476Y-9445000D01*
X12505000Y-9454524D01*
X12514524Y-9473571D01*
X12524048Y-9511667D01*
X12524048Y-9559286D01*
X12514524Y-9597381D01*
X12505000Y-9616429D01*
X12495476Y-9625952D01*
X12476428Y-9635476D01*
X12457381Y-9635476D01*
X12438333Y-9625952D01*
X12428809Y-9616429D01*
X12419286Y-9597381D01*
X12409762Y-9559286D01*
X12409762Y-9511667D01*
X12419286Y-9473571D01*
X12428809Y-9454524D01*
X12438333Y-9445000D01*
X12457381Y-9435476D01*
X12609762Y-9635476D02*
X12609762Y-9502143D01*
X12609762Y-9521190D02*
X12619286Y-9511667D01*
X12638333Y-9502143D01*
X12666905Y-9502143D01*
X12685952Y-9511667D01*
X12695476Y-9530714D01*
X12695476Y-9635476D01*
X12695476Y-9530714D02*
X12705000Y-9511667D01*
X12724048Y-9502143D01*
X12752619Y-9502143D01*
X12771667Y-9511667D01*
X12781190Y-9530714D01*
X12781190Y-9635476D01*
X12876428Y-9635476D02*
X12876428Y-9502143D01*
X12876428Y-9521190D02*
X12885952Y-9511667D01*
X12905000Y-9502143D01*
X12933571Y-9502143D01*
X12952619Y-9511667D01*
X12962143Y-9530714D01*
X12962143Y-9635476D01*
X12962143Y-9530714D02*
X12971667Y-9511667D01*
X12990714Y-9502143D01*
X13019286Y-9502143D01*
X13038333Y-9511667D01*
X13047857Y-9530714D01*
X13047857Y-9635476D01*
X13438333Y-9425952D02*
X13266905Y-9683095D01*
X13695476Y-9435476D02*
X13714524Y-9435476D01*
X13733571Y-9445000D01*
X13743095Y-9454524D01*
X13752619Y-9473571D01*
X13762143Y-9511667D01*
X13762143Y-9559286D01*
X13752619Y-9597381D01*
X13743095Y-9616429D01*
X13733571Y-9625952D01*
X13714524Y-9635476D01*
X13695476Y-9635476D01*
X13676428Y-9625952D01*
X13666905Y-9616429D01*
X13657381Y-9597381D01*
X13647857Y-9559286D01*
X13647857Y-9511667D01*
X13657381Y-9473571D01*
X13666905Y-9454524D01*
X13676428Y-9445000D01*
X13695476Y-9435476D01*
X13847857Y-9616429D02*
X13857381Y-9625952D01*
X13847857Y-9635476D01*
X13838333Y-9625952D01*
X13847857Y-9616429D01*
X13847857Y-9635476D01*
X13981190Y-9435476D02*
X14000238Y-9435476D01*
X14019286Y-9445000D01*
X14028809Y-9454524D01*
X14038333Y-9473571D01*
X14047857Y-9511667D01*
X14047857Y-9559286D01*
X14038333Y-9597381D01*
X14028809Y-9616429D01*
X14019286Y-9625952D01*
X14000238Y-9635476D01*
X13981190Y-9635476D01*
X13962143Y-9625952D01*
X13952619Y-9616429D01*
X13943095Y-9597381D01*
X13933571Y-9559286D01*
X13933571Y-9511667D01*
X13943095Y-9473571D01*
X13952619Y-9454524D01*
X13962143Y-9445000D01*
X13981190Y-9435476D01*
X14238333Y-9635476D02*
X14124048Y-9635476D01*
X14181190Y-9635476D02*
X14181190Y-9435476D01*
X14162143Y-9464048D01*
X14143095Y-9483095D01*
X14124048Y-9492619D01*
X14419286Y-9435476D02*
X14324048Y-9435476D01*
X14314524Y-9530714D01*
X14324048Y-9521190D01*
X14343095Y-9511667D01*
X14390714Y-9511667D01*
X14409762Y-9521190D01*
X14419286Y-9530714D01*
X14428809Y-9549762D01*
X14428809Y-9597381D01*
X14419286Y-9616429D01*
X14409762Y-9625952D01*
X14390714Y-9635476D01*
X14343095Y-9635476D01*
X14324048Y-9625952D01*
X14314524Y-9616429D01*
X14495476Y-9435476D02*
X14628809Y-9435476D01*
X14543095Y-9635476D01*
X14695476Y-9435476D02*
X14695476Y-9473571D01*
X14771667Y-9435476D02*
X14771667Y-9473571D01*
X15066905Y-9711667D02*
X15057381Y-9702143D01*
X15038333Y-9673571D01*
X15028809Y-9654524D01*
X15019286Y-9625952D01*
X15009762Y-9578333D01*
X15009762Y-9540238D01*
X15019286Y-9492619D01*
X15028809Y-9464048D01*
X15038333Y-9445000D01*
X15057381Y-9416429D01*
X15066905Y-9406905D01*
X15133571Y-9454524D02*
X15143095Y-9445000D01*
X15162143Y-9435476D01*
X15209762Y-9435476D01*
X15228809Y-9445000D01*
X15238333Y-9454524D01*
X15247857Y-9473571D01*
X15247857Y-9492619D01*
X15238333Y-9521190D01*
X15124048Y-9635476D01*
X15247857Y-9635476D01*
X15485952Y-9635476D02*
X15485952Y-9435476D01*
X15571667Y-9635476D02*
X15571667Y-9530714D01*
X15562143Y-9511667D01*
X15543095Y-9502143D01*
X15514524Y-9502143D01*
X15495476Y-9511667D01*
X15485952Y-9521190D01*
X15695476Y-9635476D02*
X15676428Y-9625952D01*
X15666905Y-9616429D01*
X15657381Y-9597381D01*
X15657381Y-9540238D01*
X15666905Y-9521190D01*
X15676428Y-9511667D01*
X15695476Y-9502143D01*
X15724048Y-9502143D01*
X15743095Y-9511667D01*
X15752619Y-9521190D01*
X15762143Y-9540238D01*
X15762143Y-9597381D01*
X15752619Y-9616429D01*
X15743095Y-9625952D01*
X15724048Y-9635476D01*
X15695476Y-9635476D01*
X15876428Y-9635476D02*
X15857381Y-9625952D01*
X15847857Y-9606905D01*
X15847857Y-9435476D01*
X16028809Y-9625952D02*
X16009762Y-9635476D01*
X15971667Y-9635476D01*
X15952619Y-9625952D01*
X15943095Y-9606905D01*
X15943095Y-9530714D01*
X15952619Y-9511667D01*
X15971667Y-9502143D01*
X16009762Y-9502143D01*
X16028809Y-9511667D01*
X16038333Y-9530714D01*
X16038333Y-9549762D01*
X15943095Y-9568810D01*
X16114524Y-9625952D02*
X16133571Y-9635476D01*
X16171667Y-9635476D01*
X16190714Y-9625952D01*
X16200238Y-9606905D01*
X16200238Y-9597381D01*
X16190714Y-9578333D01*
X16171667Y-9568810D01*
X16143095Y-9568810D01*
X16124048Y-9559286D01*
X16114524Y-9540238D01*
X16114524Y-9530714D01*
X16124048Y-9511667D01*
X16143095Y-9502143D01*
X16171667Y-9502143D01*
X16190714Y-9511667D01*
X16266905Y-9711667D02*
X16276428Y-9702143D01*
X16295476Y-9673571D01*
X16305000Y-9654524D01*
X16314524Y-9625952D01*
X16324048Y-9578333D01*
X16324048Y-9540238D01*
X16314524Y-9492619D01*
X16305000Y-9464048D01*
X16295476Y-9445000D01*
X16276428Y-9416429D01*
X16266905Y-9406905D01*
D13*
X11495000Y-9809000D02*
G75*
G03*
X11495000Y-9809000I-40000J0D01*
G01*
D11*
X11790714Y-9699476D02*
X11809762Y-9699476D01*
X11828809Y-9709000D01*
X11838333Y-9718524D01*
X11847857Y-9737571D01*
X11857381Y-9775667D01*
X11857381Y-9823286D01*
X11847857Y-9861381D01*
X11838333Y-9880429D01*
X11828809Y-9889952D01*
X11809762Y-9899476D01*
X11790714Y-9899476D01*
X11771667Y-9889952D01*
X11762143Y-9880429D01*
X11752619Y-9861381D01*
X11743095Y-9823286D01*
X11743095Y-9775667D01*
X11752619Y-9737571D01*
X11762143Y-9718524D01*
X11771667Y-9709000D01*
X11790714Y-9699476D01*
X11943095Y-9880429D02*
X11952619Y-9889952D01*
X11943095Y-9899476D01*
X11933571Y-9889952D01*
X11943095Y-9880429D01*
X11943095Y-9899476D01*
X12066905Y-9785190D02*
X12047857Y-9775667D01*
X12038333Y-9766143D01*
X12028809Y-9747095D01*
X12028809Y-9737571D01*
X12038333Y-9718524D01*
X12047857Y-9709000D01*
X12066905Y-9699476D01*
X12105000Y-9699476D01*
X12124048Y-9709000D01*
X12133571Y-9718524D01*
X12143095Y-9737571D01*
X12143095Y-9747095D01*
X12133571Y-9766143D01*
X12124048Y-9775667D01*
X12105000Y-9785190D01*
X12066905Y-9785190D01*
X12047857Y-9794714D01*
X12038333Y-9804238D01*
X12028809Y-9823286D01*
X12028809Y-9861381D01*
X12038333Y-9880429D01*
X12047857Y-9889952D01*
X12066905Y-9899476D01*
X12105000Y-9899476D01*
X12124048Y-9889952D01*
X12133571Y-9880429D01*
X12143095Y-9861381D01*
X12143095Y-9823286D01*
X12133571Y-9804238D01*
X12124048Y-9794714D01*
X12105000Y-9785190D01*
X12266905Y-9699476D02*
X12285952Y-9699476D01*
X12305000Y-9709000D01*
X12314524Y-9718524D01*
X12324048Y-9737571D01*
X12333571Y-9775667D01*
X12333571Y-9823286D01*
X12324048Y-9861381D01*
X12314524Y-9880429D01*
X12305000Y-9889952D01*
X12285952Y-9899476D01*
X12266905Y-9899476D01*
X12247857Y-9889952D01*
X12238333Y-9880429D01*
X12228809Y-9861381D01*
X12219286Y-9823286D01*
X12219286Y-9775667D01*
X12228809Y-9737571D01*
X12238333Y-9718524D01*
X12247857Y-9709000D01*
X12266905Y-9699476D01*
X12457381Y-9699476D02*
X12476428Y-9699476D01*
X12495476Y-9709000D01*
X12505000Y-9718524D01*
X12514524Y-9737571D01*
X12524048Y-9775667D01*
X12524048Y-9823286D01*
X12514524Y-9861381D01*
X12505000Y-9880429D01*
X12495476Y-9889952D01*
X12476428Y-9899476D01*
X12457381Y-9899476D01*
X12438333Y-9889952D01*
X12428809Y-9880429D01*
X12419286Y-9861381D01*
X12409762Y-9823286D01*
X12409762Y-9775667D01*
X12419286Y-9737571D01*
X12428809Y-9718524D01*
X12438333Y-9709000D01*
X12457381Y-9699476D01*
X12609762Y-9899476D02*
X12609762Y-9766143D01*
X12609762Y-9785190D02*
X12619286Y-9775667D01*
X12638333Y-9766143D01*
X12666905Y-9766143D01*
X12685952Y-9775667D01*
X12695476Y-9794714D01*
X12695476Y-9899476D01*
X12695476Y-9794714D02*
X12705000Y-9775667D01*
X12724048Y-9766143D01*
X12752619Y-9766143D01*
X12771667Y-9775667D01*
X12781190Y-9794714D01*
X12781190Y-9899476D01*
X12876428Y-9899476D02*
X12876428Y-9766143D01*
X12876428Y-9785190D02*
X12885952Y-9775667D01*
X12905000Y-9766143D01*
X12933571Y-9766143D01*
X12952619Y-9775667D01*
X12962143Y-9794714D01*
X12962143Y-9899476D01*
X12962143Y-9794714D02*
X12971667Y-9775667D01*
X12990714Y-9766143D01*
X13019286Y-9766143D01*
X13038333Y-9775667D01*
X13047857Y-9794714D01*
X13047857Y-9899476D01*
X13438333Y-9689952D02*
X13266905Y-9947095D01*
X13695476Y-9699476D02*
X13714524Y-9699476D01*
X13733571Y-9709000D01*
X13743095Y-9718524D01*
X13752619Y-9737571D01*
X13762143Y-9775667D01*
X13762143Y-9823286D01*
X13752619Y-9861381D01*
X13743095Y-9880429D01*
X13733571Y-9889952D01*
X13714524Y-9899476D01*
X13695476Y-9899476D01*
X13676428Y-9889952D01*
X13666905Y-9880429D01*
X13657381Y-9861381D01*
X13647857Y-9823286D01*
X13647857Y-9775667D01*
X13657381Y-9737571D01*
X13666905Y-9718524D01*
X13676428Y-9709000D01*
X13695476Y-9699476D01*
X13847857Y-9880429D02*
X13857381Y-9889952D01*
X13847857Y-9899476D01*
X13838333Y-9889952D01*
X13847857Y-9880429D01*
X13847857Y-9899476D01*
X13981190Y-9699476D02*
X14000238Y-9699476D01*
X14019286Y-9709000D01*
X14028809Y-9718524D01*
X14038333Y-9737571D01*
X14047857Y-9775667D01*
X14047857Y-9823286D01*
X14038333Y-9861381D01*
X14028809Y-9880429D01*
X14019286Y-9889952D01*
X14000238Y-9899476D01*
X13981190Y-9899476D01*
X13962143Y-9889952D01*
X13952619Y-9880429D01*
X13943095Y-9861381D01*
X13933571Y-9823286D01*
X13933571Y-9775667D01*
X13943095Y-9737571D01*
X13952619Y-9718524D01*
X13962143Y-9709000D01*
X13981190Y-9699476D01*
X14114524Y-9699476D02*
X14238333Y-9699476D01*
X14171667Y-9775667D01*
X14200238Y-9775667D01*
X14219286Y-9785190D01*
X14228809Y-9794714D01*
X14238333Y-9813762D01*
X14238333Y-9861381D01*
X14228809Y-9880429D01*
X14219286Y-9889952D01*
X14200238Y-9899476D01*
X14143095Y-9899476D01*
X14124048Y-9889952D01*
X14114524Y-9880429D01*
X14428809Y-9899476D02*
X14314524Y-9899476D01*
X14371667Y-9899476D02*
X14371667Y-9699476D01*
X14352619Y-9728048D01*
X14333571Y-9747095D01*
X14314524Y-9756619D01*
X14609762Y-9699476D02*
X14514524Y-9699476D01*
X14505000Y-9794714D01*
X14514524Y-9785190D01*
X14533571Y-9775667D01*
X14581190Y-9775667D01*
X14600238Y-9785190D01*
X14609762Y-9794714D01*
X14619286Y-9813762D01*
X14619286Y-9861381D01*
X14609762Y-9880429D01*
X14600238Y-9889952D01*
X14581190Y-9899476D01*
X14533571Y-9899476D01*
X14514524Y-9889952D01*
X14505000Y-9880429D01*
X14695476Y-9699476D02*
X14695476Y-9737571D01*
X14771667Y-9699476D02*
X14771667Y-9737571D01*
X15066905Y-9975667D02*
X15057381Y-9966143D01*
X15038333Y-9937571D01*
X15028809Y-9918524D01*
X15019286Y-9889952D01*
X15009762Y-9842333D01*
X15009762Y-9804238D01*
X15019286Y-9756619D01*
X15028809Y-9728048D01*
X15038333Y-9709000D01*
X15057381Y-9680429D01*
X15066905Y-9670905D01*
X15124048Y-9699476D02*
X15247857Y-9699476D01*
X15181190Y-9775667D01*
X15209762Y-9775667D01*
X15228809Y-9785190D01*
X15238333Y-9794714D01*
X15247857Y-9813762D01*
X15247857Y-9861381D01*
X15238333Y-9880429D01*
X15228809Y-9889952D01*
X15209762Y-9899476D01*
X15152619Y-9899476D01*
X15133571Y-9889952D01*
X15124048Y-9880429D01*
X15324048Y-9718524D02*
X15333571Y-9709000D01*
X15352619Y-9699476D01*
X15400238Y-9699476D01*
X15419286Y-9709000D01*
X15428809Y-9718524D01*
X15438333Y-9737571D01*
X15438333Y-9756619D01*
X15428809Y-9785190D01*
X15314524Y-9899476D01*
X15438333Y-9899476D01*
X15676428Y-9899476D02*
X15676428Y-9699476D01*
X15762143Y-9899476D02*
X15762143Y-9794714D01*
X15752619Y-9775667D01*
X15733571Y-9766143D01*
X15705000Y-9766143D01*
X15685952Y-9775667D01*
X15676428Y-9785190D01*
X15885952Y-9899476D02*
X15866905Y-9889952D01*
X15857381Y-9880429D01*
X15847857Y-9861381D01*
X15847857Y-9804238D01*
X15857381Y-9785190D01*
X15866905Y-9775667D01*
X15885952Y-9766143D01*
X15914524Y-9766143D01*
X15933571Y-9775667D01*
X15943095Y-9785190D01*
X15952619Y-9804238D01*
X15952619Y-9861381D01*
X15943095Y-9880429D01*
X15933571Y-9889952D01*
X15914524Y-9899476D01*
X15885952Y-9899476D01*
X16066905Y-9899476D02*
X16047857Y-9889952D01*
X16038333Y-9870905D01*
X16038333Y-9699476D01*
X16219286Y-9889952D02*
X16200238Y-9899476D01*
X16162143Y-9899476D01*
X16143095Y-9889952D01*
X16133571Y-9870905D01*
X16133571Y-9794714D01*
X16143095Y-9775667D01*
X16162143Y-9766143D01*
X16200238Y-9766143D01*
X16219286Y-9775667D01*
X16228809Y-9794714D01*
X16228809Y-9813762D01*
X16133571Y-9832810D01*
X16305000Y-9889952D02*
X16324048Y-9899476D01*
X16362143Y-9899476D01*
X16381190Y-9889952D01*
X16390714Y-9870905D01*
X16390714Y-9861381D01*
X16381190Y-9842333D01*
X16362143Y-9832810D01*
X16333571Y-9832810D01*
X16314524Y-9823286D01*
X16305000Y-9804238D01*
X16305000Y-9794714D01*
X16314524Y-9775667D01*
X16333571Y-9766143D01*
X16362143Y-9766143D01*
X16381190Y-9775667D01*
X16457381Y-9975667D02*
X16466905Y-9966143D01*
X16485952Y-9937571D01*
X16495476Y-9918524D01*
X16505000Y-9889952D01*
X16514524Y-9842333D01*
X16514524Y-9804238D01*
X16505000Y-9756619D01*
X16495476Y-9728048D01*
X16485952Y-9709000D01*
X16466905Y-9680429D01*
X16457381Y-9670905D01*
D14*
X11450000Y-10028000D02*
X11450000Y-10118000D01*
X11405000Y-10073000D02*
X11495000Y-10073000D01*
D11*
X11790714Y-9963476D02*
X11809762Y-9963476D01*
X11828809Y-9973000D01*
X11838333Y-9982524D01*
X11847857Y-10001571D01*
X11857381Y-10039667D01*
X11857381Y-10087286D01*
X11847857Y-10125381D01*
X11838333Y-10144429D01*
X11828809Y-10153952D01*
X11809762Y-10163476D01*
X11790714Y-10163476D01*
X11771667Y-10153952D01*
X11762143Y-10144429D01*
X11752619Y-10125381D01*
X11743095Y-10087286D01*
X11743095Y-10039667D01*
X11752619Y-10001571D01*
X11762143Y-9982524D01*
X11771667Y-9973000D01*
X11790714Y-9963476D01*
X11943095Y-10144429D02*
X11952619Y-10153952D01*
X11943095Y-10163476D01*
X11933571Y-10153952D01*
X11943095Y-10144429D01*
X11943095Y-10163476D01*
X12047857Y-10163476D02*
X12085952Y-10163476D01*
X12105000Y-10153952D01*
X12114524Y-10144429D01*
X12133571Y-10115857D01*
X12143095Y-10077762D01*
X12143095Y-10001571D01*
X12133571Y-9982524D01*
X12124048Y-9973000D01*
X12105000Y-9963476D01*
X12066905Y-9963476D01*
X12047857Y-9973000D01*
X12038333Y-9982524D01*
X12028809Y-10001571D01*
X12028809Y-10049190D01*
X12038333Y-10068238D01*
X12047857Y-10077762D01*
X12066905Y-10087286D01*
X12105000Y-10087286D01*
X12124048Y-10077762D01*
X12133571Y-10068238D01*
X12143095Y-10049190D01*
X12266905Y-9963476D02*
X12285952Y-9963476D01*
X12305000Y-9973000D01*
X12314524Y-9982524D01*
X12324048Y-10001571D01*
X12333571Y-10039667D01*
X12333571Y-10087286D01*
X12324048Y-10125381D01*
X12314524Y-10144429D01*
X12305000Y-10153952D01*
X12285952Y-10163476D01*
X12266905Y-10163476D01*
X12247857Y-10153952D01*
X12238333Y-10144429D01*
X12228809Y-10125381D01*
X12219286Y-10087286D01*
X12219286Y-10039667D01*
X12228809Y-10001571D01*
X12238333Y-9982524D01*
X12247857Y-9973000D01*
X12266905Y-9963476D01*
X12457381Y-9963476D02*
X12476428Y-9963476D01*
X12495476Y-9973000D01*
X12505000Y-9982524D01*
X12514524Y-10001571D01*
X12524048Y-10039667D01*
X12524048Y-10087286D01*
X12514524Y-10125381D01*
X12505000Y-10144429D01*
X12495476Y-10153952D01*
X12476428Y-10163476D01*
X12457381Y-10163476D01*
X12438333Y-10153952D01*
X12428809Y-10144429D01*
X12419286Y-10125381D01*
X12409762Y-10087286D01*
X12409762Y-10039667D01*
X12419286Y-10001571D01*
X12428809Y-9982524D01*
X12438333Y-9973000D01*
X12457381Y-9963476D01*
X12609762Y-10163476D02*
X12609762Y-10030143D01*
X12609762Y-10049190D02*
X12619286Y-10039667D01*
X12638333Y-10030143D01*
X12666905Y-10030143D01*
X12685952Y-10039667D01*
X12695476Y-10058714D01*
X12695476Y-10163476D01*
X12695476Y-10058714D02*
X12705000Y-10039667D01*
X12724048Y-10030143D01*
X12752619Y-10030143D01*
X12771667Y-10039667D01*
X12781190Y-10058714D01*
X12781190Y-10163476D01*
X12876428Y-10163476D02*
X12876428Y-10030143D01*
X12876428Y-10049190D02*
X12885952Y-10039667D01*
X12905000Y-10030143D01*
X12933571Y-10030143D01*
X12952619Y-10039667D01*
X12962143Y-10058714D01*
X12962143Y-10163476D01*
X12962143Y-10058714D02*
X12971667Y-10039667D01*
X12990714Y-10030143D01*
X13019286Y-10030143D01*
X13038333Y-10039667D01*
X13047857Y-10058714D01*
X13047857Y-10163476D01*
X13438333Y-9953952D02*
X13266905Y-10211095D01*
X13695476Y-9963476D02*
X13714524Y-9963476D01*
X13733571Y-9973000D01*
X13743095Y-9982524D01*
X13752619Y-10001571D01*
X13762143Y-10039667D01*
X13762143Y-10087286D01*
X13752619Y-10125381D01*
X13743095Y-10144429D01*
X13733571Y-10153952D01*
X13714524Y-10163476D01*
X13695476Y-10163476D01*
X13676428Y-10153952D01*
X13666905Y-10144429D01*
X13657381Y-10125381D01*
X13647857Y-10087286D01*
X13647857Y-10039667D01*
X13657381Y-10001571D01*
X13666905Y-9982524D01*
X13676428Y-9973000D01*
X13695476Y-9963476D01*
X13847857Y-10144429D02*
X13857381Y-10153952D01*
X13847857Y-10163476D01*
X13838333Y-10153952D01*
X13847857Y-10144429D01*
X13847857Y-10163476D01*
X13981190Y-9963476D02*
X14000238Y-9963476D01*
X14019286Y-9973000D01*
X14028809Y-9982524D01*
X14038333Y-10001571D01*
X14047857Y-10039667D01*
X14047857Y-10087286D01*
X14038333Y-10125381D01*
X14028809Y-10144429D01*
X14019286Y-10153952D01*
X14000238Y-10163476D01*
X13981190Y-10163476D01*
X13962143Y-10153952D01*
X13952619Y-10144429D01*
X13943095Y-10125381D01*
X13933571Y-10087286D01*
X13933571Y-10039667D01*
X13943095Y-10001571D01*
X13952619Y-9982524D01*
X13962143Y-9973000D01*
X13981190Y-9963476D01*
X14114524Y-9963476D02*
X14238333Y-9963476D01*
X14171667Y-10039667D01*
X14200238Y-10039667D01*
X14219286Y-10049190D01*
X14228809Y-10058714D01*
X14238333Y-10077762D01*
X14238333Y-10125381D01*
X14228809Y-10144429D01*
X14219286Y-10153952D01*
X14200238Y-10163476D01*
X14143095Y-10163476D01*
X14124048Y-10153952D01*
X14114524Y-10144429D01*
X14419286Y-9963476D02*
X14324048Y-9963476D01*
X14314524Y-10058714D01*
X14324048Y-10049190D01*
X14343095Y-10039667D01*
X14390714Y-10039667D01*
X14409762Y-10049190D01*
X14419286Y-10058714D01*
X14428809Y-10077762D01*
X14428809Y-10125381D01*
X14419286Y-10144429D01*
X14409762Y-10153952D01*
X14390714Y-10163476D01*
X14343095Y-10163476D01*
X14324048Y-10153952D01*
X14314524Y-10144429D01*
X14600238Y-10030143D02*
X14600238Y-10163476D01*
X14552619Y-9953952D02*
X14505000Y-10096810D01*
X14628809Y-10096810D01*
X14695476Y-9963476D02*
X14695476Y-10001571D01*
X14771667Y-9963476D02*
X14771667Y-10001571D01*
X15066905Y-10239667D02*
X15057381Y-10230143D01*
X15038333Y-10201571D01*
X15028809Y-10182524D01*
X15019286Y-10153952D01*
X15009762Y-10106333D01*
X15009762Y-10068238D01*
X15019286Y-10020619D01*
X15028809Y-9992048D01*
X15038333Y-9973000D01*
X15057381Y-9944429D01*
X15066905Y-9934905D01*
X15133571Y-9982524D02*
X15143095Y-9973000D01*
X15162143Y-9963476D01*
X15209762Y-9963476D01*
X15228809Y-9973000D01*
X15238333Y-9982524D01*
X15247857Y-10001571D01*
X15247857Y-10020619D01*
X15238333Y-10049190D01*
X15124048Y-10163476D01*
X15247857Y-10163476D01*
X15485952Y-10163476D02*
X15485952Y-9963476D01*
X15571667Y-10163476D02*
X15571667Y-10058714D01*
X15562143Y-10039667D01*
X15543095Y-10030143D01*
X15514524Y-10030143D01*
X15495476Y-10039667D01*
X15485952Y-10049190D01*
X15695476Y-10163476D02*
X15676428Y-10153952D01*
X15666905Y-10144429D01*
X15657381Y-10125381D01*
X15657381Y-10068238D01*
X15666905Y-10049190D01*
X15676428Y-10039667D01*
X15695476Y-10030143D01*
X15724048Y-10030143D01*
X15743095Y-10039667D01*
X15752619Y-10049190D01*
X15762143Y-10068238D01*
X15762143Y-10125381D01*
X15752619Y-10144429D01*
X15743095Y-10153952D01*
X15724048Y-10163476D01*
X15695476Y-10163476D01*
X15876428Y-10163476D02*
X15857381Y-10153952D01*
X15847857Y-10134905D01*
X15847857Y-9963476D01*
X16028809Y-10153952D02*
X16009762Y-10163476D01*
X15971667Y-10163476D01*
X15952619Y-10153952D01*
X15943095Y-10134905D01*
X15943095Y-10058714D01*
X15952619Y-10039667D01*
X15971667Y-10030143D01*
X16009762Y-10030143D01*
X16028809Y-10039667D01*
X16038333Y-10058714D01*
X16038333Y-10077762D01*
X15943095Y-10096810D01*
X16114524Y-10153952D02*
X16133571Y-10163476D01*
X16171667Y-10163476D01*
X16190714Y-10153952D01*
X16200238Y-10134905D01*
X16200238Y-10125381D01*
X16190714Y-10106333D01*
X16171667Y-10096810D01*
X16143095Y-10096810D01*
X16124048Y-10087286D01*
X16114524Y-10068238D01*
X16114524Y-10058714D01*
X16124048Y-10039667D01*
X16143095Y-10030143D01*
X16171667Y-10030143D01*
X16190714Y-10039667D01*
X16266905Y-10239667D02*
X16276428Y-10230143D01*
X16295476Y-10201571D01*
X16305000Y-10182524D01*
X16314524Y-10153952D01*
X16324048Y-10106333D01*
X16324048Y-10068238D01*
X16314524Y-10020619D01*
X16305000Y-9992048D01*
X16295476Y-9973000D01*
X16276428Y-9944429D01*
X16266905Y-9934905D01*
D15*
X11478891Y-10375891D02*
X11478891Y-10298109D01*
X11401109Y-10298109D01*
X11401109Y-10375891D01*
X11478891Y-10375891D01*
D11*
X11857381Y-10427476D02*
X11743095Y-10427476D01*
X11800238Y-10427476D02*
X11800238Y-10227476D01*
X11781190Y-10256048D01*
X11762143Y-10275095D01*
X11743095Y-10284619D01*
X11943095Y-10408429D02*
X11952619Y-10417952D01*
X11943095Y-10427476D01*
X11933571Y-10417952D01*
X11943095Y-10408429D01*
X11943095Y-10427476D01*
X12143095Y-10427476D02*
X12028809Y-10427476D01*
X12085952Y-10427476D02*
X12085952Y-10227476D01*
X12066905Y-10256048D01*
X12047857Y-10275095D01*
X12028809Y-10284619D01*
X12266905Y-10227476D02*
X12285952Y-10227476D01*
X12305000Y-10237000D01*
X12314524Y-10246524D01*
X12324048Y-10265571D01*
X12333571Y-10303667D01*
X12333571Y-10351286D01*
X12324048Y-10389381D01*
X12314524Y-10408429D01*
X12305000Y-10417952D01*
X12285952Y-10427476D01*
X12266905Y-10427476D01*
X12247857Y-10417952D01*
X12238333Y-10408429D01*
X12228809Y-10389381D01*
X12219286Y-10351286D01*
X12219286Y-10303667D01*
X12228809Y-10265571D01*
X12238333Y-10246524D01*
X12247857Y-10237000D01*
X12266905Y-10227476D01*
X12457381Y-10227476D02*
X12476428Y-10227476D01*
X12495476Y-10237000D01*
X12505000Y-10246524D01*
X12514524Y-10265571D01*
X12524048Y-10303667D01*
X12524048Y-10351286D01*
X12514524Y-10389381D01*
X12505000Y-10408429D01*
X12495476Y-10417952D01*
X12476428Y-10427476D01*
X12457381Y-10427476D01*
X12438333Y-10417952D01*
X12428809Y-10408429D01*
X12419286Y-10389381D01*
X12409762Y-10351286D01*
X12409762Y-10303667D01*
X12419286Y-10265571D01*
X12428809Y-10246524D01*
X12438333Y-10237000D01*
X12457381Y-10227476D01*
X12609762Y-10427476D02*
X12609762Y-10294143D01*
X12609762Y-10313190D02*
X12619286Y-10303667D01*
X12638333Y-10294143D01*
X12666905Y-10294143D01*
X12685952Y-10303667D01*
X12695476Y-10322714D01*
X12695476Y-10427476D01*
X12695476Y-10322714D02*
X12705000Y-10303667D01*
X12724048Y-10294143D01*
X12752619Y-10294143D01*
X12771667Y-10303667D01*
X12781190Y-10322714D01*
X12781190Y-10427476D01*
X12876428Y-10427476D02*
X12876428Y-10294143D01*
X12876428Y-10313190D02*
X12885952Y-10303667D01*
X12905000Y-10294143D01*
X12933571Y-10294143D01*
X12952619Y-10303667D01*
X12962143Y-10322714D01*
X12962143Y-10427476D01*
X12962143Y-10322714D02*
X12971667Y-10303667D01*
X12990714Y-10294143D01*
X13019286Y-10294143D01*
X13038333Y-10303667D01*
X13047857Y-10322714D01*
X13047857Y-10427476D01*
X13438333Y-10217952D02*
X13266905Y-10475095D01*
X13695476Y-10227476D02*
X13714524Y-10227476D01*
X13733571Y-10237000D01*
X13743095Y-10246524D01*
X13752619Y-10265571D01*
X13762143Y-10303667D01*
X13762143Y-10351286D01*
X13752619Y-10389381D01*
X13743095Y-10408429D01*
X13733571Y-10417952D01*
X13714524Y-10427476D01*
X13695476Y-10427476D01*
X13676428Y-10417952D01*
X13666905Y-10408429D01*
X13657381Y-10389381D01*
X13647857Y-10351286D01*
X13647857Y-10303667D01*
X13657381Y-10265571D01*
X13666905Y-10246524D01*
X13676428Y-10237000D01*
X13695476Y-10227476D01*
X13847857Y-10408429D02*
X13857381Y-10417952D01*
X13847857Y-10427476D01*
X13838333Y-10417952D01*
X13847857Y-10408429D01*
X13847857Y-10427476D01*
X13981190Y-10227476D02*
X14000238Y-10227476D01*
X14019286Y-10237000D01*
X14028809Y-10246524D01*
X14038333Y-10265571D01*
X14047857Y-10303667D01*
X14047857Y-10351286D01*
X14038333Y-10389381D01*
X14028809Y-10408429D01*
X14019286Y-10417952D01*
X14000238Y-10427476D01*
X13981190Y-10427476D01*
X13962143Y-10417952D01*
X13952619Y-10408429D01*
X13943095Y-10389381D01*
X13933571Y-10351286D01*
X13933571Y-10303667D01*
X13943095Y-10265571D01*
X13952619Y-10246524D01*
X13962143Y-10237000D01*
X13981190Y-10227476D01*
X14219286Y-10294143D02*
X14219286Y-10427476D01*
X14171667Y-10217952D02*
X14124048Y-10360810D01*
X14247857Y-10360810D01*
X14305000Y-10227476D02*
X14428809Y-10227476D01*
X14362143Y-10303667D01*
X14390714Y-10303667D01*
X14409762Y-10313190D01*
X14419286Y-10322714D01*
X14428809Y-10341762D01*
X14428809Y-10389381D01*
X14419286Y-10408429D01*
X14409762Y-10417952D01*
X14390714Y-10427476D01*
X14333571Y-10427476D01*
X14314524Y-10417952D01*
X14305000Y-10408429D01*
X14495476Y-10227476D02*
X14619286Y-10227476D01*
X14552619Y-10303667D01*
X14581190Y-10303667D01*
X14600238Y-10313190D01*
X14609762Y-10322714D01*
X14619286Y-10341762D01*
X14619286Y-10389381D01*
X14609762Y-10408429D01*
X14600238Y-10417952D01*
X14581190Y-10427476D01*
X14524048Y-10427476D01*
X14505000Y-10417952D01*
X14495476Y-10408429D01*
X14695476Y-10227476D02*
X14695476Y-10265571D01*
X14771667Y-10227476D02*
X14771667Y-10265571D01*
X15066905Y-10503667D02*
X15057381Y-10494143D01*
X15038333Y-10465571D01*
X15028809Y-10446524D01*
X15019286Y-10417952D01*
X15009762Y-10370333D01*
X15009762Y-10332238D01*
X15019286Y-10284619D01*
X15028809Y-10256048D01*
X15038333Y-10237000D01*
X15057381Y-10208429D01*
X15066905Y-10198905D01*
X15247857Y-10427476D02*
X15133571Y-10427476D01*
X15190714Y-10427476D02*
X15190714Y-10227476D01*
X15171667Y-10256048D01*
X15152619Y-10275095D01*
X15133571Y-10284619D01*
X15343095Y-10427476D02*
X15381190Y-10427476D01*
X15400238Y-10417952D01*
X15409762Y-10408429D01*
X15428809Y-10379857D01*
X15438333Y-10341762D01*
X15438333Y-10265571D01*
X15428809Y-10246524D01*
X15419286Y-10237000D01*
X15400238Y-10227476D01*
X15362143Y-10227476D01*
X15343095Y-10237000D01*
X15333571Y-10246524D01*
X15324048Y-10265571D01*
X15324048Y-10313190D01*
X15333571Y-10332238D01*
X15343095Y-10341762D01*
X15362143Y-10351286D01*
X15400238Y-10351286D01*
X15419286Y-10341762D01*
X15428809Y-10332238D01*
X15438333Y-10313190D01*
X15676428Y-10427476D02*
X15676428Y-10227476D01*
X15762143Y-10427476D02*
X15762143Y-10322714D01*
X15752619Y-10303667D01*
X15733571Y-10294143D01*
X15705000Y-10294143D01*
X15685952Y-10303667D01*
X15676428Y-10313190D01*
X15885952Y-10427476D02*
X15866905Y-10417952D01*
X15857381Y-10408429D01*
X15847857Y-10389381D01*
X15847857Y-10332238D01*
X15857381Y-10313190D01*
X15866905Y-10303667D01*
X15885952Y-10294143D01*
X15914524Y-10294143D01*
X15933571Y-10303667D01*
X15943095Y-10313190D01*
X15952619Y-10332238D01*
X15952619Y-10389381D01*
X15943095Y-10408429D01*
X15933571Y-10417952D01*
X15914524Y-10427476D01*
X15885952Y-10427476D01*
X16066905Y-10427476D02*
X16047857Y-10417952D01*
X16038333Y-10398905D01*
X16038333Y-10227476D01*
X16219286Y-10417952D02*
X16200238Y-10427476D01*
X16162143Y-10427476D01*
X16143095Y-10417952D01*
X16133571Y-10398905D01*
X16133571Y-10322714D01*
X16143095Y-10303667D01*
X16162143Y-10294143D01*
X16200238Y-10294143D01*
X16219286Y-10303667D01*
X16228809Y-10322714D01*
X16228809Y-10341762D01*
X16133571Y-10360810D01*
X16305000Y-10417952D02*
X16324048Y-10427476D01*
X16362143Y-10427476D01*
X16381190Y-10417952D01*
X16390714Y-10398905D01*
X16390714Y-10389381D01*
X16381190Y-10370333D01*
X16362143Y-10360810D01*
X16333571Y-10360810D01*
X16314524Y-10351286D01*
X16305000Y-10332238D01*
X16305000Y-10322714D01*
X16314524Y-10303667D01*
X16333571Y-10294143D01*
X16362143Y-10294143D01*
X16381190Y-10303667D01*
X16457381Y-10503667D02*
X16466905Y-10494143D01*
X16485952Y-10465571D01*
X16495476Y-10446524D01*
X16505000Y-10417952D01*
X16514524Y-10370333D01*
X16514524Y-10332238D01*
X16505000Y-10284619D01*
X16495476Y-10256048D01*
X16485952Y-10237000D01*
X16466905Y-10208429D01*
X16457381Y-10198905D01*
M02*
