M48
; DRILL file {KiCad (6.0.2-0)} date Saturday, October 04, 2025 at 10:08:44 AM
; FORMAT={-:-/ absolute / metric / decimal}
; #@! TF.CreationDate,2025-10-04T10:08:44-04:00
; #@! TF.GenerationSoftware,Kicad,Pcbnew,(6.0.2-0)
; #@! TF.FileFunction,Plated,1,2,PTH
FMAT,2
METRIC
; #@! TA.AperFunction,Plated,PTH,ComponentDrill
T1C0.750
; #@! TA.AperFunction,Plated,PTH,ComponentDrill
T2C0.800
; #@! TA.AperFunction,Plated,PTH,ComponentDrill
T3C0.900
; #@! TA.AperFunction,Plated,PTH,ComponentDrill
T4C1.100
; #@! TA.AperFunction,Plated,PTH,ComponentDrill
T5C1.550
%
G90
G05
T1
X159.25Y-59.25
X161.18Y-78.11
X161.79Y-59.25
X163.72Y-78.11
X207.33Y-78.41
X209.25Y-59.0
X209.87Y-78.41
X211.79Y-59.0
T2
X157.37Y-71.35
X158.82Y-52.4
X159.315Y-64.74
X161.145Y-83.4
X161.815Y-64.74
X163.645Y-83.4
X167.53Y-71.35
X168.98Y-52.4
X172.2Y-52.37
X172.2Y-62.53
X175.55Y-52.37
X175.55Y-62.53
X195.95Y-52.32
X195.95Y-62.48
X199.3Y-52.32
X199.3Y-62.48
X203.77Y-71.4
X205.57Y-52.5
X207.345Y-83.5
X209.315Y-64.59
X209.845Y-83.5
X211.815Y-64.59
X213.93Y-71.4
X215.73Y-52.5
T3
X166.05Y-66.3
X166.125Y-58.25
X168.59Y-66.3
X168.665Y-58.25
X202.9Y-58.25
X203.05Y-66.35
X205.44Y-58.25
X205.59Y-66.35
T4
X179.1Y-52.5
X183.7Y-52.5
X187.75Y-52.5
X192.35Y-52.5
T5
X155.25Y-75.0
X155.25Y-79.8
X155.25Y-84.6
X155.3Y-57.45
X155.3Y-62.25
X155.3Y-67.05
X170.15Y-75.85
X170.15Y-80.65
X170.15Y-85.45
X180.3Y-75.9
X180.3Y-80.7
X180.3Y-85.5
X190.3Y-75.85
X190.3Y-80.65
X190.3Y-85.45
X200.45Y-75.9
X200.45Y-80.7
X200.45Y-85.5
X215.15Y-74.95
X215.15Y-79.75
X215.15Y-84.55
X215.3Y-57.45
X215.3Y-62.25
X215.3Y-67.05
T0
M30
