G04 #@! TF.GenerationSoftware,KiCad,Pcbnew,(6.0.2-0)*
G04 #@! TF.CreationDate,2025-10-04T10:08:25-04:00*
G04 #@! TF.ProjectId,Quad_Drone,51756164-5f44-4726-9f6e-652e6b696361,rev?*
G04 #@! TF.SameCoordinates,Original*
G04 #@! TF.FileFunction,Soldermask,Bot*
G04 #@! TF.FilePolarity,Negative*
%FSLAX46Y46*%
G04 Gerber Fmt 4.6, Leading zero omitted, Abs format (unit mm)*
G04 Created by KiCad (PCBNEW (6.0.2-0)) date 2025-10-04 10:08:25*
%MOMM*%
%LPD*%
G01*
G04 APERTURE LIST*
G04 Aperture macros list*
%AMRoundRect*
0 Rectangle with rounded corners*
0 $1 Rounding radius*
0 $2 $3 $4 $5 $6 $7 $8 $9 X,Y pos of 4 corners*
0 Add a 4 corners polygon primitive as box body*
4,1,4,$2,$3,$4,$5,$6,$7,$8,$9,$2,$3,0*
0 Add four circle primitives for the rounded corners*
1,1,$1+$1,$2,$3*
1,1,$1+$1,$4,$5*
1,1,$1+$1,$6,$7*
1,1,$1+$1,$8,$9*
0 Add four rect primitives between the rounded corners*
20,1,$1+$1,$2,$3,$4,$5,0*
20,1,$1+$1,$4,$5,$6,$7,0*
20,1,$1+$1,$6,$7,$8,$9,0*
20,1,$1+$1,$8,$9,$2,$3,0*%
G04 Aperture macros list end*
%ADD10RoundRect,0.250001X-0.799999X-0.799999X0.799999X-0.799999X0.799999X0.799999X-0.799999X0.799999X0*%
%ADD11C,2.100000*%
%ADD12R,1.800000X1.800000*%
%ADD13C,1.800000*%
%ADD14C,2.500000*%
%ADD15R,1.050000X1.500000*%
%ADD16O,1.050000X1.500000*%
%ADD17C,2.550000*%
%ADD18RoundRect,0.249999X-1.025001X1.025001X-1.025001X-1.025001X1.025001X-1.025001X1.025001X1.025001X0*%
%ADD19R,1.600000X1.600000*%
%ADD20C,1.600000*%
%ADD21O,1.600000X1.600000*%
G04 APERTURE END LIST*
D10*
X187750000Y-52500000D03*
D11*
X192350000Y-52500000D03*
X183700000Y-52500000D03*
D10*
X179100000Y-52500000D03*
D12*
X203050000Y-66350000D03*
D13*
X205590000Y-66350000D03*
D12*
X202900000Y-58250000D03*
D13*
X205440000Y-58250000D03*
D12*
X166050000Y-66300000D03*
D13*
X168590000Y-66300000D03*
D12*
X166125000Y-58250000D03*
D13*
X168665000Y-58250000D03*
D14*
X154600000Y-52750000D03*
D15*
X207330000Y-78410000D03*
D16*
X209870000Y-78410000D03*
D15*
X209250000Y-59000000D03*
D16*
X211790000Y-59000000D03*
D15*
X161180000Y-78110000D03*
D16*
X163720000Y-78110000D03*
D15*
X159250000Y-59250000D03*
D16*
X161790000Y-59250000D03*
D17*
X155300000Y-67050000D03*
X155300000Y-62250000D03*
D18*
X155300000Y-57450000D03*
D17*
X155250000Y-84600000D03*
X155250000Y-79800000D03*
D18*
X155250000Y-75000000D03*
D17*
X215300000Y-67050000D03*
X215300000Y-62250000D03*
D18*
X215300000Y-57450000D03*
D17*
X215150000Y-84550000D03*
X215150000Y-79750000D03*
D18*
X215150000Y-74950000D03*
D17*
X190300000Y-85450000D03*
X190300000Y-80650000D03*
D18*
X190300000Y-75850000D03*
D17*
X170150000Y-85450000D03*
X170150000Y-80650000D03*
D18*
X170150000Y-75850000D03*
D17*
X180300000Y-85500000D03*
X180300000Y-80700000D03*
D18*
X180300000Y-75900000D03*
D17*
X200450000Y-85500000D03*
X200450000Y-80700000D03*
D18*
X200450000Y-75900000D03*
D19*
X209314888Y-64590000D03*
D20*
X211814888Y-64590000D03*
X205570000Y-52500000D03*
D21*
X215730000Y-52500000D03*
D20*
X161814888Y-64740000D03*
D19*
X159314888Y-64740000D03*
D20*
X158820000Y-52400000D03*
D21*
X168980000Y-52400000D03*
D20*
X157370000Y-71350000D03*
D21*
X167530000Y-71350000D03*
X172200000Y-62530000D03*
D20*
X172200000Y-52370000D03*
X163644888Y-83400000D03*
D19*
X161144888Y-83400000D03*
D20*
X195950000Y-52320000D03*
D21*
X195950000Y-62480000D03*
X175550000Y-62530000D03*
D20*
X175550000Y-52370000D03*
X203770000Y-71400000D03*
D21*
X213930000Y-71400000D03*
X199300000Y-62480000D03*
D20*
X199300000Y-52320000D03*
X209844888Y-83500000D03*
D19*
X207344888Y-83500000D03*
M02*
