%FSLAX45Y45*%
G04 Gerber Fmt 4.5, Leading zero omitted, Abs format (unit mm)*
G04 Created by KiCad (PCBNEW (6.0.2-0)) date 2025-10-04 10:08:45*
%MOMM*%
%LPD*%
G01*
G04 APERTURE LIST*
%TA.AperFunction,Profile*%
%ADD10C,0.200000*%
%TD*%
%ADD11C,0.200000*%
%ADD12C,0.075000*%
%ADD13C,0.080000*%
%ADD14C,0.090000*%
%ADD15C,0.110000*%
%ADD16C,0.155000*%
G04 APERTURE END LIST*
D10*
X15291532Y-5013007D02*
G75*
G03*
X15191893Y-5124972I10926J-110041D01*
G01*
X21861893Y-8738440D02*
X21861532Y-5113007D01*
X21761893Y-8833440D02*
G75*
G03*
X21861893Y-8738440I-3250J103552D01*
G01*
X15191893Y-8733440D02*
G75*
G03*
X15296893Y-8833440I103203J3238D01*
G01*
X15296893Y-8833440D02*
X21761893Y-8833440D01*
X21756532Y-5013007D02*
X15291532Y-5013007D01*
X15191893Y-8733440D02*
X15191893Y-5124972D01*
X21861532Y-5113007D02*
G75*
G03*
X21756532Y-5013007I-103203J-3238D01*
G01*
D11*
D12*
X15887500Y-5887500D02*
X15962500Y-5962500D01*
X15962500Y-5887500D02*
X15887500Y-5962500D01*
X16080500Y-7773500D02*
X16155500Y-7848500D01*
X16155500Y-7773500D02*
X16080500Y-7848500D01*
X16141500Y-5887500D02*
X16216500Y-5962500D01*
X16216500Y-5887500D02*
X16141500Y-5962500D01*
X16334500Y-7773500D02*
X16409500Y-7848500D01*
X16409500Y-7773500D02*
X16334500Y-7848500D01*
X20695500Y-7803500D02*
X20770500Y-7878500D01*
X20770500Y-7803500D02*
X20695500Y-7878500D01*
X20887500Y-5862500D02*
X20962500Y-5937500D01*
X20962500Y-5862500D02*
X20887500Y-5937500D01*
X20949500Y-7803500D02*
X21024500Y-7878500D01*
X21024500Y-7803500D02*
X20949500Y-7878500D01*
X21141500Y-5862500D02*
X21216500Y-5937500D01*
X21216500Y-5862500D02*
X21141500Y-5937500D01*
D13*
X15777000Y-7135000D02*
G75*
G03*
X15777000Y-7135000I-40000J0D01*
G01*
X15922000Y-5240000D02*
G75*
G03*
X15922000Y-5240000I-40000J0D01*
G01*
X15971489Y-6474000D02*
G75*
G03*
X15971489Y-6474000I-40000J0D01*
G01*
X16154489Y-8340000D02*
G75*
G03*
X16154489Y-8340000I-40000J0D01*
G01*
X16221489Y-6474000D02*
G75*
G03*
X16221489Y-6474000I-40000J0D01*
G01*
X16404489Y-8340000D02*
G75*
G03*
X16404489Y-8340000I-40000J0D01*
G01*
X16793000Y-7135000D02*
G75*
G03*
X16793000Y-7135000I-40000J0D01*
G01*
X16938000Y-5240000D02*
G75*
G03*
X16938000Y-5240000I-40000J0D01*
G01*
X17260000Y-5237000D02*
G75*
G03*
X17260000Y-5237000I-40000J0D01*
G01*
X17260000Y-6253000D02*
G75*
G03*
X17260000Y-6253000I-40000J0D01*
G01*
X17595000Y-5237000D02*
G75*
G03*
X17595000Y-5237000I-40000J0D01*
G01*
X17595000Y-6253000D02*
G75*
G03*
X17595000Y-6253000I-40000J0D01*
G01*
X19635000Y-5232000D02*
G75*
G03*
X19635000Y-5232000I-40000J0D01*
G01*
X19635000Y-6248000D02*
G75*
G03*
X19635000Y-6248000I-40000J0D01*
G01*
X19970000Y-5232000D02*
G75*
G03*
X19970000Y-5232000I-40000J0D01*
G01*
X19970000Y-6248000D02*
G75*
G03*
X19970000Y-6248000I-40000J0D01*
G01*
X20417000Y-7140000D02*
G75*
G03*
X20417000Y-7140000I-40000J0D01*
G01*
X20597000Y-5250000D02*
G75*
G03*
X20597000Y-5250000I-40000J0D01*
G01*
X20774489Y-8350000D02*
G75*
G03*
X20774489Y-8350000I-40000J0D01*
G01*
X20971489Y-6459000D02*
G75*
G03*
X20971489Y-6459000I-40000J0D01*
G01*
X21024489Y-8350000D02*
G75*
G03*
X21024489Y-8350000I-40000J0D01*
G01*
X21221489Y-6459000D02*
G75*
G03*
X21221489Y-6459000I-40000J0D01*
G01*
X21433000Y-7140000D02*
G75*
G03*
X21433000Y-7140000I-40000J0D01*
G01*
X21613000Y-5250000D02*
G75*
G03*
X21613000Y-5250000I-40000J0D01*
G01*
D14*
X16605000Y-6585000D02*
X16605000Y-6675000D01*
X16560000Y-6630000D02*
X16650000Y-6630000D01*
X16612500Y-5780000D02*
X16612500Y-5870000D01*
X16567500Y-5825000D02*
X16657500Y-5825000D01*
X16859000Y-6585000D02*
X16859000Y-6675000D01*
X16814000Y-6630000D02*
X16904000Y-6630000D01*
X16866500Y-5780000D02*
X16866500Y-5870000D01*
X16821500Y-5825000D02*
X16911500Y-5825000D01*
X20290000Y-5780000D02*
X20290000Y-5870000D01*
X20245000Y-5825000D02*
X20335000Y-5825000D01*
X20305000Y-6590000D02*
X20305000Y-6680000D01*
X20260000Y-6635000D02*
X20350000Y-6635000D01*
X20544000Y-5780000D02*
X20544000Y-5870000D01*
X20499000Y-5825000D02*
X20589000Y-5825000D01*
X20559000Y-6590000D02*
X20559000Y-6680000D01*
X20514000Y-6635000D02*
X20604000Y-6635000D01*
D15*
X17948891Y-5288891D02*
X17948891Y-5211109D01*
X17871109Y-5211109D01*
X17871109Y-5288891D01*
X17948891Y-5288891D01*
X18408891Y-5288891D02*
X18408891Y-5211109D01*
X18331109Y-5211109D01*
X18331109Y-5288891D01*
X18408891Y-5288891D01*
X18813891Y-5288891D02*
X18813891Y-5211109D01*
X18736109Y-5211109D01*
X18736109Y-5288891D01*
X18813891Y-5288891D01*
X19273891Y-5288891D02*
X19273891Y-5211109D01*
X19196109Y-5211109D01*
X19196109Y-5288891D01*
X19273891Y-5288891D01*
D16*
X15525000Y-7577500D02*
X15602500Y-7500000D01*
X15525000Y-7422500D01*
X15447500Y-7500000D01*
X15525000Y-7577500D01*
X15525000Y-8057500D02*
X15602500Y-7980000D01*
X15525000Y-7902500D01*
X15447500Y-7980000D01*
X15525000Y-8057500D01*
X15525000Y-8537500D02*
X15602500Y-8460000D01*
X15525000Y-8382500D01*
X15447500Y-8460000D01*
X15525000Y-8537500D01*
X15530000Y-5822500D02*
X15607500Y-5745000D01*
X15530000Y-5667500D01*
X15452500Y-5745000D01*
X15530000Y-5822500D01*
X15530000Y-6302500D02*
X15607500Y-6225000D01*
X15530000Y-6147500D01*
X15452500Y-6225000D01*
X15530000Y-6302500D01*
X15530000Y-6782500D02*
X15607500Y-6705000D01*
X15530000Y-6627500D01*
X15452500Y-6705000D01*
X15530000Y-6782500D01*
X17015000Y-7662500D02*
X17092500Y-7585000D01*
X17015000Y-7507500D01*
X16937500Y-7585000D01*
X17015000Y-7662500D01*
X17015000Y-8142500D02*
X17092500Y-8065000D01*
X17015000Y-7987500D01*
X16937500Y-8065000D01*
X17015000Y-8142500D01*
X17015000Y-8622500D02*
X17092500Y-8545000D01*
X17015000Y-8467500D01*
X16937500Y-8545000D01*
X17015000Y-8622500D01*
X18030000Y-7667500D02*
X18107500Y-7590000D01*
X18030000Y-7512500D01*
X17952500Y-7590000D01*
X18030000Y-7667500D01*
X18030000Y-8147500D02*
X18107500Y-8070000D01*
X18030000Y-7992500D01*
X17952500Y-8070000D01*
X18030000Y-8147500D01*
X18030000Y-8627500D02*
X18107500Y-8550000D01*
X18030000Y-8472500D01*
X17952500Y-8550000D01*
X18030000Y-8627500D01*
X19030000Y-7662500D02*
X19107500Y-7585000D01*
X19030000Y-7507500D01*
X18952500Y-7585000D01*
X19030000Y-7662500D01*
X19030000Y-8142500D02*
X19107500Y-8065000D01*
X19030000Y-7987500D01*
X18952500Y-8065000D01*
X19030000Y-8142500D01*
X19030000Y-8622500D02*
X19107500Y-8545000D01*
X19030000Y-8467500D01*
X18952500Y-8545000D01*
X19030000Y-8622500D01*
X20045000Y-7667500D02*
X20122500Y-7590000D01*
X20045000Y-7512500D01*
X19967500Y-7590000D01*
X20045000Y-7667500D01*
X20045000Y-8147500D02*
X20122500Y-8070000D01*
X20045000Y-7992500D01*
X19967500Y-8070000D01*
X20045000Y-8147500D01*
X20045000Y-8627500D02*
X20122500Y-8550000D01*
X20045000Y-8472500D01*
X19967500Y-8550000D01*
X20045000Y-8627500D01*
X21515000Y-7572500D02*
X21592500Y-7495000D01*
X21515000Y-7417500D01*
X21437500Y-7495000D01*
X21515000Y-7572500D01*
X21515000Y-8052500D02*
X21592500Y-7975000D01*
X21515000Y-7897500D01*
X21437500Y-7975000D01*
X21515000Y-8052500D01*
X21515000Y-8532500D02*
X21592500Y-8455000D01*
X21515000Y-8377500D01*
X21437500Y-8455000D01*
X21515000Y-8532500D01*
X21530000Y-5822500D02*
X21607500Y-5745000D01*
X21530000Y-5667500D01*
X21452500Y-5745000D01*
X21530000Y-5822500D01*
X21530000Y-6302500D02*
X21607500Y-6225000D01*
X21530000Y-6147500D01*
X21452500Y-6225000D01*
X21530000Y-6302500D01*
X21530000Y-6782500D02*
X21607500Y-6705000D01*
X21530000Y-6627500D01*
X21452500Y-6705000D01*
X21530000Y-6782500D01*
D11*
X15439495Y-9153932D02*
X15439495Y-8953932D01*
X15487114Y-8953932D01*
X15515686Y-8963456D01*
X15534733Y-8982503D01*
X15544257Y-9001551D01*
X15553781Y-9039646D01*
X15553781Y-9068218D01*
X15544257Y-9106313D01*
X15534733Y-9125360D01*
X15515686Y-9144408D01*
X15487114Y-9153932D01*
X15439495Y-9153932D01*
X15639495Y-9153932D02*
X15639495Y-9020598D01*
X15639495Y-9058694D02*
X15649019Y-9039646D01*
X15658543Y-9030122D01*
X15677590Y-9020598D01*
X15696638Y-9020598D01*
X15763305Y-9153932D02*
X15763305Y-9020598D01*
X15763305Y-8953932D02*
X15753781Y-8963456D01*
X15763305Y-8972979D01*
X15772829Y-8963456D01*
X15763305Y-8953932D01*
X15763305Y-8972979D01*
X15887114Y-9153932D02*
X15868067Y-9144408D01*
X15858543Y-9125360D01*
X15858543Y-8953932D01*
X15991876Y-9153932D02*
X15972829Y-9144408D01*
X15963305Y-9125360D01*
X15963305Y-8953932D01*
X16220448Y-9153932D02*
X16220448Y-8953932D01*
X16287114Y-9096789D01*
X16353781Y-8953932D01*
X16353781Y-9153932D01*
X16534733Y-9153932D02*
X16534733Y-9049170D01*
X16525210Y-9030122D01*
X16506162Y-9020598D01*
X16468067Y-9020598D01*
X16449019Y-9030122D01*
X16534733Y-9144408D02*
X16515686Y-9153932D01*
X16468067Y-9153932D01*
X16449019Y-9144408D01*
X16439495Y-9125360D01*
X16439495Y-9106313D01*
X16449019Y-9087265D01*
X16468067Y-9077741D01*
X16515686Y-9077741D01*
X16534733Y-9068218D01*
X16629971Y-9020598D02*
X16629971Y-9220598D01*
X16629971Y-9030122D02*
X16649019Y-9020598D01*
X16687114Y-9020598D01*
X16706162Y-9030122D01*
X16715686Y-9039646D01*
X16725210Y-9058694D01*
X16725210Y-9115837D01*
X16715686Y-9134884D01*
X16706162Y-9144408D01*
X16687114Y-9153932D01*
X16649019Y-9153932D01*
X16629971Y-9144408D01*
X16810924Y-9134884D02*
X16820448Y-9144408D01*
X16810924Y-9153932D01*
X16801400Y-9144408D01*
X16810924Y-9134884D01*
X16810924Y-9153932D01*
X16810924Y-9030122D02*
X16820448Y-9039646D01*
X16810924Y-9049170D01*
X16801400Y-9039646D01*
X16810924Y-9030122D01*
X16810924Y-9049170D01*
D12*
X15106876Y-9445956D02*
X15181876Y-9520956D01*
X15181876Y-9445956D02*
X15106876Y-9520956D01*
D11*
X15477590Y-9373932D02*
X15496638Y-9373932D01*
X15515686Y-9383456D01*
X15525210Y-9392979D01*
X15534733Y-9412027D01*
X15544257Y-9450122D01*
X15544257Y-9497741D01*
X15534733Y-9535837D01*
X15525210Y-9554884D01*
X15515686Y-9564408D01*
X15496638Y-9573932D01*
X15477590Y-9573932D01*
X15458543Y-9564408D01*
X15449019Y-9554884D01*
X15439495Y-9535837D01*
X15429971Y-9497741D01*
X15429971Y-9450122D01*
X15439495Y-9412027D01*
X15449019Y-9392979D01*
X15458543Y-9383456D01*
X15477590Y-9373932D01*
X15629971Y-9554884D02*
X15639495Y-9564408D01*
X15629971Y-9573932D01*
X15620448Y-9564408D01*
X15629971Y-9554884D01*
X15629971Y-9573932D01*
X15706162Y-9373932D02*
X15839495Y-9373932D01*
X15753781Y-9573932D01*
X16010924Y-9373932D02*
X15915686Y-9373932D01*
X15906162Y-9469170D01*
X15915686Y-9459646D01*
X15934733Y-9450122D01*
X15982352Y-9450122D01*
X16001400Y-9459646D01*
X16010924Y-9469170D01*
X16020448Y-9488218D01*
X16020448Y-9535837D01*
X16010924Y-9554884D01*
X16001400Y-9564408D01*
X15982352Y-9573932D01*
X15934733Y-9573932D01*
X15915686Y-9564408D01*
X15906162Y-9554884D01*
X16144257Y-9373932D02*
X16163305Y-9373932D01*
X16182352Y-9383456D01*
X16191876Y-9392979D01*
X16201400Y-9412027D01*
X16210924Y-9450122D01*
X16210924Y-9497741D01*
X16201400Y-9535837D01*
X16191876Y-9554884D01*
X16182352Y-9564408D01*
X16163305Y-9573932D01*
X16144257Y-9573932D01*
X16125210Y-9564408D01*
X16115686Y-9554884D01*
X16106162Y-9535837D01*
X16096638Y-9497741D01*
X16096638Y-9450122D01*
X16106162Y-9412027D01*
X16115686Y-9392979D01*
X16125210Y-9383456D01*
X16144257Y-9373932D01*
X16296638Y-9573932D02*
X16296638Y-9440598D01*
X16296638Y-9459646D02*
X16306162Y-9450122D01*
X16325210Y-9440598D01*
X16353781Y-9440598D01*
X16372829Y-9450122D01*
X16382352Y-9469170D01*
X16382352Y-9573932D01*
X16382352Y-9469170D02*
X16391876Y-9450122D01*
X16410924Y-9440598D01*
X16439495Y-9440598D01*
X16458543Y-9450122D01*
X16468067Y-9469170D01*
X16468067Y-9573932D01*
X16563305Y-9573932D02*
X16563305Y-9440598D01*
X16563305Y-9459646D02*
X16572829Y-9450122D01*
X16591876Y-9440598D01*
X16620448Y-9440598D01*
X16639495Y-9450122D01*
X16649019Y-9469170D01*
X16649019Y-9573932D01*
X16649019Y-9469170D02*
X16658543Y-9450122D01*
X16677590Y-9440598D01*
X16706162Y-9440598D01*
X16725210Y-9450122D01*
X16734733Y-9469170D01*
X16734733Y-9573932D01*
X17125210Y-9364408D02*
X16953781Y-9621551D01*
X17382352Y-9373932D02*
X17401400Y-9373932D01*
X17420448Y-9383456D01*
X17429972Y-9392979D01*
X17439495Y-9412027D01*
X17449019Y-9450122D01*
X17449019Y-9497741D01*
X17439495Y-9535837D01*
X17429972Y-9554884D01*
X17420448Y-9564408D01*
X17401400Y-9573932D01*
X17382352Y-9573932D01*
X17363305Y-9564408D01*
X17353781Y-9554884D01*
X17344257Y-9535837D01*
X17334733Y-9497741D01*
X17334733Y-9450122D01*
X17344257Y-9412027D01*
X17353781Y-9392979D01*
X17363305Y-9383456D01*
X17382352Y-9373932D01*
X17534733Y-9554884D02*
X17544257Y-9564408D01*
X17534733Y-9573932D01*
X17525210Y-9564408D01*
X17534733Y-9554884D01*
X17534733Y-9573932D01*
X17668067Y-9373932D02*
X17687114Y-9373932D01*
X17706162Y-9383456D01*
X17715686Y-9392979D01*
X17725210Y-9412027D01*
X17734733Y-9450122D01*
X17734733Y-9497741D01*
X17725210Y-9535837D01*
X17715686Y-9554884D01*
X17706162Y-9564408D01*
X17687114Y-9573932D01*
X17668067Y-9573932D01*
X17649019Y-9564408D01*
X17639495Y-9554884D01*
X17629972Y-9535837D01*
X17620448Y-9497741D01*
X17620448Y-9450122D01*
X17629972Y-9412027D01*
X17639495Y-9392979D01*
X17649019Y-9383456D01*
X17668067Y-9373932D01*
X17810924Y-9392979D02*
X17820448Y-9383456D01*
X17839495Y-9373932D01*
X17887114Y-9373932D01*
X17906162Y-9383456D01*
X17915686Y-9392979D01*
X17925210Y-9412027D01*
X17925210Y-9431075D01*
X17915686Y-9459646D01*
X17801400Y-9573932D01*
X17925210Y-9573932D01*
X18020448Y-9573932D02*
X18058543Y-9573932D01*
X18077591Y-9564408D01*
X18087114Y-9554884D01*
X18106162Y-9526313D01*
X18115686Y-9488218D01*
X18115686Y-9412027D01*
X18106162Y-9392979D01*
X18096638Y-9383456D01*
X18077591Y-9373932D01*
X18039495Y-9373932D01*
X18020448Y-9383456D01*
X18010924Y-9392979D01*
X18001400Y-9412027D01*
X18001400Y-9459646D01*
X18010924Y-9478694D01*
X18020448Y-9488218D01*
X18039495Y-9497741D01*
X18077591Y-9497741D01*
X18096638Y-9488218D01*
X18106162Y-9478694D01*
X18115686Y-9459646D01*
X18296638Y-9373932D02*
X18201400Y-9373932D01*
X18191876Y-9469170D01*
X18201400Y-9459646D01*
X18220448Y-9450122D01*
X18268067Y-9450122D01*
X18287114Y-9459646D01*
X18296638Y-9469170D01*
X18306162Y-9488218D01*
X18306162Y-9535837D01*
X18296638Y-9554884D01*
X18287114Y-9564408D01*
X18268067Y-9573932D01*
X18220448Y-9573932D01*
X18201400Y-9564408D01*
X18191876Y-9554884D01*
X18382352Y-9373932D02*
X18382352Y-9412027D01*
X18458543Y-9373932D02*
X18458543Y-9412027D01*
X18753781Y-9650122D02*
X18744257Y-9640598D01*
X18725210Y-9612027D01*
X18715686Y-9592979D01*
X18706162Y-9564408D01*
X18696638Y-9516789D01*
X18696638Y-9478694D01*
X18706162Y-9431075D01*
X18715686Y-9402503D01*
X18725210Y-9383456D01*
X18744257Y-9354884D01*
X18753781Y-9345360D01*
X18858543Y-9459646D02*
X18839495Y-9450122D01*
X18829972Y-9440598D01*
X18820448Y-9421551D01*
X18820448Y-9412027D01*
X18829972Y-9392979D01*
X18839495Y-9383456D01*
X18858543Y-9373932D01*
X18896638Y-9373932D01*
X18915686Y-9383456D01*
X18925210Y-9392979D01*
X18934733Y-9412027D01*
X18934733Y-9421551D01*
X18925210Y-9440598D01*
X18915686Y-9450122D01*
X18896638Y-9459646D01*
X18858543Y-9459646D01*
X18839495Y-9469170D01*
X18829972Y-9478694D01*
X18820448Y-9497741D01*
X18820448Y-9535837D01*
X18829972Y-9554884D01*
X18839495Y-9564408D01*
X18858543Y-9573932D01*
X18896638Y-9573932D01*
X18915686Y-9564408D01*
X18925210Y-9554884D01*
X18934733Y-9535837D01*
X18934733Y-9497741D01*
X18925210Y-9478694D01*
X18915686Y-9469170D01*
X18896638Y-9459646D01*
X19172829Y-9573932D02*
X19172829Y-9373932D01*
X19258543Y-9573932D02*
X19258543Y-9469170D01*
X19249019Y-9450122D01*
X19229972Y-9440598D01*
X19201400Y-9440598D01*
X19182352Y-9450122D01*
X19172829Y-9459646D01*
X19382352Y-9573932D02*
X19363305Y-9564408D01*
X19353781Y-9554884D01*
X19344257Y-9535837D01*
X19344257Y-9478694D01*
X19353781Y-9459646D01*
X19363305Y-9450122D01*
X19382352Y-9440598D01*
X19410924Y-9440598D01*
X19429972Y-9450122D01*
X19439495Y-9459646D01*
X19449019Y-9478694D01*
X19449019Y-9535837D01*
X19439495Y-9554884D01*
X19429972Y-9564408D01*
X19410924Y-9573932D01*
X19382352Y-9573932D01*
X19563305Y-9573932D02*
X19544257Y-9564408D01*
X19534733Y-9545360D01*
X19534733Y-9373932D01*
X19715686Y-9564408D02*
X19696638Y-9573932D01*
X19658543Y-9573932D01*
X19639495Y-9564408D01*
X19629972Y-9545360D01*
X19629972Y-9469170D01*
X19639495Y-9450122D01*
X19658543Y-9440598D01*
X19696638Y-9440598D01*
X19715686Y-9450122D01*
X19725210Y-9469170D01*
X19725210Y-9488218D01*
X19629972Y-9507265D01*
X19801400Y-9564408D02*
X19820448Y-9573932D01*
X19858543Y-9573932D01*
X19877591Y-9564408D01*
X19887114Y-9545360D01*
X19887114Y-9535837D01*
X19877591Y-9516789D01*
X19858543Y-9507265D01*
X19829972Y-9507265D01*
X19810924Y-9497741D01*
X19801400Y-9478694D01*
X19801400Y-9469170D01*
X19810924Y-9450122D01*
X19829972Y-9440598D01*
X19858543Y-9440598D01*
X19877591Y-9450122D01*
X19953781Y-9650122D02*
X19963305Y-9640598D01*
X19982352Y-9612027D01*
X19991876Y-9592979D01*
X20001400Y-9564408D01*
X20010924Y-9516789D01*
X20010924Y-9478694D01*
X20001400Y-9431075D01*
X19991876Y-9402503D01*
X19982352Y-9383456D01*
X19963305Y-9354884D01*
X19953781Y-9345360D01*
D13*
X15181876Y-9747456D02*
G75*
G03*
X15181876Y-9747456I-40000J0D01*
G01*
D11*
X15477590Y-9637932D02*
X15496638Y-9637932D01*
X15515686Y-9647456D01*
X15525210Y-9656979D01*
X15534733Y-9676027D01*
X15544257Y-9714122D01*
X15544257Y-9761741D01*
X15534733Y-9799837D01*
X15525210Y-9818884D01*
X15515686Y-9828408D01*
X15496638Y-9837932D01*
X15477590Y-9837932D01*
X15458543Y-9828408D01*
X15449019Y-9818884D01*
X15439495Y-9799837D01*
X15429971Y-9761741D01*
X15429971Y-9714122D01*
X15439495Y-9676027D01*
X15449019Y-9656979D01*
X15458543Y-9647456D01*
X15477590Y-9637932D01*
X15629971Y-9818884D02*
X15639495Y-9828408D01*
X15629971Y-9837932D01*
X15620448Y-9828408D01*
X15629971Y-9818884D01*
X15629971Y-9837932D01*
X15753781Y-9723646D02*
X15734733Y-9714122D01*
X15725210Y-9704598D01*
X15715686Y-9685551D01*
X15715686Y-9676027D01*
X15725210Y-9656979D01*
X15734733Y-9647456D01*
X15753781Y-9637932D01*
X15791876Y-9637932D01*
X15810924Y-9647456D01*
X15820448Y-9656979D01*
X15829971Y-9676027D01*
X15829971Y-9685551D01*
X15820448Y-9704598D01*
X15810924Y-9714122D01*
X15791876Y-9723646D01*
X15753781Y-9723646D01*
X15734733Y-9733170D01*
X15725210Y-9742694D01*
X15715686Y-9761741D01*
X15715686Y-9799837D01*
X15725210Y-9818884D01*
X15734733Y-9828408D01*
X15753781Y-9837932D01*
X15791876Y-9837932D01*
X15810924Y-9828408D01*
X15820448Y-9818884D01*
X15829971Y-9799837D01*
X15829971Y-9761741D01*
X15820448Y-9742694D01*
X15810924Y-9733170D01*
X15791876Y-9723646D01*
X15953781Y-9637932D02*
X15972829Y-9637932D01*
X15991876Y-9647456D01*
X16001400Y-9656979D01*
X16010924Y-9676027D01*
X16020448Y-9714122D01*
X16020448Y-9761741D01*
X16010924Y-9799837D01*
X16001400Y-9818884D01*
X15991876Y-9828408D01*
X15972829Y-9837932D01*
X15953781Y-9837932D01*
X15934733Y-9828408D01*
X15925210Y-9818884D01*
X15915686Y-9799837D01*
X15906162Y-9761741D01*
X15906162Y-9714122D01*
X15915686Y-9676027D01*
X15925210Y-9656979D01*
X15934733Y-9647456D01*
X15953781Y-9637932D01*
X16144257Y-9637932D02*
X16163305Y-9637932D01*
X16182352Y-9647456D01*
X16191876Y-9656979D01*
X16201400Y-9676027D01*
X16210924Y-9714122D01*
X16210924Y-9761741D01*
X16201400Y-9799837D01*
X16191876Y-9818884D01*
X16182352Y-9828408D01*
X16163305Y-9837932D01*
X16144257Y-9837932D01*
X16125210Y-9828408D01*
X16115686Y-9818884D01*
X16106162Y-9799837D01*
X16096638Y-9761741D01*
X16096638Y-9714122D01*
X16106162Y-9676027D01*
X16115686Y-9656979D01*
X16125210Y-9647456D01*
X16144257Y-9637932D01*
X16296638Y-9837932D02*
X16296638Y-9704598D01*
X16296638Y-9723646D02*
X16306162Y-9714122D01*
X16325210Y-9704598D01*
X16353781Y-9704598D01*
X16372829Y-9714122D01*
X16382352Y-9733170D01*
X16382352Y-9837932D01*
X16382352Y-9733170D02*
X16391876Y-9714122D01*
X16410924Y-9704598D01*
X16439495Y-9704598D01*
X16458543Y-9714122D01*
X16468067Y-9733170D01*
X16468067Y-9837932D01*
X16563305Y-9837932D02*
X16563305Y-9704598D01*
X16563305Y-9723646D02*
X16572829Y-9714122D01*
X16591876Y-9704598D01*
X16620448Y-9704598D01*
X16639495Y-9714122D01*
X16649019Y-9733170D01*
X16649019Y-9837932D01*
X16649019Y-9733170D02*
X16658543Y-9714122D01*
X16677590Y-9704598D01*
X16706162Y-9704598D01*
X16725210Y-9714122D01*
X16734733Y-9733170D01*
X16734733Y-9837932D01*
X17125210Y-9628408D02*
X16953781Y-9885551D01*
X17382352Y-9637932D02*
X17401400Y-9637932D01*
X17420448Y-9647456D01*
X17429972Y-9656979D01*
X17439495Y-9676027D01*
X17449019Y-9714122D01*
X17449019Y-9761741D01*
X17439495Y-9799837D01*
X17429972Y-9818884D01*
X17420448Y-9828408D01*
X17401400Y-9837932D01*
X17382352Y-9837932D01*
X17363305Y-9828408D01*
X17353781Y-9818884D01*
X17344257Y-9799837D01*
X17334733Y-9761741D01*
X17334733Y-9714122D01*
X17344257Y-9676027D01*
X17353781Y-9656979D01*
X17363305Y-9647456D01*
X17382352Y-9637932D01*
X17534733Y-9818884D02*
X17544257Y-9828408D01*
X17534733Y-9837932D01*
X17525210Y-9828408D01*
X17534733Y-9818884D01*
X17534733Y-9837932D01*
X17668067Y-9637932D02*
X17687114Y-9637932D01*
X17706162Y-9647456D01*
X17715686Y-9656979D01*
X17725210Y-9676027D01*
X17734733Y-9714122D01*
X17734733Y-9761741D01*
X17725210Y-9799837D01*
X17715686Y-9818884D01*
X17706162Y-9828408D01*
X17687114Y-9837932D01*
X17668067Y-9837932D01*
X17649019Y-9828408D01*
X17639495Y-9818884D01*
X17629972Y-9799837D01*
X17620448Y-9761741D01*
X17620448Y-9714122D01*
X17629972Y-9676027D01*
X17639495Y-9656979D01*
X17649019Y-9647456D01*
X17668067Y-9637932D01*
X17801400Y-9637932D02*
X17925210Y-9637932D01*
X17858543Y-9714122D01*
X17887114Y-9714122D01*
X17906162Y-9723646D01*
X17915686Y-9733170D01*
X17925210Y-9752218D01*
X17925210Y-9799837D01*
X17915686Y-9818884D01*
X17906162Y-9828408D01*
X17887114Y-9837932D01*
X17829972Y-9837932D01*
X17810924Y-9828408D01*
X17801400Y-9818884D01*
X18115686Y-9837932D02*
X18001400Y-9837932D01*
X18058543Y-9837932D02*
X18058543Y-9637932D01*
X18039495Y-9666503D01*
X18020448Y-9685551D01*
X18001400Y-9695075D01*
X18296638Y-9637932D02*
X18201400Y-9637932D01*
X18191876Y-9733170D01*
X18201400Y-9723646D01*
X18220448Y-9714122D01*
X18268067Y-9714122D01*
X18287114Y-9723646D01*
X18296638Y-9733170D01*
X18306162Y-9752218D01*
X18306162Y-9799837D01*
X18296638Y-9818884D01*
X18287114Y-9828408D01*
X18268067Y-9837932D01*
X18220448Y-9837932D01*
X18201400Y-9828408D01*
X18191876Y-9818884D01*
X18382352Y-9637932D02*
X18382352Y-9676027D01*
X18458543Y-9637932D02*
X18458543Y-9676027D01*
X18753781Y-9914122D02*
X18744257Y-9904598D01*
X18725210Y-9876027D01*
X18715686Y-9856979D01*
X18706162Y-9828408D01*
X18696638Y-9780789D01*
X18696638Y-9742694D01*
X18706162Y-9695075D01*
X18715686Y-9666503D01*
X18725210Y-9647456D01*
X18744257Y-9618884D01*
X18753781Y-9609360D01*
X18820448Y-9656979D02*
X18829972Y-9647456D01*
X18849019Y-9637932D01*
X18896638Y-9637932D01*
X18915686Y-9647456D01*
X18925210Y-9656979D01*
X18934733Y-9676027D01*
X18934733Y-9695075D01*
X18925210Y-9723646D01*
X18810924Y-9837932D01*
X18934733Y-9837932D01*
X19106162Y-9704598D02*
X19106162Y-9837932D01*
X19058543Y-9628408D02*
X19010924Y-9771265D01*
X19134733Y-9771265D01*
X19363305Y-9837932D02*
X19363305Y-9637932D01*
X19449019Y-9837932D02*
X19449019Y-9733170D01*
X19439495Y-9714122D01*
X19420448Y-9704598D01*
X19391876Y-9704598D01*
X19372829Y-9714122D01*
X19363305Y-9723646D01*
X19572829Y-9837932D02*
X19553781Y-9828408D01*
X19544257Y-9818884D01*
X19534733Y-9799837D01*
X19534733Y-9742694D01*
X19544257Y-9723646D01*
X19553781Y-9714122D01*
X19572829Y-9704598D01*
X19601400Y-9704598D01*
X19620448Y-9714122D01*
X19629972Y-9723646D01*
X19639495Y-9742694D01*
X19639495Y-9799837D01*
X19629972Y-9818884D01*
X19620448Y-9828408D01*
X19601400Y-9837932D01*
X19572829Y-9837932D01*
X19753781Y-9837932D02*
X19734733Y-9828408D01*
X19725210Y-9809360D01*
X19725210Y-9637932D01*
X19906162Y-9828408D02*
X19887114Y-9837932D01*
X19849019Y-9837932D01*
X19829972Y-9828408D01*
X19820448Y-9809360D01*
X19820448Y-9733170D01*
X19829972Y-9714122D01*
X19849019Y-9704598D01*
X19887114Y-9704598D01*
X19906162Y-9714122D01*
X19915686Y-9733170D01*
X19915686Y-9752218D01*
X19820448Y-9771265D01*
X19991876Y-9828408D02*
X20010924Y-9837932D01*
X20049019Y-9837932D01*
X20068067Y-9828408D01*
X20077591Y-9809360D01*
X20077591Y-9799837D01*
X20068067Y-9780789D01*
X20049019Y-9771265D01*
X20020448Y-9771265D01*
X20001400Y-9761741D01*
X19991876Y-9742694D01*
X19991876Y-9733170D01*
X20001400Y-9714122D01*
X20020448Y-9704598D01*
X20049019Y-9704598D01*
X20068067Y-9714122D01*
X20144257Y-9914122D02*
X20153781Y-9904598D01*
X20172829Y-9876027D01*
X20182352Y-9856979D01*
X20191876Y-9828408D01*
X20201400Y-9780789D01*
X20201400Y-9742694D01*
X20191876Y-9695075D01*
X20182352Y-9666503D01*
X20172829Y-9647456D01*
X20153781Y-9618884D01*
X20144257Y-9609360D01*
D14*
X15136876Y-9966456D02*
X15136876Y-10056456D01*
X15091876Y-10011456D02*
X15181876Y-10011456D01*
D11*
X15477590Y-9901932D02*
X15496638Y-9901932D01*
X15515686Y-9911456D01*
X15525210Y-9920979D01*
X15534733Y-9940027D01*
X15544257Y-9978122D01*
X15544257Y-10025741D01*
X15534733Y-10063837D01*
X15525210Y-10082884D01*
X15515686Y-10092408D01*
X15496638Y-10101932D01*
X15477590Y-10101932D01*
X15458543Y-10092408D01*
X15449019Y-10082884D01*
X15439495Y-10063837D01*
X15429971Y-10025741D01*
X15429971Y-9978122D01*
X15439495Y-9940027D01*
X15449019Y-9920979D01*
X15458543Y-9911456D01*
X15477590Y-9901932D01*
X15629971Y-10082884D02*
X15639495Y-10092408D01*
X15629971Y-10101932D01*
X15620448Y-10092408D01*
X15629971Y-10082884D01*
X15629971Y-10101932D01*
X15734733Y-10101932D02*
X15772829Y-10101932D01*
X15791876Y-10092408D01*
X15801400Y-10082884D01*
X15820448Y-10054313D01*
X15829971Y-10016218D01*
X15829971Y-9940027D01*
X15820448Y-9920979D01*
X15810924Y-9911456D01*
X15791876Y-9901932D01*
X15753781Y-9901932D01*
X15734733Y-9911456D01*
X15725210Y-9920979D01*
X15715686Y-9940027D01*
X15715686Y-9987646D01*
X15725210Y-10006694D01*
X15734733Y-10016218D01*
X15753781Y-10025741D01*
X15791876Y-10025741D01*
X15810924Y-10016218D01*
X15820448Y-10006694D01*
X15829971Y-9987646D01*
X15953781Y-9901932D02*
X15972829Y-9901932D01*
X15991876Y-9911456D01*
X16001400Y-9920979D01*
X16010924Y-9940027D01*
X16020448Y-9978122D01*
X16020448Y-10025741D01*
X16010924Y-10063837D01*
X16001400Y-10082884D01*
X15991876Y-10092408D01*
X15972829Y-10101932D01*
X15953781Y-10101932D01*
X15934733Y-10092408D01*
X15925210Y-10082884D01*
X15915686Y-10063837D01*
X15906162Y-10025741D01*
X15906162Y-9978122D01*
X15915686Y-9940027D01*
X15925210Y-9920979D01*
X15934733Y-9911456D01*
X15953781Y-9901932D01*
X16144257Y-9901932D02*
X16163305Y-9901932D01*
X16182352Y-9911456D01*
X16191876Y-9920979D01*
X16201400Y-9940027D01*
X16210924Y-9978122D01*
X16210924Y-10025741D01*
X16201400Y-10063837D01*
X16191876Y-10082884D01*
X16182352Y-10092408D01*
X16163305Y-10101932D01*
X16144257Y-10101932D01*
X16125210Y-10092408D01*
X16115686Y-10082884D01*
X16106162Y-10063837D01*
X16096638Y-10025741D01*
X16096638Y-9978122D01*
X16106162Y-9940027D01*
X16115686Y-9920979D01*
X16125210Y-9911456D01*
X16144257Y-9901932D01*
X16296638Y-10101932D02*
X16296638Y-9968598D01*
X16296638Y-9987646D02*
X16306162Y-9978122D01*
X16325210Y-9968598D01*
X16353781Y-9968598D01*
X16372829Y-9978122D01*
X16382352Y-9997170D01*
X16382352Y-10101932D01*
X16382352Y-9997170D02*
X16391876Y-9978122D01*
X16410924Y-9968598D01*
X16439495Y-9968598D01*
X16458543Y-9978122D01*
X16468067Y-9997170D01*
X16468067Y-10101932D01*
X16563305Y-10101932D02*
X16563305Y-9968598D01*
X16563305Y-9987646D02*
X16572829Y-9978122D01*
X16591876Y-9968598D01*
X16620448Y-9968598D01*
X16639495Y-9978122D01*
X16649019Y-9997170D01*
X16649019Y-10101932D01*
X16649019Y-9997170D02*
X16658543Y-9978122D01*
X16677590Y-9968598D01*
X16706162Y-9968598D01*
X16725210Y-9978122D01*
X16734733Y-9997170D01*
X16734733Y-10101932D01*
X17125210Y-9892408D02*
X16953781Y-10149551D01*
X17382352Y-9901932D02*
X17401400Y-9901932D01*
X17420448Y-9911456D01*
X17429972Y-9920979D01*
X17439495Y-9940027D01*
X17449019Y-9978122D01*
X17449019Y-10025741D01*
X17439495Y-10063837D01*
X17429972Y-10082884D01*
X17420448Y-10092408D01*
X17401400Y-10101932D01*
X17382352Y-10101932D01*
X17363305Y-10092408D01*
X17353781Y-10082884D01*
X17344257Y-10063837D01*
X17334733Y-10025741D01*
X17334733Y-9978122D01*
X17344257Y-9940027D01*
X17353781Y-9920979D01*
X17363305Y-9911456D01*
X17382352Y-9901932D01*
X17534733Y-10082884D02*
X17544257Y-10092408D01*
X17534733Y-10101932D01*
X17525210Y-10092408D01*
X17534733Y-10082884D01*
X17534733Y-10101932D01*
X17668067Y-9901932D02*
X17687114Y-9901932D01*
X17706162Y-9911456D01*
X17715686Y-9920979D01*
X17725210Y-9940027D01*
X17734733Y-9978122D01*
X17734733Y-10025741D01*
X17725210Y-10063837D01*
X17715686Y-10082884D01*
X17706162Y-10092408D01*
X17687114Y-10101932D01*
X17668067Y-10101932D01*
X17649019Y-10092408D01*
X17639495Y-10082884D01*
X17629972Y-10063837D01*
X17620448Y-10025741D01*
X17620448Y-9978122D01*
X17629972Y-9940027D01*
X17639495Y-9920979D01*
X17649019Y-9911456D01*
X17668067Y-9901932D01*
X17801400Y-9901932D02*
X17925210Y-9901932D01*
X17858543Y-9978122D01*
X17887114Y-9978122D01*
X17906162Y-9987646D01*
X17915686Y-9997170D01*
X17925210Y-10016218D01*
X17925210Y-10063837D01*
X17915686Y-10082884D01*
X17906162Y-10092408D01*
X17887114Y-10101932D01*
X17829972Y-10101932D01*
X17810924Y-10092408D01*
X17801400Y-10082884D01*
X18106162Y-9901932D02*
X18010924Y-9901932D01*
X18001400Y-9997170D01*
X18010924Y-9987646D01*
X18029972Y-9978122D01*
X18077591Y-9978122D01*
X18096638Y-9987646D01*
X18106162Y-9997170D01*
X18115686Y-10016218D01*
X18115686Y-10063837D01*
X18106162Y-10082884D01*
X18096638Y-10092408D01*
X18077591Y-10101932D01*
X18029972Y-10101932D01*
X18010924Y-10092408D01*
X18001400Y-10082884D01*
X18287114Y-9968598D02*
X18287114Y-10101932D01*
X18239495Y-9892408D02*
X18191876Y-10035265D01*
X18315686Y-10035265D01*
X18382352Y-9901932D02*
X18382352Y-9940027D01*
X18458543Y-9901932D02*
X18458543Y-9940027D01*
X18753781Y-10178122D02*
X18744257Y-10168598D01*
X18725210Y-10140027D01*
X18715686Y-10120979D01*
X18706162Y-10092408D01*
X18696638Y-10044789D01*
X18696638Y-10006694D01*
X18706162Y-9959075D01*
X18715686Y-9930503D01*
X18725210Y-9911456D01*
X18744257Y-9882884D01*
X18753781Y-9873360D01*
X18858543Y-9987646D02*
X18839495Y-9978122D01*
X18829972Y-9968598D01*
X18820448Y-9949551D01*
X18820448Y-9940027D01*
X18829972Y-9920979D01*
X18839495Y-9911456D01*
X18858543Y-9901932D01*
X18896638Y-9901932D01*
X18915686Y-9911456D01*
X18925210Y-9920979D01*
X18934733Y-9940027D01*
X18934733Y-9949551D01*
X18925210Y-9968598D01*
X18915686Y-9978122D01*
X18896638Y-9987646D01*
X18858543Y-9987646D01*
X18839495Y-9997170D01*
X18829972Y-10006694D01*
X18820448Y-10025741D01*
X18820448Y-10063837D01*
X18829972Y-10082884D01*
X18839495Y-10092408D01*
X18858543Y-10101932D01*
X18896638Y-10101932D01*
X18915686Y-10092408D01*
X18925210Y-10082884D01*
X18934733Y-10063837D01*
X18934733Y-10025741D01*
X18925210Y-10006694D01*
X18915686Y-9997170D01*
X18896638Y-9987646D01*
X19172829Y-10101932D02*
X19172829Y-9901932D01*
X19258543Y-10101932D02*
X19258543Y-9997170D01*
X19249019Y-9978122D01*
X19229972Y-9968598D01*
X19201400Y-9968598D01*
X19182352Y-9978122D01*
X19172829Y-9987646D01*
X19382352Y-10101932D02*
X19363305Y-10092408D01*
X19353781Y-10082884D01*
X19344257Y-10063837D01*
X19344257Y-10006694D01*
X19353781Y-9987646D01*
X19363305Y-9978122D01*
X19382352Y-9968598D01*
X19410924Y-9968598D01*
X19429972Y-9978122D01*
X19439495Y-9987646D01*
X19449019Y-10006694D01*
X19449019Y-10063837D01*
X19439495Y-10082884D01*
X19429972Y-10092408D01*
X19410924Y-10101932D01*
X19382352Y-10101932D01*
X19563305Y-10101932D02*
X19544257Y-10092408D01*
X19534733Y-10073360D01*
X19534733Y-9901932D01*
X19715686Y-10092408D02*
X19696638Y-10101932D01*
X19658543Y-10101932D01*
X19639495Y-10092408D01*
X19629972Y-10073360D01*
X19629972Y-9997170D01*
X19639495Y-9978122D01*
X19658543Y-9968598D01*
X19696638Y-9968598D01*
X19715686Y-9978122D01*
X19725210Y-9997170D01*
X19725210Y-10016218D01*
X19629972Y-10035265D01*
X19801400Y-10092408D02*
X19820448Y-10101932D01*
X19858543Y-10101932D01*
X19877591Y-10092408D01*
X19887114Y-10073360D01*
X19887114Y-10063837D01*
X19877591Y-10044789D01*
X19858543Y-10035265D01*
X19829972Y-10035265D01*
X19810924Y-10025741D01*
X19801400Y-10006694D01*
X19801400Y-9997170D01*
X19810924Y-9978122D01*
X19829972Y-9968598D01*
X19858543Y-9968598D01*
X19877591Y-9978122D01*
X19953781Y-10178122D02*
X19963305Y-10168598D01*
X19982352Y-10140027D01*
X19991876Y-10120979D01*
X20001400Y-10092408D01*
X20010924Y-10044789D01*
X20010924Y-10006694D01*
X20001400Y-9959075D01*
X19991876Y-9930503D01*
X19982352Y-9911456D01*
X19963305Y-9882884D01*
X19953781Y-9873360D01*
D15*
X15165767Y-10314347D02*
X15165767Y-10236564D01*
X15087985Y-10236564D01*
X15087985Y-10314347D01*
X15165767Y-10314347D01*
D11*
X15544257Y-10365932D02*
X15429971Y-10365932D01*
X15487114Y-10365932D02*
X15487114Y-10165932D01*
X15468067Y-10194503D01*
X15449019Y-10213551D01*
X15429971Y-10223075D01*
X15629971Y-10346884D02*
X15639495Y-10356408D01*
X15629971Y-10365932D01*
X15620448Y-10356408D01*
X15629971Y-10346884D01*
X15629971Y-10365932D01*
X15829971Y-10365932D02*
X15715686Y-10365932D01*
X15772829Y-10365932D02*
X15772829Y-10165932D01*
X15753781Y-10194503D01*
X15734733Y-10213551D01*
X15715686Y-10223075D01*
X15953781Y-10165932D02*
X15972829Y-10165932D01*
X15991876Y-10175456D01*
X16001400Y-10184979D01*
X16010924Y-10204027D01*
X16020448Y-10242122D01*
X16020448Y-10289741D01*
X16010924Y-10327837D01*
X16001400Y-10346884D01*
X15991876Y-10356408D01*
X15972829Y-10365932D01*
X15953781Y-10365932D01*
X15934733Y-10356408D01*
X15925210Y-10346884D01*
X15915686Y-10327837D01*
X15906162Y-10289741D01*
X15906162Y-10242122D01*
X15915686Y-10204027D01*
X15925210Y-10184979D01*
X15934733Y-10175456D01*
X15953781Y-10165932D01*
X16144257Y-10165932D02*
X16163305Y-10165932D01*
X16182352Y-10175456D01*
X16191876Y-10184979D01*
X16201400Y-10204027D01*
X16210924Y-10242122D01*
X16210924Y-10289741D01*
X16201400Y-10327837D01*
X16191876Y-10346884D01*
X16182352Y-10356408D01*
X16163305Y-10365932D01*
X16144257Y-10365932D01*
X16125210Y-10356408D01*
X16115686Y-10346884D01*
X16106162Y-10327837D01*
X16096638Y-10289741D01*
X16096638Y-10242122D01*
X16106162Y-10204027D01*
X16115686Y-10184979D01*
X16125210Y-10175456D01*
X16144257Y-10165932D01*
X16296638Y-10365932D02*
X16296638Y-10232598D01*
X16296638Y-10251646D02*
X16306162Y-10242122D01*
X16325210Y-10232598D01*
X16353781Y-10232598D01*
X16372829Y-10242122D01*
X16382352Y-10261170D01*
X16382352Y-10365932D01*
X16382352Y-10261170D02*
X16391876Y-10242122D01*
X16410924Y-10232598D01*
X16439495Y-10232598D01*
X16458543Y-10242122D01*
X16468067Y-10261170D01*
X16468067Y-10365932D01*
X16563305Y-10365932D02*
X16563305Y-10232598D01*
X16563305Y-10251646D02*
X16572829Y-10242122D01*
X16591876Y-10232598D01*
X16620448Y-10232598D01*
X16639495Y-10242122D01*
X16649019Y-10261170D01*
X16649019Y-10365932D01*
X16649019Y-10261170D02*
X16658543Y-10242122D01*
X16677590Y-10232598D01*
X16706162Y-10232598D01*
X16725210Y-10242122D01*
X16734733Y-10261170D01*
X16734733Y-10365932D01*
X17125210Y-10156408D02*
X16953781Y-10413551D01*
X17382352Y-10165932D02*
X17401400Y-10165932D01*
X17420448Y-10175456D01*
X17429972Y-10184979D01*
X17439495Y-10204027D01*
X17449019Y-10242122D01*
X17449019Y-10289741D01*
X17439495Y-10327837D01*
X17429972Y-10346884D01*
X17420448Y-10356408D01*
X17401400Y-10365932D01*
X17382352Y-10365932D01*
X17363305Y-10356408D01*
X17353781Y-10346884D01*
X17344257Y-10327837D01*
X17334733Y-10289741D01*
X17334733Y-10242122D01*
X17344257Y-10204027D01*
X17353781Y-10184979D01*
X17363305Y-10175456D01*
X17382352Y-10165932D01*
X17534733Y-10346884D02*
X17544257Y-10356408D01*
X17534733Y-10365932D01*
X17525210Y-10356408D01*
X17534733Y-10346884D01*
X17534733Y-10365932D01*
X17668067Y-10165932D02*
X17687114Y-10165932D01*
X17706162Y-10175456D01*
X17715686Y-10184979D01*
X17725210Y-10204027D01*
X17734733Y-10242122D01*
X17734733Y-10289741D01*
X17725210Y-10327837D01*
X17715686Y-10346884D01*
X17706162Y-10356408D01*
X17687114Y-10365932D01*
X17668067Y-10365932D01*
X17649019Y-10356408D01*
X17639495Y-10346884D01*
X17629972Y-10327837D01*
X17620448Y-10289741D01*
X17620448Y-10242122D01*
X17629972Y-10204027D01*
X17639495Y-10184979D01*
X17649019Y-10175456D01*
X17668067Y-10165932D01*
X17906162Y-10232598D02*
X17906162Y-10365932D01*
X17858543Y-10156408D02*
X17810924Y-10299265D01*
X17934733Y-10299265D01*
X17991876Y-10165932D02*
X18115686Y-10165932D01*
X18049019Y-10242122D01*
X18077591Y-10242122D01*
X18096638Y-10251646D01*
X18106162Y-10261170D01*
X18115686Y-10280218D01*
X18115686Y-10327837D01*
X18106162Y-10346884D01*
X18096638Y-10356408D01*
X18077591Y-10365932D01*
X18020448Y-10365932D01*
X18001400Y-10356408D01*
X17991876Y-10346884D01*
X18182352Y-10165932D02*
X18306162Y-10165932D01*
X18239495Y-10242122D01*
X18268067Y-10242122D01*
X18287114Y-10251646D01*
X18296638Y-10261170D01*
X18306162Y-10280218D01*
X18306162Y-10327837D01*
X18296638Y-10346884D01*
X18287114Y-10356408D01*
X18268067Y-10365932D01*
X18210924Y-10365932D01*
X18191876Y-10356408D01*
X18182352Y-10346884D01*
X18382352Y-10165932D02*
X18382352Y-10204027D01*
X18458543Y-10165932D02*
X18458543Y-10204027D01*
X18753781Y-10442122D02*
X18744257Y-10432598D01*
X18725210Y-10404027D01*
X18715686Y-10384979D01*
X18706162Y-10356408D01*
X18696638Y-10308789D01*
X18696638Y-10270694D01*
X18706162Y-10223075D01*
X18715686Y-10194503D01*
X18725210Y-10175456D01*
X18744257Y-10146884D01*
X18753781Y-10137360D01*
X18915686Y-10232598D02*
X18915686Y-10365932D01*
X18868067Y-10156408D02*
X18820448Y-10299265D01*
X18944257Y-10299265D01*
X19172829Y-10365932D02*
X19172829Y-10165932D01*
X19258543Y-10365932D02*
X19258543Y-10261170D01*
X19249019Y-10242122D01*
X19229972Y-10232598D01*
X19201400Y-10232598D01*
X19182352Y-10242122D01*
X19172829Y-10251646D01*
X19382352Y-10365932D02*
X19363305Y-10356408D01*
X19353781Y-10346884D01*
X19344257Y-10327837D01*
X19344257Y-10270694D01*
X19353781Y-10251646D01*
X19363305Y-10242122D01*
X19382352Y-10232598D01*
X19410924Y-10232598D01*
X19429972Y-10242122D01*
X19439495Y-10251646D01*
X19449019Y-10270694D01*
X19449019Y-10327837D01*
X19439495Y-10346884D01*
X19429972Y-10356408D01*
X19410924Y-10365932D01*
X19382352Y-10365932D01*
X19563305Y-10365932D02*
X19544257Y-10356408D01*
X19534733Y-10337360D01*
X19534733Y-10165932D01*
X19715686Y-10356408D02*
X19696638Y-10365932D01*
X19658543Y-10365932D01*
X19639495Y-10356408D01*
X19629972Y-10337360D01*
X19629972Y-10261170D01*
X19639495Y-10242122D01*
X19658543Y-10232598D01*
X19696638Y-10232598D01*
X19715686Y-10242122D01*
X19725210Y-10261170D01*
X19725210Y-10280218D01*
X19629972Y-10299265D01*
X19801400Y-10356408D02*
X19820448Y-10365932D01*
X19858543Y-10365932D01*
X19877591Y-10356408D01*
X19887114Y-10337360D01*
X19887114Y-10327837D01*
X19877591Y-10308789D01*
X19858543Y-10299265D01*
X19829972Y-10299265D01*
X19810924Y-10289741D01*
X19801400Y-10270694D01*
X19801400Y-10261170D01*
X19810924Y-10242122D01*
X19829972Y-10232598D01*
X19858543Y-10232598D01*
X19877591Y-10242122D01*
X19953781Y-10442122D02*
X19963305Y-10432598D01*
X19982352Y-10404027D01*
X19991876Y-10384979D01*
X20001400Y-10356408D01*
X20010924Y-10308789D01*
X20010924Y-10270694D01*
X20001400Y-10223075D01*
X19991876Y-10194503D01*
X19982352Y-10175456D01*
X19963305Y-10146884D01*
X19953781Y-10137360D01*
D16*
X15104376Y-10616956D02*
X15181876Y-10539456D01*
X15104376Y-10461956D01*
X15026876Y-10539456D01*
X15104376Y-10616956D01*
D11*
X15544257Y-10629932D02*
X15429971Y-10629932D01*
X15487114Y-10629932D02*
X15487114Y-10429932D01*
X15468067Y-10458503D01*
X15449019Y-10477551D01*
X15429971Y-10487075D01*
X15629971Y-10610884D02*
X15639495Y-10620408D01*
X15629971Y-10629932D01*
X15620448Y-10620408D01*
X15629971Y-10610884D01*
X15629971Y-10629932D01*
X15820448Y-10429932D02*
X15725210Y-10429932D01*
X15715686Y-10525170D01*
X15725210Y-10515646D01*
X15744257Y-10506122D01*
X15791876Y-10506122D01*
X15810924Y-10515646D01*
X15820448Y-10525170D01*
X15829971Y-10544218D01*
X15829971Y-10591837D01*
X15820448Y-10610884D01*
X15810924Y-10620408D01*
X15791876Y-10629932D01*
X15744257Y-10629932D01*
X15725210Y-10620408D01*
X15715686Y-10610884D01*
X16010924Y-10429932D02*
X15915686Y-10429932D01*
X15906162Y-10525170D01*
X15915686Y-10515646D01*
X15934733Y-10506122D01*
X15982352Y-10506122D01*
X16001400Y-10515646D01*
X16010924Y-10525170D01*
X16020448Y-10544218D01*
X16020448Y-10591837D01*
X16010924Y-10610884D01*
X16001400Y-10620408D01*
X15982352Y-10629932D01*
X15934733Y-10629932D01*
X15915686Y-10620408D01*
X15906162Y-10610884D01*
X16144257Y-10429932D02*
X16163305Y-10429932D01*
X16182352Y-10439456D01*
X16191876Y-10448979D01*
X16201400Y-10468027D01*
X16210924Y-10506122D01*
X16210924Y-10553741D01*
X16201400Y-10591837D01*
X16191876Y-10610884D01*
X16182352Y-10620408D01*
X16163305Y-10629932D01*
X16144257Y-10629932D01*
X16125210Y-10620408D01*
X16115686Y-10610884D01*
X16106162Y-10591837D01*
X16096638Y-10553741D01*
X16096638Y-10506122D01*
X16106162Y-10468027D01*
X16115686Y-10448979D01*
X16125210Y-10439456D01*
X16144257Y-10429932D01*
X16296638Y-10629932D02*
X16296638Y-10496598D01*
X16296638Y-10515646D02*
X16306162Y-10506122D01*
X16325210Y-10496598D01*
X16353781Y-10496598D01*
X16372829Y-10506122D01*
X16382352Y-10525170D01*
X16382352Y-10629932D01*
X16382352Y-10525170D02*
X16391876Y-10506122D01*
X16410924Y-10496598D01*
X16439495Y-10496598D01*
X16458543Y-10506122D01*
X16468067Y-10525170D01*
X16468067Y-10629932D01*
X16563305Y-10629932D02*
X16563305Y-10496598D01*
X16563305Y-10515646D02*
X16572829Y-10506122D01*
X16591876Y-10496598D01*
X16620448Y-10496598D01*
X16639495Y-10506122D01*
X16649019Y-10525170D01*
X16649019Y-10629932D01*
X16649019Y-10525170D02*
X16658543Y-10506122D01*
X16677590Y-10496598D01*
X16706162Y-10496598D01*
X16725210Y-10506122D01*
X16734733Y-10525170D01*
X16734733Y-10629932D01*
X17125210Y-10420408D02*
X16953781Y-10677551D01*
X17382352Y-10429932D02*
X17401400Y-10429932D01*
X17420448Y-10439456D01*
X17429972Y-10448979D01*
X17439495Y-10468027D01*
X17449019Y-10506122D01*
X17449019Y-10553741D01*
X17439495Y-10591837D01*
X17429972Y-10610884D01*
X17420448Y-10620408D01*
X17401400Y-10629932D01*
X17382352Y-10629932D01*
X17363305Y-10620408D01*
X17353781Y-10610884D01*
X17344257Y-10591837D01*
X17334733Y-10553741D01*
X17334733Y-10506122D01*
X17344257Y-10468027D01*
X17353781Y-10448979D01*
X17363305Y-10439456D01*
X17382352Y-10429932D01*
X17534733Y-10610884D02*
X17544257Y-10620408D01*
X17534733Y-10629932D01*
X17525210Y-10620408D01*
X17534733Y-10610884D01*
X17534733Y-10629932D01*
X17668067Y-10429932D02*
X17687114Y-10429932D01*
X17706162Y-10439456D01*
X17715686Y-10448979D01*
X17725210Y-10468027D01*
X17734733Y-10506122D01*
X17734733Y-10553741D01*
X17725210Y-10591837D01*
X17715686Y-10610884D01*
X17706162Y-10620408D01*
X17687114Y-10629932D01*
X17668067Y-10629932D01*
X17649019Y-10620408D01*
X17639495Y-10610884D01*
X17629972Y-10591837D01*
X17620448Y-10553741D01*
X17620448Y-10506122D01*
X17629972Y-10468027D01*
X17639495Y-10448979D01*
X17649019Y-10439456D01*
X17668067Y-10429932D01*
X17906162Y-10429932D02*
X17868067Y-10429932D01*
X17849019Y-10439456D01*
X17839495Y-10448979D01*
X17820448Y-10477551D01*
X17810924Y-10515646D01*
X17810924Y-10591837D01*
X17820448Y-10610884D01*
X17829972Y-10620408D01*
X17849019Y-10629932D01*
X17887114Y-10629932D01*
X17906162Y-10620408D01*
X17915686Y-10610884D01*
X17925210Y-10591837D01*
X17925210Y-10544218D01*
X17915686Y-10525170D01*
X17906162Y-10515646D01*
X17887114Y-10506122D01*
X17849019Y-10506122D01*
X17829972Y-10515646D01*
X17820448Y-10525170D01*
X17810924Y-10544218D01*
X18115686Y-10629932D02*
X18001400Y-10629932D01*
X18058543Y-10629932D02*
X18058543Y-10429932D01*
X18039495Y-10458503D01*
X18020448Y-10477551D01*
X18001400Y-10487075D01*
X18239495Y-10429932D02*
X18258543Y-10429932D01*
X18277591Y-10439456D01*
X18287114Y-10448979D01*
X18296638Y-10468027D01*
X18306162Y-10506122D01*
X18306162Y-10553741D01*
X18296638Y-10591837D01*
X18287114Y-10610884D01*
X18277591Y-10620408D01*
X18258543Y-10629932D01*
X18239495Y-10629932D01*
X18220448Y-10620408D01*
X18210924Y-10610884D01*
X18201400Y-10591837D01*
X18191876Y-10553741D01*
X18191876Y-10506122D01*
X18201400Y-10468027D01*
X18210924Y-10448979D01*
X18220448Y-10439456D01*
X18239495Y-10429932D01*
X18382352Y-10429932D02*
X18382352Y-10468027D01*
X18458543Y-10429932D02*
X18458543Y-10468027D01*
X18753781Y-10706122D02*
X18744257Y-10696598D01*
X18725210Y-10668027D01*
X18715686Y-10648979D01*
X18706162Y-10620408D01*
X18696638Y-10572789D01*
X18696638Y-10534694D01*
X18706162Y-10487075D01*
X18715686Y-10458503D01*
X18725210Y-10439456D01*
X18744257Y-10410884D01*
X18753781Y-10401360D01*
X18820448Y-10448979D02*
X18829972Y-10439456D01*
X18849019Y-10429932D01*
X18896638Y-10429932D01*
X18915686Y-10439456D01*
X18925210Y-10448979D01*
X18934733Y-10468027D01*
X18934733Y-10487075D01*
X18925210Y-10515646D01*
X18810924Y-10629932D01*
X18934733Y-10629932D01*
X19106162Y-10496598D02*
X19106162Y-10629932D01*
X19058543Y-10420408D02*
X19010924Y-10563265D01*
X19134733Y-10563265D01*
X19363305Y-10629932D02*
X19363305Y-10429932D01*
X19449019Y-10629932D02*
X19449019Y-10525170D01*
X19439495Y-10506122D01*
X19420448Y-10496598D01*
X19391876Y-10496598D01*
X19372829Y-10506122D01*
X19363305Y-10515646D01*
X19572829Y-10629932D02*
X19553781Y-10620408D01*
X19544257Y-10610884D01*
X19534733Y-10591837D01*
X19534733Y-10534694D01*
X19544257Y-10515646D01*
X19553781Y-10506122D01*
X19572829Y-10496598D01*
X19601400Y-10496598D01*
X19620448Y-10506122D01*
X19629972Y-10515646D01*
X19639495Y-10534694D01*
X19639495Y-10591837D01*
X19629972Y-10610884D01*
X19620448Y-10620408D01*
X19601400Y-10629932D01*
X19572829Y-10629932D01*
X19753781Y-10629932D02*
X19734733Y-10620408D01*
X19725210Y-10601360D01*
X19725210Y-10429932D01*
X19906162Y-10620408D02*
X19887114Y-10629932D01*
X19849019Y-10629932D01*
X19829972Y-10620408D01*
X19820448Y-10601360D01*
X19820448Y-10525170D01*
X19829972Y-10506122D01*
X19849019Y-10496598D01*
X19887114Y-10496598D01*
X19906162Y-10506122D01*
X19915686Y-10525170D01*
X19915686Y-10544218D01*
X19820448Y-10563265D01*
X19991876Y-10620408D02*
X20010924Y-10629932D01*
X20049019Y-10629932D01*
X20068067Y-10620408D01*
X20077591Y-10601360D01*
X20077591Y-10591837D01*
X20068067Y-10572789D01*
X20049019Y-10563265D01*
X20020448Y-10563265D01*
X20001400Y-10553741D01*
X19991876Y-10534694D01*
X19991876Y-10525170D01*
X20001400Y-10506122D01*
X20020448Y-10496598D01*
X20049019Y-10496598D01*
X20068067Y-10506122D01*
X20144257Y-10706122D02*
X20153781Y-10696598D01*
X20172829Y-10668027D01*
X20182352Y-10648979D01*
X20191876Y-10620408D01*
X20201400Y-10572789D01*
X20201400Y-10534694D01*
X20191876Y-10487075D01*
X20182352Y-10458503D01*
X20172829Y-10439456D01*
X20153781Y-10410884D01*
X20144257Y-10401360D01*
M02*
